<svg width="29" height="19" viewBox="0 0 29 19" fill="none" xmlns="http://www.w3.org/2000/svg">
<path d="M9.04604 15.1678L4.08861 15.1678L4.08861 10.5125L9.30158 10.5125C9.30158 10.5125 11.1926 10.4875 11.1926 12.9152C11.167 14.9175 9.7871 15.1427 9.04604 15.1678ZM4.08861 3.90512L8.61162 3.90512L9.27602 3.90512C9.27602 3.90512 10.5282 3.90512 10.5282 5.73217C10.5282 7.55922 9.7871 7.8095 8.94383 7.8095L4.06305 7.8095L4.06305 3.90512H4.08861ZM11.627 8.7856C11.627 8.7856 14.3612 8.58537 14.3612 5.45686C14.3357 2.32835 12.1125 0.801636 9.30158 0.801636L4.11416 0.801636L3.93528 0.801636L0 0.801636L0 18.2712L3.93528 18.2712H4.08861L9.30158 18.2712C9.30158 18.2712 14.9745 18.4464 14.9745 13.1155C14.949 13.1155 15.2045 8.7856 11.627 8.7856Z" fill="#939496"/>
<path d="M25.3952 10.6894L19.8266 10.6894C19.8266 10.6894 20.1913 8.17128 22.8176 8.17128C25.4438 8.17128 25.3952 10.6894 25.3952 10.6894ZM22.7446 5.79309C16.2276 5.79309 16.2276 12.0417 16.2276 12.0417C16.2276 12.0417 15.7899 18.2669 22.7446 18.2669C22.7446 18.2669 28.5564 18.5934 28.5564 13.9302L25.5654 13.9302C25.5654 13.9302 25.6627 15.6789 22.8419 15.6789C22.8419 15.6789 19.8509 15.8654 19.8509 12.8577L28.6537 12.8577C28.6537 12.8577 29.6264 5.79309 22.7446 5.79309Z" fill="#939496"/>
<path d="M26.2055 0.801636L18.7183 0.801636L18.7183 3.29739L26.2055 3.29739L26.2055 0.801636Z" fill="#939496"/>
</svg>
