<svg width="31" height="19" viewBox="0 0 31 19" fill="none" xmlns="http://www.w3.org/2000/svg">
<path d="M9.73413 15.4735L4.39961 15.4735L4.39961 10.4642L10.0091 10.4642C10.0091 10.4642 12.0439 10.4373 12.0439 13.0497C12.0164 15.2042 10.5316 15.4466 9.73413 15.4735ZM4.39961 3.3542L9.26667 3.3542L9.98161 3.3542C9.98161 3.3542 11.329 3.3542 11.329 5.32023C11.329 7.28625 10.5316 7.55557 9.62414 7.55557L4.37211 7.55557L4.37211 3.3542H4.39961ZM12.5114 8.60591C12.5114 8.60591 15.4536 8.39046 15.4536 5.02398C15.4261 1.65749 13.0338 0.0146484 10.0091 0.0146484L4.42711 0.0146484L4.23462 0.0146484L0 0.0146484L0 18.8131L4.23462 18.8131H4.39961L10.0091 18.8131C10.0091 18.8131 16.1136 19.0016 16.1136 13.2651C16.0861 13.2651 16.361 8.60591 12.5114 8.60591Z" fill="#272425"/>
<path d="M27.3272 10.6546L21.335 10.6546C21.335 10.6546 21.7275 7.94495 24.5535 7.94495C27.3795 7.94495 27.3272 10.6546 27.3272 10.6546ZM24.475 5.38586C17.4623 5.38586 17.4623 12.1097 17.4623 12.1097C17.4623 12.1097 16.9913 18.8085 24.475 18.8085C24.475 18.8085 30.7289 19.1598 30.7289 14.142L27.5104 14.142C27.5104 14.142 27.615 16.0236 24.5797 16.0236C24.5797 16.0236 21.3612 16.2244 21.3612 12.9879L30.8336 12.9879C30.8336 12.9879 31.8802 5.38586 24.475 5.38586Z" fill="#272425"/>
<path d="M28.1988 0.0146484L20.142 0.0146484L20.142 2.70024L28.1988 2.70024L28.1988 0.0146484Z" fill="#272425"/>
</svg>
