<svg width="122" height="54" viewBox="0 0 122 54" fill="none" xmlns="http://www.w3.org/2000/svg">
<path d="M78.0387 4.20652C77.3528 3.48913 76.4055 3.06522 75.3275 3.06522H69.9051V3C69.9051 2.18478 69.5785 1.40217 69.0232 0.880435C68.4679 0.326087 67.7166 0 66.8999 0H57.1004C56.2511 0 55.4998 0.326087 54.9445 0.880435C54.3892 1.43478 54.0626 2.18478 54.0626 3V3.06522H48.6728C47.5949 3.06522 46.6476 3.48913 45.9616 4.20652C45.2757 4.8913 44.8184 5.86957 44.8184 6.91304V23.1522C44.8184 24.2283 45.243 25.1739 45.9616 25.8587C46.6476 26.5435 47.6276 27 48.6728 27H75.3275C76.4055 27 77.3528 26.5761 78.0387 25.8587C78.7247 25.1739 79.182 24.1957 79.182 23.1522V6.91304C79.182 5.83696 78.7573 4.8913 78.0387 4.20652ZM77.4834 23.1522H77.4507C77.4507 23.7391 77.2221 24.2609 76.8301 24.6522C76.4381 25.0435 75.9155 25.2717 75.3275 25.2717H48.6728C48.0849 25.2717 47.5622 25.0435 47.1702 24.6522C46.7783 24.2609 46.5496 23.7391 46.5496 23.1522V6.91304C46.5496 6.32609 46.7783 5.80435 47.1702 5.41304C47.5622 5.02174 48.0849 4.79348 48.6728 4.79348H54.9772C55.4672 4.79348 55.8591 4.40217 55.8591 3.91304V2.96739C55.8591 2.6087 55.9898 2.28261 56.2185 2.05435C56.4471 1.82609 56.7738 1.69565 57.1331 1.69565H66.8999C67.2593 1.69565 67.5859 1.82609 67.8146 2.05435C68.0432 2.28261 68.1739 2.6087 68.1739 2.96739V3.91304C68.1739 4.40217 68.5659 4.79348 69.0558 4.79348H75.3602C75.9482 4.79348 76.4708 5.02174 76.8628 5.41304C77.2548 5.80435 77.4834 6.32609 77.4834 6.91304V23.1522Z" fill="white"/>
<path d="M62.0004 7.01086C59.7792 7.01086 57.754 7.92391 56.3167 9.35869C54.8468 10.8261 53.9648 12.8152 53.9648 15.0326C53.9648 17.25 54.8795 19.2717 56.3167 20.7065C57.7867 22.1739 59.7792 23.0543 62.0004 23.0543C64.2217 23.0543 66.2469 22.1413 67.6842 20.7065C69.1541 19.2391 70.0361 17.25 70.0361 15.0326C70.0361 12.8152 69.1214 10.7935 67.6842 9.35869C66.2469 7.92391 64.2217 7.01086 62.0004 7.01086ZM66.4429 19.5C65.2996 20.6087 63.7317 21.3261 62.0004 21.3261C60.2692 21.3261 58.7013 20.6087 57.558 19.5C56.4147 18.3587 55.7288 16.7935 55.7288 15.0652C55.7288 13.337 56.4474 11.7717 57.558 10.6304C58.7013 9.48912 60.2692 8.80434 62.0004 8.80434C63.7317 8.80434 65.2996 9.52173 66.4429 10.6304C67.5862 11.7717 68.2721 13.337 68.2721 15.0652C68.3048 16.7935 67.5862 18.3587 66.4429 19.5Z" fill="white"/>
<path d="M73.6289 10.1739C74.5129 10.1739 75.2295 9.45855 75.2295 8.5761C75.2295 7.69364 74.5129 6.97827 73.6289 6.97827C72.7449 6.97827 72.0283 7.69364 72.0283 8.5761C72.0283 9.45855 72.7449 10.1739 73.6289 10.1739Z" fill="white"/>
<path d="M1.62819 49H3.70819V37.896H1.62819V49ZM7.84356 49V43.64C7.84356 42.808 8.46756 42.36 9.42756 42.36C10.3076 42.36 10.7076 42.744 10.7076 43.64V49H12.7396V43.72C12.7396 42.84 13.3636 42.36 14.3236 42.36C15.2036 42.36 15.6036 42.744 15.6036 43.64V49H17.6356V43.624C17.6356 41.656 16.8516 40.76 15.0436 40.76C13.8436 40.76 12.9956 41.208 12.5156 42.12C12.1636 41.208 11.3796 40.76 10.1476 40.76C9.07556 40.76 8.27556 41.128 7.76356 41.88L7.52356 41H5.81156V49H7.84356ZM21.8023 49.208C22.8103 49.208 23.5943 48.936 24.1543 48.408C24.4263 48.904 24.9543 49.16 25.7223 49.176C26.1703 49.16 26.5543 49.08 26.8743 48.904V47.544L26.4103 47.624C26.0103 47.624 25.8823 47.368 25.8823 46.84V43.64C25.8823 41.64 24.9543 40.76 22.5703 40.76C20.3143 40.76 19.3703 41.672 19.3703 43.608V43.96H21.1623V43.656C21.1623 42.584 21.5143 42.264 22.5863 42.264C23.4823 42.264 23.8503 42.728 23.8503 43.816V44.568H22.4263C19.9783 44.568 19.0823 45.32 19.0823 46.904C19.0823 48.44 19.9943 49.208 21.8023 49.208ZM22.4263 47.704C21.6263 47.704 21.2263 47.416 21.2263 46.84C21.2263 46.136 21.5623 45.88 22.6023 45.88H23.8503V46.936C23.8503 47.144 23.8503 47.288 23.8663 47.4C23.4983 47.608 23.0183 47.704 22.4263 47.704ZM32.9419 41.528C32.3499 41.016 31.6619 40.76 30.8459 40.76C28.8139 40.76 27.7899 41.896 27.7899 44.152V45.992C27.7899 48.056 28.6059 49.064 30.5259 49.064C31.5019 49.064 32.2539 48.744 32.7819 48.12V48.824C32.7819 49.976 32.1099 50.568 30.7659 50.584C29.9819 50.584 29.2939 50.424 28.9579 50.28L28.2859 49.944V51.608C29.0059 51.976 29.9019 52.152 30.9739 52.152C33.2939 52.152 34.8139 50.968 34.8139 48.872V41H33.1019L32.9419 41.528ZM31.2939 47.496C30.2699 47.496 29.8219 47.08 29.8219 46.168V43.848C29.8219 42.84 30.3019 42.344 31.2619 42.344C31.7419 42.344 32.2539 42.456 32.7819 42.696V46.2C32.7819 47.016 32.2379 47.496 31.2939 47.496ZM38.4774 45.592H43.2134V44.024C43.2134 41.736 42.2214 40.76 39.9014 40.76C37.5814 40.76 36.4454 41.784 36.4454 44.072V45.8C36.4454 48.024 37.7094 49.24 39.9494 49.24C41.0054 49.24 41.9974 49.032 42.9094 48.6V47.08C42.7814 47.16 42.4134 47.352 41.5814 47.544C41.1814 47.624 40.7654 47.672 40.3654 47.672C39.1974 47.672 38.4774 47.064 38.4774 45.96V45.592ZM41.3254 44.2H38.4774V43.88C38.4774 42.776 38.8774 42.264 39.9014 42.264C40.9414 42.264 41.3254 42.744 41.3254 43.88V44.2ZM46.7967 49V43.64C46.7967 42.808 47.4207 42.36 48.3807 42.36C49.2607 42.36 49.6607 42.744 49.6607 43.64V49H51.6927V43.72C51.6927 42.84 52.3167 42.36 53.2767 42.36C54.1567 42.36 54.5567 42.744 54.5567 43.64V49H56.5887V43.624C56.5887 41.656 55.8047 40.76 53.9967 40.76C52.7967 40.76 51.9487 41.208 51.4687 42.12C51.1167 41.208 50.3327 40.76 49.1007 40.76C48.0287 40.76 47.2287 41.128 46.7167 41.88L46.4767 41H44.7647V49H46.7967ZM66.0568 45.848C68.5688 45.848 69.7848 44.328 69.7848 41.944C69.7848 40.472 69.4648 39.432 68.8408 38.808C68.2168 38.184 67.1128 37.88 65.5448 37.896H61.7688V49H63.8488V45.848H66.0568ZM65.5288 39.576C67.0008 39.576 67.6728 40.296 67.6728 41.96C67.6728 43.56 66.9848 44.28 65.5288 44.28H63.8488V39.576H65.5288ZM73.2186 49.016V45C73.2186 43.4 73.9866 42.824 75.5226 42.776V40.808C74.4986 40.84 73.7146 41.272 73.1706 42.12L72.9466 41H71.1866V49.016H73.2186ZM78.7971 39.56V37.704H76.7491V39.56H78.7971ZM78.7811 49V41H76.7491V49H78.7811ZM82.7342 49V43.64C82.7342 42.808 83.3582 42.36 84.3182 42.36C85.1662 42.36 85.5982 42.84 85.5982 43.784V49H87.6302V43.608C87.6302 41.704 86.8462 40.76 85.2622 40.76C84.0782 40.76 83.2142 41.128 82.6702 41.88L82.3982 41H80.7022V49H82.7342ZM92.6191 49.208C93.6911 49.208 94.6831 49.032 95.6271 48.664V47.112C95.4511 47.192 95.0511 47.32 94.2031 47.496C93.7871 47.576 93.4031 47.608 93.0351 47.608C91.8511 47.608 91.2591 47.112 91.2591 46.104V43.72C91.2591 42.648 91.6431 42.28 92.6031 42.28C93.5791 42.28 93.9791 42.616 93.9791 43.72V44.52H95.7871V43.528C95.7871 41.688 94.7311 40.76 92.6031 40.76C90.3631 40.76 89.2111 41.928 89.2111 43.96V45.976C89.2111 48.136 90.4271 49.208 92.6191 49.208ZM99.4064 39.56V37.704H97.3584V39.56H99.4064ZM99.3904 49V41H97.3584V49H99.3904ZM105.6 40.76C104.544 40.76 103.728 41.16 103.168 41.96L102.8 41H101.312V52.008H103.344V48.568C103.92 49 104.56 49.208 105.28 49.208C107.376 49.208 108.336 48.104 108.336 45.816V43.832C108.336 41.768 107.52 40.76 105.6 40.76ZM106.304 46.12C106.304 47.128 105.824 47.64 104.864 47.64C104.368 47.64 103.856 47.512 103.344 47.272V43.624C103.344 42.856 103.936 42.36 104.88 42.36C105.888 42.36 106.304 42.76 106.304 43.672V46.12ZM112.271 49.208C113.279 49.208 114.063 48.936 114.623 48.408C114.895 48.904 115.423 49.16 116.191 49.176C116.639 49.16 117.023 49.08 117.343 48.904V47.544L116.879 47.624C116.479 47.624 116.351 47.368 116.351 46.84V43.64C116.351 41.64 115.423 40.76 113.039 40.76C110.783 40.76 109.839 41.672 109.839 43.608V43.96H111.631V43.656C111.631 42.584 111.983 42.264 113.055 42.264C113.951 42.264 114.319 42.728 114.319 43.816V44.568H112.895C110.447 44.568 109.551 45.32 109.551 46.904C109.551 48.44 110.463 49.208 112.271 49.208ZM112.895 47.704C112.095 47.704 111.695 47.416 111.695 46.84C111.695 46.136 112.031 45.88 113.071 45.88H114.319V46.936C114.319 47.144 114.319 47.288 114.335 47.4C113.967 47.608 113.487 47.704 112.895 47.704ZM118.515 49H120.547V37.896H118.515V49Z" fill="white"/>
</svg>
