<svg width="24" height="22" viewBox="0 0 24 22" fill="none" xmlns="http://www.w3.org/2000/svg">
<path fill-rule="evenodd" clip-rule="evenodd" d="M18.4525 0.0389402L5.76022 0.0389397C3.02453 0.0389395 0.765995 2.18983 0.765995 4.79514L0.765994 16.8826C0.765994 19.4879 3.02453 21.6388 5.76022 21.6388L18.4525 21.6388C21.1882 21.6388 23.4468 19.5182 23.4468 16.8826L23.4468 4.79514C23.4468 2.18983 21.1882 0.0389403 18.4525 0.0389402ZM13.2038 7.37L13.2038 8.40001L13.2038 8.4303L15.3987 8.4303L15.2396 10.0056L15.1442 11.0356L13.1083 11.0356L13.1083 17.5186L10.3726 17.5186L10.3726 11.0356L9.00476 11.0356L9.00476 10.0056L9.00476 8.4303L10.3726 8.4303L10.3726 7.24882C10.3726 6.18852 10.8816 4.52234 13.2356 4.52234L15.3351 4.52234L15.3351 6.76412L13.8082 6.76412C13.5537 6.76412 13.2038 6.855 13.2038 7.37Z" fill="#939496"/>
</svg>
