<svg width="26" height="24" viewBox="0 0 26 24" fill="none" xmlns="http://www.w3.org/2000/svg">
<path fill-rule="evenodd" clip-rule="evenodd" d="M19.789 0.11792L6.1312 0.11792C3.18742 0.11792 0.757086 2.43242 0.757086 5.2359L0.757085 18.2427C0.757085 21.0462 3.18742 23.3607 6.1312 23.3607L19.789 23.3607C22.7327 23.3607 25.1631 21.0788 25.1631 18.2427L25.1631 5.2359C25.1631 2.43242 22.7327 0.11792 19.789 0.11792ZM14.1409 8.00662L14.1409 9.11497L14.1409 9.14757L16.5028 9.14757L16.3317 10.8427L16.229 11.9511L14.0382 11.9511L14.0382 18.9272L11.0944 18.9272L11.0944 11.9511L9.62254 11.9511L9.62254 10.8427L9.62254 9.14757L11.0944 9.14757L11.0944 7.87622C11.0944 6.73527 11.6421 4.94235 14.1752 4.94235L16.4344 4.94235L16.4344 7.35465L14.7913 7.35465C14.5175 7.35465 14.1409 7.45244 14.1409 8.00662Z" fill="#272425"/>
</svg>
