<svg width="296" height="46" viewBox="0 0 296 46" fill="none" xmlns="http://www.w3.org/2000/svg">
<path d="M3.705 12C4.992 12 5.772 11.831 6.461 11.272C7.176 10.7 7.501 9.608 7.501 7.905V7.307C7.501 5.526 7.176 4.382 6.487 3.771C5.798 3.16 5.005 2.978 3.744 2.978H1.066V12H3.705ZM2.262 3.979H3.796C4.745 3.979 5.395 4.2 5.746 4.655C6.097 5.11 6.279 5.955 6.279 7.19V8.009C6.279 9.309 6.149 10.05 5.72 10.479C5.304 10.895 4.784 10.999 3.796 10.999H2.262V3.979ZM9.63148 9.075H13.6485V7.866C13.6485 6.111 12.8555 5.318 11.0875 5.318C9.33248 5.318 8.46148 6.176 8.46148 7.892V9.426C8.46148 11.181 9.43648 12.182 11.1395 12.182C12.0365 12.182 12.7905 12.013 13.4015 11.688V10.765C13.3105 10.83 13.0505 10.973 12.3745 11.129C12.0365 11.194 11.6855 11.233 11.3345 11.233C10.2945 11.233 9.63148 10.609 9.63148 9.556V9.075ZM12.5435 8.204H9.63148V7.749C9.63148 6.748 10.1125 6.241 11.0875 6.241C12.0625 6.241 12.5435 6.748 12.5435 7.762V8.204ZM16.9003 12.169C18.6813 12.169 19.4613 11.571 19.4613 10.232C19.4613 9.257 19.0583 8.685 17.9143 8.438L16.3543 8.074C15.8343 7.97 15.5743 7.684 15.5743 7.229C15.5743 6.54 15.8993 6.267 16.8873 6.267C17.8623 6.267 18.2653 6.592 18.2653 7.359V7.671H19.3573V7.333C19.3443 5.929 18.6033 5.318 16.8873 5.318C15.2883 5.318 14.4953 5.968 14.4953 7.255C14.4953 8.334 15.0153 8.854 16.1723 9.114L17.3683 9.374C18.1093 9.517 18.3823 9.777 18.3823 10.297C18.3823 10.973 18.0443 11.246 16.9133 11.246C15.8603 11.246 15.4833 10.934 15.4833 10.349V10.076H14.4043V10.479C14.4043 11.662 15.1713 12.169 16.9003 12.169ZM21.4706 9.075H25.4876V7.866C25.4876 6.111 24.6946 5.318 22.9266 5.318C21.1716 5.318 20.3006 6.176 20.3006 7.892V9.426C20.3006 11.181 21.2756 12.182 22.9786 12.182C23.8756 12.182 24.6296 12.013 25.2406 11.688V10.765C25.1496 10.83 24.8896 10.973 24.2136 11.129C23.8756 11.194 23.5246 11.233 23.1736 11.233C22.1336 11.233 21.4706 10.609 21.4706 9.556V9.075ZM24.3826 8.204H21.4706V7.749C21.4706 6.748 21.9516 6.241 22.9266 6.241C23.9016 6.241 24.3826 6.748 24.3826 7.762V8.204ZM27.7384 12V7.541C27.7384 6.748 28.4144 6.28 29.3894 6.28C30.2734 6.28 30.6504 6.696 30.6504 7.619V12H31.8204V7.528C31.8204 6.059 31.1574 5.318 29.8444 5.318C28.8694 5.318 28.1674 5.63 27.7124 6.241L27.5304 5.5H26.5684V12H27.7384ZM36.4508 12L38.3098 5.5H37.1008L35.5668 11.181H35.2938L33.7988 5.5H32.5248L34.3578 12H36.4508ZM38.783 9.491C38.783 11.35 39.667 12.182 41.5 12.182C43.333 12.182 44.217 11.35 44.217 9.491V8.022C44.217 6.163 43.333 5.331 41.5 5.331C39.667 5.331 38.783 6.163 38.783 8.022V9.491ZM43.047 9.699C43.047 10.739 42.527 11.259 41.5 11.259C40.473 11.259 39.953 10.739 39.953 9.699V7.814C39.953 6.761 40.473 6.241 41.5 6.241C42.527 6.241 43.047 6.761 43.047 7.814V9.699ZM45.3809 12H46.5509V2.978H45.3809V12ZM51.2769 12L53.1359 5.5H51.9269L50.3929 11.181H50.1199L48.6249 5.5H47.3509L49.1839 12H51.2769ZM55.1149 4.291V3.043H53.9319V4.291H55.1149ZM55.1019 12V5.5H53.9319V12H55.1019ZM60.5169 5.929C60.0619 5.526 59.4769 5.318 58.7489 5.318C57.0199 5.318 56.2919 6.241 56.2919 8.022V9.712C56.2919 11.376 56.9679 12.169 58.5799 12.169C59.4769 12.169 60.1399 11.844 60.5689 11.194L60.8159 12H61.6869V2.978H60.5169V5.929ZM58.9309 11.233C57.9039 11.233 57.4749 10.804 57.4749 9.881V7.814C57.4749 6.735 57.9559 6.28 58.9439 6.28C59.4769 6.28 60.0099 6.462 60.5169 6.826V9.829C60.5169 10.7 59.8539 11.233 58.9309 11.233ZM62.8584 9.491C62.8584 11.35 63.7424 12.182 65.5754 12.182C67.4084 12.182 68.2924 11.35 68.2924 9.491V8.022C68.2924 6.163 67.4084 5.331 65.5754 5.331C63.7424 5.331 62.8584 6.163 62.8584 8.022V9.491ZM67.1224 9.699C67.1224 10.739 66.6024 11.259 65.5754 11.259C64.5484 11.259 64.0284 10.739 64.0284 9.699V7.814C64.0284 6.761 64.5484 6.241 65.5754 6.241C66.6024 6.241 67.1224 6.761 67.1224 7.814V9.699ZM74.9662 5.318C74.0822 5.318 73.4192 5.643 72.9772 6.28L72.7302 5.5H71.8592V14.444H73.0292V11.545C73.5102 11.961 74.0952 12.169 74.7842 12.169C76.5132 12.169 77.2542 11.259 77.2542 9.452V7.788C77.2542 6.124 76.5782 5.318 74.9662 5.318ZM76.0712 9.673C76.0712 10.765 75.5902 11.207 74.6022 11.207C74.0432 11.207 73.5102 11.025 73.0292 10.661V7.671C73.0292 6.787 73.6532 6.28 74.6282 6.28C75.6292 6.28 76.0712 6.696 76.0712 7.619V9.673ZM78.2176 9.491C78.2176 11.35 79.1016 12.182 80.9346 12.182C82.7676 12.182 83.6516 11.35 83.6516 9.491V8.022C83.6516 6.163 82.7676 5.331 80.9346 5.331C79.1016 5.331 78.2176 6.163 78.2176 8.022V9.491ZM82.4816 9.699C82.4816 10.739 81.9616 11.259 80.9346 11.259C79.9076 11.259 79.3876 10.739 79.3876 9.699V7.814C79.3876 6.761 79.9076 6.241 80.9346 6.241C81.9616 6.241 82.4816 6.761 82.4816 7.814V9.699ZM85.9856 12.013V8.633C85.9856 7.125 86.6876 6.514 87.9356 6.462V5.344C87.0126 5.396 86.3626 5.786 85.9596 6.501L85.8036 5.5H84.8156V12.013H85.9856Z" fill="#939496"/>
<path d="M130.921 35.0434L128.129 31.9679H125.527V35.0434H127.893V37.7345H121.693V35.2356L118.712 32.1601H117.434V35.2356H118.712V38.5995L121.693 40.81H127.893L130.921 37.7345V35.0434Z" fill="#939496"/>
<path d="M116.771 25.2402L113.411 28.3638V42.9244H105.981V35.2357H112.418V32.1601H105.981L103 35.2357V42.9244L105.934 46H113.506L116.345 42.9244H116.393V28.3638H130.921V25.2402H116.771Z" fill="#939496"/>
<path d="M147.059 29.2769V30.3341C147.059 32.9771 145.213 34.4668 142.989 34.4668H139.534V25.1442H142.989C145.213 25.1442 147.059 26.6339 147.059 29.2769ZM141.569 32.7849H142.989C144.077 32.7849 144.929 32.0641 144.929 30.6224V28.9405C144.929 27.4989 144.077 26.778 142.989 26.778H141.569V32.7849Z" fill="#939496"/>
<path d="M155.151 25.1442L154.914 26.8261H150.702V28.8444H154.63V30.5263H150.702V32.7849H154.962L155.198 34.4668H148.667V25.1442H155.151Z" fill="#939496"/>
<path d="M167.124 28.46H165.184C165.184 27.2105 164.332 26.6819 163.386 26.6819C162.297 26.6819 161.493 27.4027 161.493 28.8444V30.7666C161.493 32.2082 162.392 32.9291 163.433 32.9291C164.427 32.9291 165.184 32.3524 165.184 31.1991V30.9588H163.102V29.373H167.124V32.5927C167.124 33.6979 167.219 34.4188 167.219 34.4188H166.083L165.752 33.3616C165.184 34.0824 164.238 34.5629 163.149 34.5629H163.102C160.878 34.5629 159.316 32.9771 159.316 30.4302V29.1327C159.316 26.5858 160.972 25 163.338 25H163.528C165.468 25 167.124 26.3455 167.124 28.46Z" fill="#939496"/>
<path d="M176.163 27.5469C176.163 28.7002 175.406 29.5652 174.507 29.9497V29.9977C175.169 30.238 175.974 30.9588 175.974 32.2082C175.974 32.7849 176.068 33.746 176.636 33.9382V34.4188C176.352 34.5629 175.879 34.611 175.5 34.611C174.696 34.611 173.986 34.2746 173.986 33.1213C173.986 32.016 173.749 30.9108 172.566 30.9108H171.005V34.5149H168.97V25.1442H173.134C174.601 25.1442 176.163 25.7689 176.163 27.5469ZM171.005 26.8261V29.2288H172.992C173.607 29.2288 174.081 28.5561 174.081 27.8352C174.081 27.2586 173.702 26.8261 173.087 26.8261H171.005Z" fill="#939496"/>
<path d="M183.167 32.5928H179.523L178.861 34.4188H176.873L180.186 25.0962H182.647L185.959 34.4188H183.782L183.167 32.5928ZM181.416 27.3548H181.369L180.138 31.0069H182.694L181.416 27.3548Z" fill="#939496"/>
<path d="M191.638 29.4691L192.395 30.6705L192.443 30.6224V25.1442H194.336V34.4668H192.585L189.698 30.1899L188.941 28.9886L188.893 29.0366V34.5149H187V25.1442H188.751L191.638 29.4691Z" fill="#939496"/>
<path d="M203.8 29.2769V30.3341C203.8 32.9771 201.955 34.4668 199.731 34.4668H196.229V25.1442H199.683C201.955 25.1442 203.8 26.6339 203.8 29.2769ZM198.311 32.7849H199.731C200.819 32.7849 201.671 32.0641 201.671 30.6224V28.9405C201.671 27.4989 200.819 26.778 199.731 26.778H198.311V32.7849Z" fill="#939496"/>
<path d="M209.622 26.8261H208.533V32.7849H209.622V34.4668H205.41V32.7849H206.498V26.8261H205.41V25.1442H209.622V26.8261Z" fill="#939496"/>
<path d="M144.503 40.9062V41.0023H143.794V40.8581C143.794 40.1373 143.131 39.7528 142.279 39.7528C141.38 39.7528 140.718 40.0892 140.718 40.8101C140.718 42.54 144.693 41.5309 144.693 43.9817C144.693 45.4233 143.652 46 142.279 46C140.859 46 139.818 45.4233 139.818 44.0297C139.818 43.9817 139.818 43.9336 139.818 43.8375H140.528C140.528 43.9336 140.528 43.9817 140.528 44.0778C140.528 44.9908 141.238 45.3272 142.232 45.3272C143.226 45.3272 143.936 44.9908 143.936 44.0778C143.936 42.2036 139.96 43.2609 139.96 40.8581C139.96 39.6087 140.954 39.0801 142.232 39.0801C143.557 39.0801 144.503 39.6567 144.503 40.9062Z" fill="#939496"/>
<path d="M150.561 39.1761V39.8489H148.431V45.9038H147.721V39.8489H145.592V39.1761H150.561Z" fill="#939496"/>
<path d="M152.454 39.1761V43.6933C152.454 44.6544 153.117 45.2791 154.11 45.2791C155.151 45.2791 155.767 44.6064 155.767 43.6933V39.1761H156.477V43.7414C156.477 45.0869 155.577 45.9999 154.158 45.9999H154.063C152.691 45.9999 151.744 45.135 151.744 43.7414V39.1761H152.454Z" fill="#939496"/>
<path d="M163.149 42.2997V42.7803C163.149 44.9908 162.014 45.9038 160.499 45.9038H158.322V39.1761H160.499C162.014 39.1761 163.149 40.0892 163.149 42.2997ZM159.032 45.2311H160.499C161.635 45.2311 162.439 44.6064 162.439 42.8283V42.2997C162.439 40.5697 161.682 39.897 160.499 39.897H159.032V45.2311Z" fill="#939496"/>
<path d="M166.604 39.8489H165.846V45.2311H166.604V45.9038H164.379V45.2311H165.137V39.8489H164.379V39.1761H166.604V39.8489Z" fill="#939496"/>
<path d="M167.929 42.8284V42.2998C167.929 39.9932 169.064 39.1282 170.532 39.1282H170.579C172.093 39.1282 173.182 39.9932 173.182 42.2998V42.8284C173.182 45.135 172.046 46 170.579 46H170.532C169.064 46 167.929 45.135 167.929 42.8284ZM172.472 42.8765V42.2037C172.472 40.3776 171.715 39.7529 170.532 39.7529C169.396 39.7529 168.591 40.3776 168.591 42.2037V42.8765C168.591 44.7025 169.348 45.3273 170.532 45.3273C171.667 45.3273 172.472 44.7025 172.472 42.8765Z" fill="#939496"/>
<path d="M181.984 42.2997V42.7803C181.984 44.9908 180.849 45.9038 179.334 45.9038H177.157V39.1761H179.334C180.896 39.1761 181.984 40.0892 181.984 42.2997ZM177.867 45.2311H179.334C180.47 45.2311 181.274 44.6064 181.274 42.8283V42.2997C181.274 40.5697 180.517 39.897 179.334 39.897H177.867V45.2311Z" fill="#939496"/>
<path d="M187.805 39.1761L187.711 39.8489H184.351V42.1556H187.379V42.7803H184.351V45.2311H187.805L187.947 45.9038H183.688V39.1761H187.805Z" fill="#939496"/>
<path d="M193.531 40.9062V41.0023H192.821V40.8581C192.821 40.1373 192.159 39.7528 191.307 39.7528C190.408 39.7528 189.745 40.0892 189.745 40.8101C189.745 42.54 193.721 41.5309 193.721 43.9817C193.721 45.4233 192.679 46 191.307 46C189.887 46 188.846 45.4233 188.846 44.0297C188.846 43.9817 188.846 43.9336 188.846 43.8375H189.556C189.556 43.9336 189.556 43.9817 189.556 44.0778C189.556 44.9908 190.266 45.3272 191.26 45.3272C192.254 45.3272 192.963 44.9908 192.963 44.0778C192.963 42.2036 188.988 43.2609 188.988 40.8581C188.988 39.6087 189.982 39.0801 191.26 39.0801C192.585 39.0801 193.531 39.6567 193.531 40.9062Z" fill="#939496"/>
<path d="M197.175 39.8489H196.418V45.2311H197.175V45.9038H194.951V45.2311H195.708V39.8489H194.951V39.1761H197.175V39.8489Z" fill="#939496"/>
<path d="M203.564 41.5308H202.854C202.854 40.2334 202.097 39.7528 201.056 39.7528C199.92 39.7528 199.21 40.3775 199.21 42.2036V42.8764C199.21 44.7025 199.92 45.3272 201.056 45.3272C202.097 45.3272 202.854 44.8466 202.854 43.405V43.0686H200.819V42.4439H203.564V44.7025C203.564 45.3272 203.612 45.7597 203.612 45.9038H203.186L202.996 45.0388C202.57 45.7116 201.908 45.9999 201.103 45.9999H201.056C199.542 45.9999 198.5 45.135 198.5 42.8283V42.2997C198.5 39.9931 199.542 39.1281 201.056 39.1281H201.103C202.476 39.08 203.564 39.8489 203.564 41.5308Z" fill="#939496"/>
<path d="M208.912 43.8855L209.29 44.5102H209.337V39.1761H210V45.8558H209.385L206.261 41.0022L205.977 40.5217H205.93V45.8558H205.268V39.1761H205.883L208.912 43.8855Z" fill="#939496"/>
<path d="M232.85 38.262C233.06 38.5144 233.289 38.7145 233.536 38.8625C233.792 39.0104 234.112 39.0843 234.496 39.0843C234.66 39.0843 234.825 39.0669 234.989 39.0321C235.163 38.9973 235.318 38.9408 235.456 38.8625C235.593 38.7841 235.702 38.6884 235.785 38.5753C235.867 38.4535 235.908 38.3099 235.908 38.1446C235.908 37.9793 235.867 37.8444 235.785 37.74C235.712 37.6355 235.611 37.5485 235.483 37.4789C235.355 37.4006 235.209 37.3397 235.044 37.2962C234.88 37.2527 234.711 37.2135 234.537 37.1787C234.235 37.1178 233.947 37.0482 233.673 36.9699C233.399 36.8916 233.156 36.7915 232.946 36.6697C232.745 36.5392 232.581 36.3738 232.453 36.1737C232.334 35.9736 232.274 35.7169 232.274 35.4036C232.274 35.1078 232.343 34.8467 232.48 34.6205C232.617 34.3942 232.8 34.2072 233.028 34.0592C233.257 33.9113 233.513 33.7982 233.796 33.7199C234.08 33.6416 234.372 33.6024 234.674 33.6024C235.131 33.6024 235.552 33.6894 235.936 33.8635C236.329 34.0375 236.635 34.3203 236.854 34.7118L235.963 35.2731C235.826 35.0556 235.643 34.8815 235.414 34.751C235.195 34.6118 234.925 34.5422 234.605 34.5422C234.459 34.5422 234.308 34.5596 234.153 34.5944C234.007 34.6292 233.874 34.6814 233.755 34.751C233.636 34.8206 233.536 34.912 233.454 35.0251C233.38 35.1295 233.344 35.2513 233.344 35.3906C233.344 35.5211 233.385 35.6342 233.467 35.7299C233.559 35.8169 233.678 35.8952 233.824 35.9649C233.979 36.0345 234.153 36.0954 234.345 36.1476C234.546 36.1998 234.752 36.2433 234.962 36.2781C235.245 36.3303 235.515 36.3999 235.771 36.4869C236.027 36.5653 236.251 36.674 236.443 36.8133C236.635 36.9525 236.786 37.1265 236.895 37.3353C237.005 37.5442 237.06 37.8009 237.06 38.1054C237.06 38.4535 236.987 38.7493 236.841 38.993C236.694 39.2366 236.498 39.4367 236.251 39.5934C236.013 39.7413 235.739 39.8501 235.428 39.9197C235.126 39.9893 234.816 40.0241 234.496 40.0241C233.947 40.0241 233.472 39.9458 233.07 39.7892C232.676 39.6238 232.32 39.3236 232 38.8886L232.85 38.262Z" fill="#939496"/>
<path d="M238.277 30H239.347V36.4478L242.268 33.759H243.79L240.691 36.5392L244.105 39.8675H242.528L239.347 36.6566V39.8675H238.277V30Z" fill="#939496"/>
<path d="M244.777 34.5422C245.106 34.2202 245.495 33.9853 245.943 33.8373C246.4 33.6807 246.862 33.6024 247.328 33.6024C248.278 33.6024 248.964 33.8156 249.385 34.242C249.805 34.6683 250.015 35.3166 250.015 36.1867V38.8102C250.015 38.9843 250.025 39.167 250.043 39.3584C250.061 39.5412 250.084 39.7108 250.111 39.8675H249.083C249.046 39.7282 249.024 39.576 249.014 39.4106C249.014 39.2366 249.014 39.0843 249.014 38.9538H248.987C248.777 39.2671 248.493 39.5238 248.137 39.7239C247.789 39.924 247.369 40.0241 246.875 40.0241C246.546 40.0241 246.235 39.9849 245.943 39.9066C245.659 39.8283 245.408 39.7152 245.189 39.5673C244.978 39.4106 244.809 39.2192 244.681 38.993C244.553 38.7667 244.489 38.5057 244.489 38.2098C244.489 37.7052 244.626 37.3092 244.901 37.0221C245.175 36.7349 245.513 36.5218 245.915 36.3825C246.327 36.2433 246.766 36.1563 247.232 36.1215C247.707 36.0867 248.141 36.0693 248.534 36.0693H248.946V35.8865C248.946 35.4428 248.804 35.1078 248.521 34.8815C248.246 34.6553 247.858 34.5422 247.355 34.5422C247.008 34.5422 246.665 34.5987 246.327 34.7118C245.998 34.8163 245.705 34.9816 245.449 35.2078L244.777 34.5422ZM247.876 36.9307C247.191 36.9307 246.647 37.0221 246.244 37.2048C245.842 37.3876 245.641 37.6878 245.641 38.1054C245.641 38.4883 245.774 38.7624 246.039 38.9277C246.313 39.0843 246.651 39.1627 247.053 39.1627C247.364 39.1627 247.634 39.1148 247.863 39.0191C248.1 38.9147 248.297 38.7798 248.452 38.6145C248.608 38.4491 248.726 38.2577 248.809 38.0402C248.891 37.8139 248.937 37.5746 248.946 37.3223V36.9307H247.876Z" fill="#939496"/>
<path d="M251.792 30H252.862V39.8675H251.792V30Z" fill="#939496"/>
<path d="M255.607 38.3795C255.836 38.3795 256.028 38.4578 256.183 38.6145C256.348 38.7624 256.43 38.9451 256.43 39.1627C256.43 39.3802 256.343 39.5673 256.169 39.7239C256.005 39.8718 255.818 39.9458 255.607 39.9458C255.397 39.9458 255.205 39.8718 255.031 39.7239C254.867 39.5673 254.785 39.3802 254.785 39.1627C254.785 38.9451 254.862 38.7624 255.018 38.6145C255.182 38.4578 255.379 38.3795 255.607 38.3795Z" fill="#939496"/>
<path d="M263.592 38.7841H263.565C263.364 39.1322 263.044 39.428 262.605 39.6717C262.175 39.9066 261.673 40.0241 261.097 40.0241C260.649 40.0241 260.228 39.9458 259.835 39.7892C259.442 39.6238 259.099 39.3976 258.807 39.1104C258.523 38.8233 258.299 38.4839 258.135 38.0924C257.97 37.7008 257.888 37.2744 257.888 36.8133C257.888 36.3521 257.97 35.9257 258.135 35.5341C258.299 35.1426 258.528 34.8032 258.82 34.5161C259.113 34.2289 259.465 34.007 259.876 33.8504C260.297 33.6851 260.758 33.6024 261.261 33.6024C261.728 33.6024 262.153 33.6938 262.537 33.8765C262.93 34.0592 263.272 34.3159 263.565 34.6466H263.592V30H264.662V39.8675H263.592V38.7841ZM263.592 36.8133C263.592 36.4913 263.538 36.1954 263.428 35.9257C263.327 35.6473 263.176 35.408 262.975 35.2078C262.774 34.999 262.532 34.838 262.249 34.7249C261.974 34.6031 261.664 34.5422 261.316 34.5422C260.969 34.5422 260.653 34.6031 260.37 34.7249C260.096 34.838 259.858 34.999 259.657 35.2078C259.456 35.408 259.3 35.6473 259.191 35.9257C259.09 36.1954 259.04 36.4913 259.04 36.8133C259.04 37.1352 259.09 37.4354 259.191 37.7139C259.3 37.9836 259.456 38.2229 259.657 38.4317C259.858 38.6319 260.096 38.7928 260.37 38.9147C260.653 39.0278 260.969 39.0843 261.316 39.0843C261.664 39.0843 261.974 39.0278 262.249 38.9147C262.532 38.7928 262.774 38.6319 262.975 38.4317C263.176 38.2229 263.327 37.9836 263.428 37.7139C263.538 37.4354 263.592 37.1352 263.592 36.8133Z" fill="#939496"/>
<path d="M272.099 38.758C271.715 39.2279 271.294 39.5586 270.837 39.75C270.38 39.9327 269.85 40.0241 269.247 40.0241C268.744 40.0241 268.291 39.9414 267.889 39.7761C267.487 39.6021 267.144 39.3715 266.861 39.0843C266.586 38.7972 266.371 38.4578 266.216 38.0663C266.07 37.6747 265.997 37.257 265.997 36.8133C265.997 36.3434 266.079 35.9127 266.243 35.5211C266.408 35.1208 266.637 34.7815 266.929 34.503C267.222 34.2159 267.569 33.994 267.971 33.8373C268.373 33.6807 268.812 33.6024 269.288 33.6024C269.736 33.6024 270.147 33.6764 270.522 33.8243C270.897 33.9635 271.217 34.1724 271.482 34.4508C271.756 34.7205 271.966 35.0556 272.112 35.4558C272.259 35.8474 272.332 36.2955 272.332 36.8002V37.1265H267.148C267.167 37.3875 267.231 37.6399 267.34 37.8835C267.459 38.1185 267.61 38.3273 267.793 38.51C267.976 38.6841 268.191 38.8233 268.437 38.9277C268.684 39.0321 268.954 39.0843 269.247 39.0843C269.713 39.0843 270.106 39.006 270.426 38.8494C270.746 38.6928 271.034 38.4622 271.29 38.1576L272.099 38.758ZM271.18 36.2651C271.162 35.743 270.983 35.3253 270.645 35.012C270.307 34.6988 269.841 34.5422 269.247 34.5422C268.652 34.5422 268.172 34.6988 267.807 35.012C267.441 35.3253 267.222 35.743 267.148 36.2651H271.18Z" fill="#939496"/>
<path d="M273.849 38.262C274.06 38.5144 274.288 38.7145 274.535 38.8625C274.791 39.0104 275.111 39.0843 275.495 39.0843C275.659 39.0843 275.824 39.0669 275.989 39.0321C276.162 38.9973 276.318 38.9408 276.455 38.8625C276.592 38.7841 276.702 38.6884 276.784 38.5753C276.866 38.4535 276.907 38.3099 276.907 38.1446C276.907 37.9793 276.866 37.8444 276.784 37.74C276.711 37.6355 276.61 37.5485 276.482 37.4789C276.354 37.4006 276.208 37.3397 276.043 37.2962C275.879 37.2527 275.71 37.2135 275.536 37.1787C275.234 37.1178 274.946 37.0482 274.672 36.9699C274.398 36.8916 274.156 36.7915 273.945 36.6697C273.744 36.5392 273.58 36.3738 273.452 36.1737C273.333 35.9736 273.273 35.7169 273.273 35.4036C273.273 35.1078 273.342 34.8467 273.479 34.6205C273.616 34.3942 273.799 34.2072 274.028 34.0592C274.256 33.9113 274.512 33.7982 274.796 33.7199C275.079 33.6416 275.371 33.6024 275.673 33.6024C276.13 33.6024 276.551 33.6894 276.935 33.8635C277.328 34.0375 277.634 34.3203 277.853 34.7118L276.962 35.2731C276.825 35.0556 276.642 34.8815 276.414 34.751C276.194 34.6118 275.925 34.5422 275.605 34.5422C275.458 34.5422 275.307 34.5596 275.152 34.5944C275.006 34.6292 274.873 34.6814 274.754 34.751C274.636 34.8206 274.535 34.912 274.453 35.0251C274.38 35.1295 274.343 35.2513 274.343 35.3906C274.343 35.5211 274.384 35.6342 274.466 35.7299C274.558 35.8169 274.677 35.8952 274.823 35.9649C274.978 36.0345 275.152 36.0954 275.344 36.1476C275.545 36.1998 275.751 36.2433 275.961 36.2781C276.245 36.3303 276.514 36.3999 276.77 36.4869C277.026 36.5653 277.25 36.674 277.442 36.8133C277.634 36.9525 277.785 37.1265 277.895 37.3353C278.004 37.5442 278.059 37.8009 278.059 38.1054C278.059 38.4535 277.986 38.7493 277.84 38.993C277.693 39.2366 277.497 39.4367 277.25 39.5934C277.012 39.7413 276.738 39.8501 276.427 39.9197C276.126 39.9893 275.815 40.0241 275.495 40.0241C274.946 40.0241 274.471 39.9458 274.069 39.7892C273.676 39.6238 273.319 39.3236 272.999 38.8886L273.849 38.262Z" fill="#939496"/>
<path d="M279.373 33.759H280.442V39.8675H279.373V33.759ZM279.126 31.3705C279.126 31.1703 279.199 30.9963 279.345 30.8484C279.501 30.7005 279.688 30.6265 279.907 30.6265C280.127 30.6265 280.31 30.7005 280.456 30.8484C280.611 30.9963 280.689 31.1703 280.689 31.3705C280.689 31.588 280.616 31.7664 280.47 31.9056C280.323 32.0448 280.136 32.1145 279.907 32.1145C279.679 32.1145 279.491 32.0448 279.345 31.9056C279.199 31.7664 279.126 31.588 279.126 31.3705Z" fill="#939496"/>
<path d="M288.7 39.5934C288.7 40.7072 288.399 41.5512 287.795 42.1255C287.201 42.7085 286.337 43 285.204 43C284.573 43 284.002 42.913 283.49 42.739C282.987 42.5649 282.507 42.2647 282.05 41.8384L282.818 41.003C283.156 41.3511 283.512 41.6121 283.887 41.7861C284.271 41.9689 284.71 42.0602 285.204 42.0602C285.679 42.0602 286.072 41.9906 286.383 41.8514C286.703 41.7209 286.954 41.5382 287.137 41.3032C287.32 41.077 287.448 40.8159 287.521 40.5201C287.594 40.2242 287.631 39.9153 287.631 39.5934V38.8102H287.603C287.347 39.2018 287.014 39.489 286.602 39.6717C286.191 39.8544 285.77 39.9458 285.341 39.9458C284.838 39.9458 284.376 39.8675 283.956 39.7108C283.535 39.5542 283.174 39.3367 282.873 39.0582C282.571 38.7798 282.338 38.4491 282.173 38.0663C282.009 37.6834 281.926 37.2657 281.926 36.8133C281.926 36.3173 282.009 35.8691 282.173 35.4689C282.338 35.0686 282.566 34.7336 282.859 34.4639C283.16 34.1854 283.522 33.9722 283.942 33.8243C284.363 33.6764 284.829 33.6024 285.341 33.6024C285.56 33.6024 285.78 33.6285 285.999 33.6807C286.218 33.7242 286.429 33.7982 286.63 33.9026C286.84 33.9983 287.027 34.1245 287.192 34.2811C287.357 34.429 287.494 34.6031 287.603 34.8032H287.631V33.759H288.7V39.5934ZM283.078 36.8133C283.078 37.1265 283.138 37.418 283.256 37.6878C283.375 37.9488 283.535 38.1794 283.736 38.3795C283.947 38.571 284.189 38.7232 284.463 38.8363C284.737 38.9495 285.03 39.006 285.341 39.006C285.706 39.006 286.031 38.9451 286.314 38.8233C286.598 38.7015 286.835 38.5405 287.027 38.3404C287.229 38.1315 287.379 37.8966 287.48 37.6355C287.581 37.3658 287.631 37.083 287.631 36.7871C287.631 36.4565 287.576 36.1563 287.466 35.8865C287.357 35.6081 287.201 35.3688 287 35.1687C286.799 34.9685 286.557 34.8163 286.273 34.7118C285.99 34.5987 285.679 34.5422 285.341 34.5422C285.003 34.5422 284.692 34.6031 284.408 34.7249C284.134 34.838 283.896 34.999 283.695 35.2078C283.503 35.408 283.352 35.6473 283.243 35.9257C283.133 36.1954 283.078 36.4913 283.078 36.8133Z" fill="#939496"/>
<path d="M290.405 35.2078C290.405 34.9294 290.396 34.6683 290.378 34.4247C290.36 34.1811 290.35 33.9592 290.35 33.759H291.365C291.365 33.9244 291.37 34.0897 291.379 34.255C291.388 34.4203 291.393 34.59 291.393 34.7641H291.42C291.493 34.6161 291.594 34.4726 291.722 34.3333C291.859 34.1941 292.019 34.0723 292.202 33.9679C292.384 33.8548 292.59 33.7677 292.819 33.7068C293.047 33.6372 293.294 33.6024 293.559 33.6024C293.98 33.6024 294.341 33.6633 294.642 33.7851C294.953 33.907 295.209 34.0766 295.41 34.2942C295.611 34.5117 295.758 34.7771 295.849 35.0904C295.95 35.3949 296 35.7299 296 36.0954V39.8675H294.93V36.1998C294.93 35.6864 294.812 35.2818 294.574 34.9859C294.336 34.6901 293.966 34.5422 293.463 34.5422C293.116 34.5422 292.814 34.5987 292.558 34.7118C292.311 34.825 292.106 34.9859 291.941 35.1948C291.786 35.4036 291.667 35.6516 291.585 35.9388C291.511 36.2259 291.475 36.5435 291.475 36.8916V39.8675H290.405V35.2078Z" fill="#939496"/>
</svg>
