<svg width="77" height="21" viewBox="0 0 77 21" fill="none" xmlns="http://www.w3.org/2000/svg">
<path fill-rule="evenodd" clip-rule="evenodd" d="M1 20.0909H20.0909V1H1V20.0909Z" stroke="#80757A" stroke-linecap="round" stroke-linejoin="round"/>
<path d="M20.0909 7.36365H1" stroke="#80757A" stroke-linecap="round" stroke-linejoin="round"/>
<path d="M7.36426 7.36365V20.0909" stroke="#80757A" stroke-linecap="round" stroke-linejoin="round"/>
<path d="M47.9139 6.08541V14.5454H46.8099V10.6334H42.5139V14.5454H41.4219V6.08541H42.5139V9.74541H46.8099V6.08541H47.9139ZM52.6482 7.87341C53.2802 7.87341 53.8442 8.00941 54.3402 8.28141C54.8442 8.55341 55.2362 8.94541 55.5162 9.45741C55.8042 9.96941 55.9482 10.5694 55.9482 11.2574C55.9482 11.9454 55.8042 12.5454 55.5162 13.0574C55.2362 13.5614 54.8442 13.9494 54.3402 14.2214C53.8442 14.4934 53.2802 14.6294 52.6482 14.6294C52.0162 14.6294 51.4482 14.4934 50.9442 14.2214C50.4482 13.9494 50.0562 13.5614 49.7682 13.0574C49.4802 12.5454 49.3362 11.9454 49.3362 11.2574C49.3362 10.5694 49.4802 9.96941 49.7682 9.45741C50.0562 8.94541 50.4482 8.55341 50.9442 8.28141C51.4482 8.00941 52.0162 7.87341 52.6482 7.87341ZM52.6482 8.83341C52.2562 8.83341 51.8922 8.92141 51.5562 9.09741C51.2282 9.27341 50.9602 9.54541 50.7522 9.91341C50.5522 10.2734 50.4522 10.7214 50.4522 11.2574C50.4522 11.7854 50.5522 12.2334 50.7522 12.6014C50.9602 12.9614 51.2282 13.2294 51.5562 13.4054C51.8922 13.5814 52.2562 13.6694 52.6482 13.6694C53.0402 13.6694 53.4002 13.5814 53.7282 13.4054C54.0642 13.2294 54.3322 12.9614 54.5322 12.6014C54.7402 12.2334 54.8442 11.7854 54.8442 11.2574C54.8442 10.7214 54.7402 10.2734 54.5322 9.91341C54.3322 9.54541 54.0642 9.27341 53.7282 9.09741C53.4002 8.92141 53.0402 8.83341 52.6482 8.83341ZM65.4711 7.84941C66.2391 7.84941 66.8551 8.09741 67.3191 8.59341C67.7911 9.08141 68.0271 9.78941 68.0271 10.7174V14.5454H66.9351V10.8134C66.9351 10.1654 66.7751 9.66941 66.4551 9.32541C66.1431 8.98141 65.7111 8.80941 65.1591 8.80941C64.5831 8.80941 64.1191 9.00141 63.7671 9.38541C63.4231 9.76141 63.2511 10.3174 63.2511 11.0534V14.5454H62.1591V10.8134C62.1591 10.1654 61.9991 9.66941 61.6791 9.32541C61.3591 8.98141 60.9271 8.80941 60.3831 8.80941C59.7991 8.80941 59.3311 9.00141 58.9791 9.38541C58.6351 9.76141 58.4631 10.3174 58.4631 11.0534V14.5454H57.3711V7.95741H58.4631V9.45741C58.6231 8.93741 58.9071 8.54141 59.3151 8.26941C59.7311 7.98941 60.2071 7.84941 60.7431 7.84941C61.3031 7.84941 61.7871 7.99341 62.1951 8.28141C62.6111 8.56141 62.9071 8.97741 63.0831 9.52941C63.2671 8.99341 63.5751 8.58141 64.0071 8.29341C64.4391 7.99741 64.9271 7.84941 65.4711 7.84941ZM75.7827 10.8854C75.7827 11.1174 75.7667 11.3174 75.7347 11.4854H70.4667C70.4907 12.2374 70.7027 12.8014 71.1027 13.1774C71.5107 13.5534 72.0067 13.7414 72.5907 13.7414C73.1187 13.7414 73.5587 13.6094 73.9107 13.3454C74.2707 13.0734 74.4907 12.7134 74.5707 12.2654H75.7347C75.6547 12.7214 75.4747 13.1294 75.1947 13.4894C74.9227 13.8494 74.5667 14.1294 74.1267 14.3294C73.6867 14.5294 73.1907 14.6294 72.6387 14.6294C72.0067 14.6294 71.4467 14.4934 70.9587 14.2214C70.4707 13.9494 70.0867 13.5614 69.8067 13.0574C69.5347 12.5454 69.3987 11.9454 69.3987 11.2574C69.3987 10.5694 69.5347 9.96941 69.8067 9.45741C70.0867 8.94541 70.4707 8.55341 70.9587 8.28141C71.4467 8.00941 72.0067 7.87341 72.6387 7.87341C73.2787 7.87341 73.8347 8.00941 74.3067 8.28141C74.7867 8.55341 75.1507 8.91741 75.3987 9.37341C75.6547 9.82941 75.7827 10.3334 75.7827 10.8854ZM74.6787 10.9574C74.7027 10.4694 74.6227 10.0614 74.4387 9.73341C74.2547 9.40541 74.0027 9.16141 73.6827 9.00141C73.3627 8.84141 73.0147 8.76141 72.6387 8.76141C72.0387 8.76141 71.5347 8.94941 71.1267 9.32541C70.7187 9.69341 70.4987 10.2374 70.4667 10.9574H74.6787Z" fill="#80757A"/>
</svg>
