<svg width="25" height="24" viewBox="0 0 25 24" fill="none" xmlns="http://www.w3.org/2000/svg">
<path d="M17.9997 23.2959L7.49102 23.2959C3.69148 23.2959 0.576538 20.3294 0.576538 16.7109L0.576538 6.70315C0.576538 3.0847 3.69148 0.118225 7.49102 0.118225L17.9654 0.118225C21.7992 0.118225 24.9142 3.0847 24.9142 6.70315L24.9142 16.6783C24.9142 20.3294 21.7992 23.2959 17.9997 23.2959ZM7.49102 2.10674C4.82107 2.10674 2.66458 4.16046 2.66458 6.70315L2.66458 16.6783C2.66458 19.221 4.82107 21.2747 7.49102 21.2747L17.9654 21.2747C20.6696 21.3073 22.8261 19.2536 22.8261 16.7109L22.8261 6.70315C22.8261 4.16046 20.6696 2.10674 17.9997 2.10674L7.49102 2.10674Z" fill="#272425"/>
<path d="M12.7279 17.6562C9.30491 17.6562 6.49805 14.9831 6.49805 11.7232C6.49805 8.46336 9.30491 5.79028 12.7279 5.79028C16.1509 5.79028 18.9578 8.46336 18.9578 11.7232C18.9578 14.9831 16.1851 17.6562 12.7279 17.6562ZM12.7279 7.7462C10.4345 7.7462 8.58608 9.50652 8.58608 11.6906C8.58608 13.8747 10.4345 15.635 12.7279 15.635C15.0213 15.635 16.8697 13.8747 16.8697 11.6906C16.8697 9.50652 15.0213 7.7462 12.7279 7.7462Z" fill="#272425"/>
<path d="M20.7379 5.43178C20.7379 6.21416 20.0533 6.86613 19.2318 6.86613C18.4103 6.86613 17.7257 6.21416 17.7257 5.43178C17.7257 4.64941 18.4103 3.99744 19.2318 3.99744C20.0876 3.99744 20.7379 4.64941 20.7379 5.43178Z" fill="#272425"/>
</svg>
