<svg width="70" height="54" viewBox="0 0 70 54" fill="none" xmlns="http://www.w3.org/2000/svg">
<path d="M52.0387 4.20652C51.3528 3.48913 50.4055 3.06522 49.3275 3.06522H43.9051V3C43.9051 2.18478 43.5785 1.40217 43.0232 0.880435C42.4679 0.326087 41.7166 0 40.8999 0H31.1004C30.2511 0 29.4998 0.326087 28.9445 0.880435C28.3892 1.43478 28.0626 2.18478 28.0626 3V3.06522H22.6728C21.5949 3.06522 20.6476 3.48913 19.9616 4.20652C19.2757 4.8913 18.8184 5.86957 18.8184 6.91304V23.1522C18.8184 24.2283 19.243 25.1739 19.9616 25.8587C20.6476 26.5435 21.6276 27 22.6728 27H49.3275C50.4055 27 51.3528 26.5761 52.0387 25.8587C52.7247 25.1739 53.182 24.1957 53.182 23.1522V6.91304C53.182 5.83696 52.7573 4.8913 52.0387 4.20652ZM51.4834 23.1522H51.4507C51.4507 23.7391 51.2221 24.2609 50.8301 24.6522C50.4381 25.0435 49.9155 25.2717 49.3275 25.2717H22.6728C22.0849 25.2717 21.5622 25.0435 21.1702 24.6522C20.7783 24.2609 20.5496 23.7391 20.5496 23.1522V6.91304C20.5496 6.32609 20.7783 5.80435 21.1702 5.41304C21.5622 5.02174 22.0849 4.79348 22.6728 4.79348H28.9772C29.4672 4.79348 29.8591 4.40217 29.8591 3.91304V2.96739C29.8591 2.6087 29.9898 2.28261 30.2185 2.05435C30.4471 1.82609 30.7738 1.69565 31.1331 1.69565H40.8999C41.2593 1.69565 41.5859 1.82609 41.8146 2.05435C42.0432 2.28261 42.1739 2.6087 42.1739 2.96739V3.91304C42.1739 4.40217 42.5659 4.79348 43.0558 4.79348H49.3602C49.9482 4.79348 50.4708 5.02174 50.8628 5.41304C51.2548 5.80435 51.4834 6.32609 51.4834 6.91304V23.1522Z" fill="white"/>
<path d="M36.0004 7.01099C33.7792 7.01099 31.754 7.92403 30.3167 9.35881C28.8468 10.8262 27.9648 12.8153 27.9648 15.0327C27.9648 17.2501 28.8795 19.2719 30.3167 20.7066C31.7867 22.174 33.7792 23.0545 36.0004 23.0545C38.2217 23.0545 40.2469 22.1414 41.6842 20.7066C43.1541 19.2392 44.0361 17.2501 44.0361 15.0327C44.0361 12.8153 43.1214 10.7936 41.6842 9.35881C40.2469 7.92403 38.2217 7.01099 36.0004 7.01099ZM40.4429 19.5001C39.2996 20.6088 37.7317 21.3262 36.0004 21.3262C34.2692 21.3262 32.7013 20.6088 31.558 19.5001C30.4147 18.3588 29.7288 16.7936 29.7288 15.0653C29.7288 13.3371 30.4474 11.7719 31.558 10.6306C32.7013 9.48925 34.2692 8.80446 36.0004 8.80446C37.7317 8.80446 39.2996 9.52186 40.4429 10.6306C41.5862 11.7719 42.2721 13.3371 42.2721 15.0653C42.3048 16.7936 41.5862 18.3588 40.4429 19.5001Z" fill="white"/>
<path d="M47.6289 10.1739C48.5129 10.1739 49.2295 9.45855 49.2295 8.5761C49.2295 7.69364 48.5129 6.97827 47.6289 6.97827C46.7449 6.97827 46.0283 7.69364 46.0283 8.5761C46.0283 9.45855 46.7449 10.1739 47.6289 10.1739Z" fill="white"/>
<path d="M1.23756 49H3.31756V37.896H1.23756V49ZM7.45294 49V43.64C7.45294 42.808 8.07694 42.36 9.03694 42.36C9.91694 42.36 10.3169 42.744 10.3169 43.64V49H12.3489V43.72C12.3489 42.84 12.9729 42.36 13.9329 42.36C14.8129 42.36 15.2129 42.744 15.2129 43.64V49H17.2449V43.624C17.2449 41.656 16.4609 40.76 14.6529 40.76C13.4529 40.76 12.6049 41.208 12.1249 42.12C11.7729 41.208 10.9889 40.76 9.75694 40.76C8.68494 40.76 7.88494 41.128 7.37294 41.88L7.13294 41H5.42094V49H7.45294ZM21.4117 49.208C22.4197 49.208 23.2037 48.936 23.7637 48.408C24.0357 48.904 24.5637 49.16 25.3317 49.176C25.7797 49.16 26.1637 49.08 26.4837 48.904V47.544L26.0197 47.624C25.6197 47.624 25.4917 47.368 25.4917 46.84V43.64C25.4917 41.64 24.5637 40.76 22.1797 40.76C19.9237 40.76 18.9797 41.672 18.9797 43.608V43.96H20.7717V43.656C20.7717 42.584 21.1237 42.264 22.1957 42.264C23.0917 42.264 23.4597 42.728 23.4597 43.816V44.568H22.0357C19.5877 44.568 18.6917 45.32 18.6917 46.904C18.6917 48.44 19.6037 49.208 21.4117 49.208ZM22.0357 47.704C21.2357 47.704 20.8357 47.416 20.8357 46.84C20.8357 46.136 21.1717 45.88 22.2117 45.88H23.4597V46.936C23.4597 47.144 23.4597 47.288 23.4757 47.4C23.1077 47.608 22.6277 47.704 22.0357 47.704ZM32.5513 41.528C31.9593 41.016 31.2713 40.76 30.4553 40.76C28.4233 40.76 27.3993 41.896 27.3993 44.152V45.992C27.3993 48.056 28.2153 49.064 30.1353 49.064C31.1113 49.064 31.8633 48.744 32.3913 48.12V48.824C32.3913 49.976 31.7193 50.568 30.3753 50.584C29.5913 50.584 28.9033 50.424 28.5673 50.28L27.8953 49.944V51.608C28.6153 51.976 29.5113 52.152 30.5833 52.152C32.9033 52.152 34.4233 50.968 34.4233 48.872V41H32.7113L32.5513 41.528ZM30.9033 47.496C29.8793 47.496 29.4313 47.08 29.4313 46.168V43.848C29.4313 42.84 29.9113 42.344 30.8713 42.344C31.3513 42.344 31.8633 42.456 32.3913 42.696V46.2C32.3913 47.016 31.8473 47.496 30.9033 47.496ZM38.0868 45.592H42.8228V44.024C42.8228 41.736 41.8308 40.76 39.5108 40.76C37.1908 40.76 36.0548 41.784 36.0548 44.072V45.8C36.0548 48.024 37.3188 49.24 39.5588 49.24C40.6148 49.24 41.6068 49.032 42.5188 48.6V47.08C42.3908 47.16 42.0228 47.352 41.1908 47.544C40.7908 47.624 40.3748 47.672 39.9748 47.672C38.8068 47.672 38.0868 47.064 38.0868 45.96V45.592ZM40.9348 44.2H38.0868V43.88C38.0868 42.776 38.4868 42.264 39.5108 42.264C40.5508 42.264 40.9348 42.744 40.9348 43.88V44.2ZM46.4061 49V43.64C46.4061 42.808 47.0301 42.36 47.9901 42.36C48.8701 42.36 49.2701 42.744 49.2701 43.64V49H51.3021V43.72C51.3021 42.84 51.9261 42.36 52.8861 42.36C53.7661 42.36 54.1661 42.744 54.1661 43.64V49H56.1981V43.624C56.1981 41.656 55.4141 40.76 53.6061 40.76C52.4061 40.76 51.5581 41.208 51.0781 42.12C50.7261 41.208 49.9421 40.76 48.7101 40.76C47.6381 40.76 46.8381 41.128 46.3261 41.88L46.0861 41H44.3741V49H46.4061ZM65.0742 49.24C67.8742 49.24 69.2022 48.456 69.2022 46.216V45.416C69.2022 44.232 68.6422 43.496 67.5382 43.192C68.4502 42.984 68.9622 42.168 68.9622 41.016V40.616C68.9622 38.44 67.5062 37.704 65.0742 37.704C62.9142 37.704 61.1702 38.264 61.1702 40.616V41.016C61.1702 42.152 61.6502 42.984 62.4822 43.192C61.5382 43.464 60.9462 44.44 60.9462 45.464V46.216C60.9462 48.44 62.3702 49.24 65.0742 49.24ZM65.1382 42.568C64.3382 42.568 63.8262 42.44 63.5862 42.2C63.3622 41.96 63.2502 41.528 63.2502 40.92C63.2502 39.784 63.7142 39.304 65.0742 39.304C66.5302 39.304 66.8822 39.768 66.8822 40.92C66.8822 41.528 66.7702 41.96 66.5622 42.2C66.3542 42.44 65.8902 42.568 65.1382 42.568ZM67.0902 45.688C67.0902 46.44 67.0422 46.776 66.7702 47.16C66.5142 47.528 65.9862 47.64 65.0742 47.64C64.1622 47.64 63.6342 47.528 63.3622 47.16C63.1062 46.776 63.0582 46.44 63.0582 45.688C63.0582 45.048 63.2022 44.6 63.4742 44.344C63.7462 44.072 64.3062 43.944 65.1382 43.944C65.9222 43.944 66.4502 44.072 66.7062 44.344C66.9622 44.6 67.0902 45.048 67.0902 45.688Z" fill="white"/>
</svg>
