<svg width="70" height="54" viewBox="0 0 70 54" fill="none" xmlns="http://www.w3.org/2000/svg">
<path d="M52.0387 4.20652C51.3528 3.48913 50.4055 3.06522 49.3275 3.06522H43.9051V3C43.9051 2.18478 43.5785 1.40217 43.0232 0.880435C42.4679 0.326087 41.7166 0 40.8999 0H31.1004C30.2511 0 29.4998 0.326087 28.9445 0.880435C28.3892 1.43478 28.0626 2.18478 28.0626 3V3.06522H22.6728C21.5949 3.06522 20.6476 3.48913 19.9616 4.20652C19.2757 4.8913 18.8184 5.86957 18.8184 6.91304V23.1522C18.8184 24.2283 19.243 25.1739 19.9616 25.8587C20.6476 26.5435 21.6276 27 22.6728 27H49.3275C50.4055 27 51.3528 26.5761 52.0387 25.8587C52.7247 25.1739 53.182 24.1957 53.182 23.1522V6.91304C53.182 5.83696 52.7573 4.8913 52.0387 4.20652ZM51.4834 23.1522H51.4507C51.4507 23.7391 51.2221 24.2609 50.8301 24.6522C50.4381 25.0435 49.9155 25.2717 49.3275 25.2717H22.6728C22.0849 25.2717 21.5622 25.0435 21.1702 24.6522C20.7783 24.2609 20.5496 23.7391 20.5496 23.1522V6.91304C20.5496 6.32609 20.7783 5.80435 21.1702 5.41304C21.5622 5.02174 22.0849 4.79348 22.6728 4.79348H28.9772C29.4672 4.79348 29.8591 4.40217 29.8591 3.91304V2.96739C29.8591 2.6087 29.9898 2.28261 30.2185 2.05435C30.4471 1.82609 30.7738 1.69565 31.1331 1.69565H40.8999C41.2593 1.69565 41.5859 1.82609 41.8146 2.05435C42.0432 2.28261 42.1739 2.6087 42.1739 2.96739V3.91304C42.1739 4.40217 42.5659 4.79348 43.0558 4.79348H49.3602C49.9482 4.79348 50.4708 5.02174 50.8628 5.41304C51.2548 5.80435 51.4834 6.32609 51.4834 6.91304V23.1522Z" fill="white"/>
<path d="M36.0004 7.01099C33.7792 7.01099 31.754 7.92403 30.3167 9.35881C28.8468 10.8262 27.9648 12.8153 27.9648 15.0327C27.9648 17.2501 28.8795 19.2719 30.3167 20.7066C31.7867 22.174 33.7792 23.0545 36.0004 23.0545C38.2217 23.0545 40.2469 22.1414 41.6842 20.7066C43.1541 19.2392 44.0361 17.2501 44.0361 15.0327C44.0361 12.8153 43.1214 10.7936 41.6842 9.35881C40.2469 7.92403 38.2217 7.01099 36.0004 7.01099ZM40.4429 19.5001C39.2996 20.6088 37.7317 21.3262 36.0004 21.3262C34.2692 21.3262 32.7013 20.6088 31.558 19.5001C30.4147 18.3588 29.7288 16.7936 29.7288 15.0653C29.7288 13.3371 30.4474 11.7719 31.558 10.6306C32.7013 9.48925 34.2692 8.80446 36.0004 8.80446C37.7317 8.80446 39.2996 9.52186 40.4429 10.6306C41.5862 11.7719 42.2721 13.3371 42.2721 15.0653C42.3048 16.7936 41.5862 18.3588 40.4429 19.5001Z" fill="white"/>
<path d="M47.6289 10.1739C48.5129 10.1739 49.2295 9.45855 49.2295 8.5761C49.2295 7.69364 48.5129 6.97827 47.6289 6.97827C46.7449 6.97827 46.0283 7.69364 46.0283 8.5761C46.0283 9.45855 46.7449 10.1739 47.6289 10.1739Z" fill="white"/>
<path d="M1.24538 49H3.32538V37.896H1.24538V49ZM7.46075 49V43.64C7.46075 42.808 8.08475 42.36 9.04475 42.36C9.92475 42.36 10.3248 42.744 10.3248 43.64V49H12.3568V43.72C12.3568 42.84 12.9808 42.36 13.9408 42.36C14.8208 42.36 15.2208 42.744 15.2208 43.64V49H17.2528V43.624C17.2528 41.656 16.4688 40.76 14.6608 40.76C13.4608 40.76 12.6128 41.208 12.1328 42.12C11.7808 41.208 10.9968 40.76 9.76475 40.76C8.69275 40.76 7.89275 41.128 7.38075 41.88L7.14075 41H5.42875V49H7.46075ZM21.4195 49.208C22.4275 49.208 23.2115 48.936 23.7715 48.408C24.0435 48.904 24.5715 49.16 25.3395 49.176C25.7875 49.16 26.1715 49.08 26.4915 48.904V47.544L26.0275 47.624C25.6275 47.624 25.4995 47.368 25.4995 46.84V43.64C25.4995 41.64 24.5715 40.76 22.1875 40.76C19.9315 40.76 18.9875 41.672 18.9875 43.608V43.96H20.7795V43.656C20.7795 42.584 21.1315 42.264 22.2035 42.264C23.0995 42.264 23.4675 42.728 23.4675 43.816V44.568H22.0435C19.5955 44.568 18.6995 45.32 18.6995 46.904C18.6995 48.44 19.6115 49.208 21.4195 49.208ZM22.0435 47.704C21.2435 47.704 20.8435 47.416 20.8435 46.84C20.8435 46.136 21.1795 45.88 22.2195 45.88H23.4675V46.936C23.4675 47.144 23.4675 47.288 23.4835 47.4C23.1155 47.608 22.6355 47.704 22.0435 47.704ZM32.5591 41.528C31.9671 41.016 31.2791 40.76 30.4631 40.76C28.4311 40.76 27.4071 41.896 27.4071 44.152V45.992C27.4071 48.056 28.2231 49.064 30.1431 49.064C31.1191 49.064 31.8711 48.744 32.3991 48.12V48.824C32.3991 49.976 31.7271 50.568 30.3831 50.584C29.5991 50.584 28.9111 50.424 28.5751 50.28L27.9031 49.944V51.608C28.6231 51.976 29.5191 52.152 30.5911 52.152C32.9111 52.152 34.4311 50.968 34.4311 48.872V41H32.7191L32.5591 41.528ZM30.9111 47.496C29.8871 47.496 29.4391 47.08 29.4391 46.168V43.848C29.4391 42.84 29.9191 42.344 30.8791 42.344C31.3591 42.344 31.8711 42.456 32.3991 42.696V46.2C32.3991 47.016 31.8551 47.496 30.9111 47.496ZM38.0946 45.592H42.8306V44.024C42.8306 41.736 41.8386 40.76 39.5186 40.76C37.1986 40.76 36.0626 41.784 36.0626 44.072V45.8C36.0626 48.024 37.3266 49.24 39.5666 49.24C40.6226 49.24 41.6146 49.032 42.5266 48.6V47.08C42.3986 47.16 42.0306 47.352 41.1986 47.544C40.7986 47.624 40.3826 47.672 39.9826 47.672C38.8146 47.672 38.0946 47.064 38.0946 45.96V45.592ZM40.9426 44.2H38.0946V43.88C38.0946 42.776 38.4946 42.264 39.5186 42.264C40.5586 42.264 40.9426 42.744 40.9426 43.88V44.2ZM46.4139 49V43.64C46.4139 42.808 47.0379 42.36 47.9979 42.36C48.8779 42.36 49.2779 42.744 49.2779 43.64V49H51.3099V43.72C51.3099 42.84 51.9339 42.36 52.8939 42.36C53.7739 42.36 54.1739 42.744 54.1739 43.64V49H56.2059V43.624C56.2059 41.656 55.4219 40.76 53.6139 40.76C52.4139 40.76 51.5659 41.208 51.0859 42.12C50.7339 41.208 49.9499 40.76 48.7179 40.76C47.6459 40.76 46.8459 41.128 46.3339 41.88L46.0939 41H44.3819V49H46.4139ZM68.314 49V46.776H69.514V45.016H68.314V39.656H66.25V45.016H62.73L65.226 37.736H63.146L60.65 45.048V46.776H66.25V49H68.314Z" fill="white"/>
</svg>
