<svg width="70" height="54" viewBox="0 0 70 54" fill="none" xmlns="http://www.w3.org/2000/svg">
<path d="M52.0387 4.20652C51.3528 3.48913 50.4055 3.06522 49.3275 3.06522H43.9051V3C43.9051 2.18478 43.5785 1.40217 43.0232 0.880435C42.4679 0.326087 41.7166 0 40.8999 0H31.1004C30.2511 0 29.4998 0.326087 28.9445 0.880435C28.3892 1.43478 28.0626 2.18478 28.0626 3V3.06522H22.6728C21.5949 3.06522 20.6476 3.48913 19.9616 4.20652C19.2757 4.8913 18.8184 5.86957 18.8184 6.91304V23.1522C18.8184 24.2283 19.243 25.1739 19.9616 25.8587C20.6476 26.5435 21.6276 27 22.6728 27H49.3275C50.4055 27 51.3528 26.5761 52.0387 25.8587C52.7247 25.1739 53.182 24.1957 53.182 23.1522V6.91304C53.182 5.83696 52.7573 4.8913 52.0387 4.20652ZM51.4834 23.1522H51.4507C51.4507 23.7391 51.2221 24.2609 50.8301 24.6522C50.4381 25.0435 49.9155 25.2717 49.3275 25.2717H22.6728C22.0849 25.2717 21.5622 25.0435 21.1702 24.6522C20.7783 24.2609 20.5496 23.7391 20.5496 23.1522V6.91304C20.5496 6.32609 20.7783 5.80435 21.1702 5.41304C21.5622 5.02174 22.0849 4.79348 22.6728 4.79348H28.9772C29.4672 4.79348 29.8591 4.40217 29.8591 3.91304V2.96739C29.8591 2.6087 29.9898 2.28261 30.2185 2.05435C30.4471 1.82609 30.7738 1.69565 31.1331 1.69565H40.8999C41.2593 1.69565 41.5859 1.82609 41.8146 2.05435C42.0432 2.28261 42.1739 2.6087 42.1739 2.96739V3.91304C42.1739 4.40217 42.5659 4.79348 43.0558 4.79348H49.3602C49.9482 4.79348 50.4708 5.02174 50.8628 5.41304C51.2548 5.80435 51.4834 6.32609 51.4834 6.91304V23.1522Z" fill="white"/>
<path d="M36.0004 7.01099C33.7792 7.01099 31.754 7.92403 30.3167 9.35881C28.8468 10.8262 27.9648 12.8153 27.9648 15.0327C27.9648 17.2501 28.8795 19.2719 30.3167 20.7066C31.7867 22.174 33.7792 23.0545 36.0004 23.0545C38.2217 23.0545 40.2469 22.1414 41.6842 20.7066C43.1541 19.2392 44.0361 17.2501 44.0361 15.0327C44.0361 12.8153 43.1214 10.7936 41.6842 9.35881C40.2469 7.92403 38.2217 7.01099 36.0004 7.01099ZM40.4429 19.5001C39.2996 20.6088 37.7317 21.3262 36.0004 21.3262C34.2692 21.3262 32.7013 20.6088 31.558 19.5001C30.4147 18.3588 29.7288 16.7936 29.7288 15.0653C29.7288 13.3371 30.4474 11.7719 31.558 10.6306C32.7013 9.48925 34.2692 8.80446 36.0004 8.80446C37.7317 8.80446 39.2996 9.52186 40.4429 10.6306C41.5862 11.7719 42.2721 13.3371 42.2721 15.0653C42.3048 16.7936 41.5862 18.3588 40.4429 19.5001Z" fill="white"/>
<path d="M47.6289 10.1739C48.5129 10.1739 49.2295 9.45855 49.2295 8.5761C49.2295 7.69364 48.5129 6.97827 47.6289 6.97827C46.7449 6.97827 46.0283 7.69364 46.0283 8.5761C46.0283 9.45855 46.7449 10.1739 47.6289 10.1739Z" fill="white"/>
<path d="M1.31569 49H3.39569V37.896H1.31569V49ZM7.53106 49V43.64C7.53106 42.808 8.15506 42.36 9.11506 42.36C9.99506 42.36 10.3951 42.744 10.3951 43.64V49H12.4271V43.72C12.4271 42.84 13.0511 42.36 14.0111 42.36C14.8911 42.36 15.2911 42.744 15.2911 43.64V49H17.3231V43.624C17.3231 41.656 16.5391 40.76 14.7311 40.76C13.5311 40.76 12.6831 41.208 12.2031 42.12C11.8511 41.208 11.0671 40.76 9.83506 40.76C8.76306 40.76 7.96306 41.128 7.45106 41.88L7.21106 41H5.49906V49H7.53106ZM21.4898 49.208C22.4978 49.208 23.2818 48.936 23.8418 48.408C24.1138 48.904 24.6418 49.16 25.4098 49.176C25.8578 49.16 26.2418 49.08 26.5618 48.904V47.544L26.0978 47.624C25.6978 47.624 25.5698 47.368 25.5698 46.84V43.64C25.5698 41.64 24.6418 40.76 22.2578 40.76C20.0018 40.76 19.0578 41.672 19.0578 43.608V43.96H20.8498V43.656C20.8498 42.584 21.2018 42.264 22.2738 42.264C23.1698 42.264 23.5378 42.728 23.5378 43.816V44.568H22.1138C19.6658 44.568 18.7698 45.32 18.7698 46.904C18.7698 48.44 19.6818 49.208 21.4898 49.208ZM22.1138 47.704C21.3138 47.704 20.9138 47.416 20.9138 46.84C20.9138 46.136 21.2498 45.88 22.2898 45.88H23.5378V46.936C23.5378 47.144 23.5378 47.288 23.5538 47.4C23.1858 47.608 22.7058 47.704 22.1138 47.704ZM32.6294 41.528C32.0374 41.016 31.3494 40.76 30.5334 40.76C28.5014 40.76 27.4774 41.896 27.4774 44.152V45.992C27.4774 48.056 28.2934 49.064 30.2134 49.064C31.1894 49.064 31.9414 48.744 32.4694 48.12V48.824C32.4694 49.976 31.7974 50.568 30.4534 50.584C29.6694 50.584 28.9814 50.424 28.6454 50.28L27.9734 49.944V51.608C28.6934 51.976 29.5894 52.152 30.6614 52.152C32.9814 52.152 34.5014 50.968 34.5014 48.872V41H32.7894L32.6294 41.528ZM30.9814 47.496C29.9574 47.496 29.5094 47.08 29.5094 46.168V43.848C29.5094 42.84 29.9894 42.344 30.9494 42.344C31.4294 42.344 31.9414 42.456 32.4694 42.696V46.2C32.4694 47.016 31.9254 47.496 30.9814 47.496ZM38.1649 45.592H42.9009V44.024C42.9009 41.736 41.9089 40.76 39.5889 40.76C37.2689 40.76 36.1329 41.784 36.1329 44.072V45.8C36.1329 48.024 37.3969 49.24 39.6369 49.24C40.6929 49.24 41.6849 49.032 42.5969 48.6V47.08C42.4689 47.16 42.1009 47.352 41.2689 47.544C40.8689 47.624 40.4529 47.672 40.0529 47.672C38.8849 47.672 38.1649 47.064 38.1649 45.96V45.592ZM41.0129 44.2H38.1649V43.88C38.1649 42.776 38.5649 42.264 39.5889 42.264C40.6289 42.264 41.0129 42.744 41.0129 43.88V44.2ZM46.4842 49V43.64C46.4842 42.808 47.1082 42.36 48.0682 42.36C48.9482 42.36 49.3482 42.744 49.3482 43.64V49H51.3802V43.72C51.3802 42.84 52.0042 42.36 52.9642 42.36C53.8442 42.36 54.2442 42.744 54.2442 43.64V49H56.2762V43.624C56.2762 41.656 55.4922 40.76 53.6842 40.76C52.4842 40.76 51.6362 41.208 51.1562 42.12C50.8042 41.208 50.0202 40.76 48.7882 40.76C47.7162 40.76 46.9162 41.128 46.4042 41.88L46.1642 41H44.4522V49H46.4842ZM64.9923 49.24C67.5683 49.24 69.2643 48.056 69.2643 45.8V45.08C69.2643 42.856 68.0163 41.752 65.5043 41.752C64.7523 41.752 64.0323 41.88 63.3283 42.152V39.576H68.7043V37.896H61.3603V42.872L63.0243 43.848C63.5043 43.48 64.2243 43.288 65.1683 43.288C66.5123 43.288 67.1843 43.832 67.1843 44.92V45.752C67.1843 46.984 66.5763 47.64 65.0883 47.64C63.6163 47.64 62.9443 47.048 62.9443 45.752V45.24H60.8963V45.864C60.8963 48.12 62.2563 49.24 64.9923 49.24Z" fill="white"/>
</svg>
