<svg width="66" height="54" viewBox="0 0 66 54" fill="none" xmlns="http://www.w3.org/2000/svg">
<path d="M50.0387 4.20652C49.3528 3.48913 48.4055 3.06522 47.3275 3.06522H41.9051V3C41.9051 2.18478 41.5785 1.40217 41.0232 0.880435C40.4679 0.326087 39.7166 0 38.8999 0H29.1004C28.2511 0 27.4998 0.326087 26.9445 0.880435C26.3892 1.43478 26.0626 2.18478 26.0626 3V3.06522H20.6728C19.5949 3.06522 18.6476 3.48913 17.9616 4.20652C17.2757 4.8913 16.8184 5.86957 16.8184 6.91304V23.1522C16.8184 24.2283 17.243 25.1739 17.9616 25.8587C18.6476 26.5435 19.6276 27 20.6728 27H47.3275C48.4055 27 49.3528 26.5761 50.0387 25.8587C50.7247 25.1739 51.182 24.1957 51.182 23.1522V6.91304C51.182 5.83696 50.7573 4.8913 50.0387 4.20652ZM49.4834 23.1522H49.4507C49.4507 23.7391 49.2221 24.2609 48.8301 24.6522C48.4381 25.0435 47.9155 25.2717 47.3275 25.2717H20.6728C20.0849 25.2717 19.5622 25.0435 19.1702 24.6522C18.7783 24.2609 18.5496 23.7391 18.5496 23.1522V6.91304C18.5496 6.32609 18.7783 5.80435 19.1702 5.41304C19.5622 5.02174 20.0849 4.79348 20.6728 4.79348H26.9772C27.4672 4.79348 27.8591 4.40217 27.8591 3.91304V2.96739C27.8591 2.6087 27.9898 2.28261 28.2185 2.05435C28.4471 1.82609 28.7738 1.69565 29.1331 1.69565H38.8999C39.2593 1.69565 39.5859 1.82609 39.8146 2.05435C40.0432 2.28261 40.1739 2.6087 40.1739 2.96739V3.91304C40.1739 4.40217 40.5659 4.79348 41.0558 4.79348H47.3602C47.9482 4.79348 48.4708 5.02174 48.8628 5.41304C49.2548 5.80435 49.4834 6.32609 49.4834 6.91304V23.1522Z" fill="white"/>
<path d="M34.0004 7.01099C31.7792 7.01099 29.754 7.92403 28.3167 9.35881C26.8468 10.8262 25.9648 12.8153 25.9648 15.0327C25.9648 17.2501 26.8795 19.2719 28.3167 20.7066C29.7867 22.174 31.7792 23.0545 34.0004 23.0545C36.2217 23.0545 38.2469 22.1414 39.6842 20.7066C41.1541 19.2392 42.0361 17.2501 42.0361 15.0327C42.0361 12.8153 41.1214 10.7936 39.6842 9.35881C38.2469 7.92403 36.2217 7.01099 34.0004 7.01099ZM38.4429 19.5001C37.2996 20.6088 35.7317 21.3262 34.0004 21.3262C32.2692 21.3262 30.7013 20.6088 29.558 19.5001C28.4147 18.3588 27.7288 16.7936 27.7288 15.0653C27.7288 13.3371 28.4474 11.7719 29.558 10.6306C30.7013 9.48925 32.2692 8.80446 34.0004 8.80446C35.7317 8.80446 37.2996 9.52186 38.4429 10.6306C39.5862 11.7719 40.2721 13.3371 40.2721 15.0653C40.3048 16.7936 39.5862 18.3588 38.4429 19.5001Z" fill="white"/>
<path d="M45.6289 10.1739C46.5129 10.1739 47.2295 9.45855 47.2295 8.5761C47.2295 7.69364 46.5129 6.97827 45.6289 6.97827C44.7449 6.97827 44.0283 7.69364 44.0283 8.5761C44.0283 9.45855 44.7449 10.1739 45.6289 10.1739Z" fill="white"/>
<path d="M1.55788 49H3.63788V37.896H1.55788V49ZM7.77325 49V43.64C7.77325 42.808 8.39725 42.36 9.35725 42.36C10.2373 42.36 10.6373 42.744 10.6373 43.64V49H12.6693V43.72C12.6693 42.84 13.2933 42.36 14.2533 42.36C15.1333 42.36 15.5333 42.744 15.5333 43.64V49H17.5653V43.624C17.5653 41.656 16.7813 40.76 14.9733 40.76C13.7733 40.76 12.9253 41.208 12.4453 42.12C12.0933 41.208 11.3093 40.76 10.0773 40.76C9.00525 40.76 8.20525 41.128 7.69325 41.88L7.45325 41H5.74125V49H7.77325ZM21.732 49.208C22.74 49.208 23.524 48.936 24.084 48.408C24.356 48.904 24.884 49.16 25.652 49.176C26.1 49.16 26.484 49.08 26.804 48.904V47.544L26.34 47.624C25.94 47.624 25.812 47.368 25.812 46.84V43.64C25.812 41.64 24.884 40.76 22.5 40.76C20.244 40.76 19.3 41.672 19.3 43.608V43.96H21.092V43.656C21.092 42.584 21.444 42.264 22.516 42.264C23.412 42.264 23.78 42.728 23.78 43.816V44.568H22.356C19.908 44.568 19.012 45.32 19.012 46.904C19.012 48.44 19.924 49.208 21.732 49.208ZM22.356 47.704C21.556 47.704 21.156 47.416 21.156 46.84C21.156 46.136 21.492 45.88 22.532 45.88H23.78V46.936C23.78 47.144 23.78 47.288 23.796 47.4C23.428 47.608 22.948 47.704 22.356 47.704ZM32.8716 41.528C32.2796 41.016 31.5916 40.76 30.7756 40.76C28.7436 40.76 27.7196 41.896 27.7196 44.152V45.992C27.7196 48.056 28.5356 49.064 30.4556 49.064C31.4316 49.064 32.1836 48.744 32.7116 48.12V48.824C32.7116 49.976 32.0396 50.568 30.6956 50.584C29.9116 50.584 29.2236 50.424 28.8876 50.28L28.2156 49.944V51.608C28.9356 51.976 29.8316 52.152 30.9036 52.152C33.2236 52.152 34.7436 50.968 34.7436 48.872V41H33.0316L32.8716 41.528ZM31.2236 47.496C30.1996 47.496 29.7516 47.08 29.7516 46.168V43.848C29.7516 42.84 30.2316 42.344 31.1916 42.344C31.6716 42.344 32.1836 42.456 32.7116 42.696V46.2C32.7116 47.016 32.1676 47.496 31.2236 47.496ZM38.4071 45.592H43.1431V44.024C43.1431 41.736 42.1511 40.76 39.8311 40.76C37.5111 40.76 36.3751 41.784 36.3751 44.072V45.8C36.3751 48.024 37.6391 49.24 39.8791 49.24C40.9351 49.24 41.9271 49.032 42.8391 48.6V47.08C42.7111 47.16 42.3431 47.352 41.5111 47.544C41.1111 47.624 40.6951 47.672 40.2951 47.672C39.1271 47.672 38.4071 47.064 38.4071 45.96V45.592ZM41.2551 44.2H38.4071V43.88C38.4071 42.776 38.8071 42.264 39.8311 42.264C40.8711 42.264 41.2551 42.744 41.2551 43.88V44.2ZM46.7264 49V43.64C46.7264 42.808 47.3504 42.36 48.3104 42.36C49.1904 42.36 49.5904 42.744 49.5904 43.64V49H51.6224V43.72C51.6224 42.84 52.2464 42.36 53.2064 42.36C54.0864 42.36 54.4864 42.744 54.4864 43.64V49H56.5184V43.624C56.5184 41.656 55.7344 40.76 53.9264 40.76C52.7264 40.76 51.8784 41.208 51.3984 42.12C51.0464 41.208 50.2624 40.76 49.0304 40.76C47.9584 40.76 47.1584 41.128 46.6464 41.88L46.4064 41H44.6944V49H46.7264ZM64.4345 49V37.896H60.8665V39.608H62.3545V49H64.4345Z" fill="white"/>
</svg>
