<svg width="69" height="54" viewBox="0 0 69 54" fill="none" xmlns="http://www.w3.org/2000/svg">
<path d="M51.0387 4.20652C50.3528 3.48913 49.4055 3.06522 48.3275 3.06522H42.9051V3C42.9051 2.18478 42.5785 1.40217 42.0232 0.880435C41.4679 0.326087 40.7166 0 39.8999 0H30.1004C29.2511 0 28.4998 0.326087 27.9445 0.880435C27.3892 1.43478 27.0626 2.18478 27.0626 3V3.06522H21.6728C20.5949 3.06522 19.6476 3.48913 18.9616 4.20652C18.2757 4.8913 17.8184 5.86957 17.8184 6.91304V23.1522C17.8184 24.2283 18.243 25.1739 18.9616 25.8587C19.6476 26.5435 20.6276 27 21.6728 27H48.3275C49.4055 27 50.3528 26.5761 51.0387 25.8587C51.7247 25.1739 52.182 24.1957 52.182 23.1522V6.91304C52.182 5.83696 51.7573 4.8913 51.0387 4.20652ZM50.4834 23.1522H50.4507C50.4507 23.7391 50.2221 24.2609 49.8301 24.6522C49.4381 25.0435 48.9155 25.2717 48.3275 25.2717H21.6728C21.0849 25.2717 20.5622 25.0435 20.1702 24.6522C19.7783 24.2609 19.5496 23.7391 19.5496 23.1522V6.91304C19.5496 6.32609 19.7783 5.80435 20.1702 5.41304C20.5622 5.02174 21.0849 4.79348 21.6728 4.79348H27.9772C28.4672 4.79348 28.8591 4.40217 28.8591 3.91304V2.96739C28.8591 2.6087 28.9898 2.28261 29.2185 2.05435C29.4471 1.82609 29.7738 1.69565 30.1331 1.69565H39.8999C40.2593 1.69565 40.5859 1.82609 40.8146 2.05435C41.0432 2.28261 41.1739 2.6087 41.1739 2.96739V3.91304C41.1739 4.40217 41.5659 4.79348 42.0558 4.79348H48.3602C48.9482 4.79348 49.4708 5.02174 49.8628 5.41304C50.2548 5.80435 50.4834 6.32609 50.4834 6.91304V23.1522Z" fill="white"/>
<path d="M35.0004 7.01099C32.7792 7.01099 30.754 7.92403 29.3167 9.35881C27.8468 10.8262 26.9648 12.8153 26.9648 15.0327C26.9648 17.2501 27.8795 19.2719 29.3167 20.7066C30.7867 22.174 32.7792 23.0545 35.0004 23.0545C37.2217 23.0545 39.2469 22.1414 40.6842 20.7066C42.1541 19.2392 43.0361 17.2501 43.0361 15.0327C43.0361 12.8153 42.1214 10.7936 40.6842 9.35881C39.2469 7.92403 37.2217 7.01099 35.0004 7.01099ZM39.4429 19.5001C38.2996 20.6088 36.7317 21.3262 35.0004 21.3262C33.2692 21.3262 31.7013 20.6088 30.558 19.5001C29.4147 18.3588 28.7288 16.7936 28.7288 15.0653C28.7288 13.3371 29.4474 11.7719 30.558 10.6306C31.7013 9.48925 33.2692 8.80446 35.0004 8.80446C36.7317 8.80446 38.2996 9.52186 39.4429 10.6306C40.5862 11.7719 41.2721 13.3371 41.2721 15.0653C41.3048 16.7936 40.5862 18.3588 39.4429 19.5001Z" fill="white"/>
<path d="M46.6289 10.1739C47.5129 10.1739 48.2295 9.45855 48.2295 8.5761C48.2295 7.69364 47.5129 6.97827 46.6289 6.97827C45.7449 6.97827 45.0283 7.69364 45.0283 8.5761C45.0283 9.45855 45.7449 10.1739 46.6289 10.1739Z" fill="white"/>
<path d="M1.60475 49H3.68475V37.896H1.60475V49ZM7.82013 49V43.64C7.82013 42.808 8.44413 42.36 9.40413 42.36C10.2841 42.36 10.6841 42.744 10.6841 43.64V49H12.7161V43.72C12.7161 42.84 13.3401 42.36 14.3001 42.36C15.1801 42.36 15.5801 42.744 15.5801 43.64V49H17.6121V43.624C17.6121 41.656 16.8281 40.76 15.0201 40.76C13.8201 40.76 12.9721 41.208 12.4921 42.12C12.1401 41.208 11.3561 40.76 10.1241 40.76C9.05212 40.76 8.25213 41.128 7.74013 41.88L7.50013 41H5.78813V49H7.82013ZM21.7789 49.208C22.7869 49.208 23.5709 48.936 24.1309 48.408C24.4029 48.904 24.9309 49.16 25.6989 49.176C26.1469 49.16 26.5309 49.08 26.8509 48.904V47.544L26.3869 47.624C25.9869 47.624 25.8589 47.368 25.8589 46.84V43.64C25.8589 41.64 24.9309 40.76 22.5469 40.76C20.2909 40.76 19.3469 41.672 19.3469 43.608V43.96H21.1389V43.656C21.1389 42.584 21.4909 42.264 22.5629 42.264C23.4589 42.264 23.8269 42.728 23.8269 43.816V44.568H22.4029C19.9549 44.568 19.0589 45.32 19.0589 46.904C19.0589 48.44 19.9709 49.208 21.7789 49.208ZM22.4029 47.704C21.6029 47.704 21.2029 47.416 21.2029 46.84C21.2029 46.136 21.5389 45.88 22.5789 45.88H23.8269V46.936C23.8269 47.144 23.8269 47.288 23.8429 47.4C23.4749 47.608 22.9949 47.704 22.4029 47.704ZM32.9185 41.528C32.3265 41.016 31.6385 40.76 30.8225 40.76C28.7905 40.76 27.7665 41.896 27.7665 44.152V45.992C27.7665 48.056 28.5825 49.064 30.5025 49.064C31.4785 49.064 32.2305 48.744 32.7585 48.12V48.824C32.7585 49.976 32.0865 50.568 30.7425 50.584C29.9585 50.584 29.2705 50.424 28.9345 50.28L28.2625 49.944V51.608C28.9825 51.976 29.8785 52.152 30.9505 52.152C33.2705 52.152 34.7905 50.968 34.7905 48.872V41H33.0785L32.9185 41.528ZM31.2705 47.496C30.2465 47.496 29.7985 47.08 29.7985 46.168V43.848C29.7985 42.84 30.2785 42.344 31.2385 42.344C31.7185 42.344 32.2305 42.456 32.7585 42.696V46.2C32.7585 47.016 32.2145 47.496 31.2705 47.496ZM38.454 45.592H43.19V44.024C43.19 41.736 42.198 40.76 39.878 40.76C37.558 40.76 36.422 41.784 36.422 44.072V45.8C36.422 48.024 37.686 49.24 39.926 49.24C40.982 49.24 41.974 49.032 42.886 48.6V47.08C42.758 47.16 42.39 47.352 41.558 47.544C41.158 47.624 40.742 47.672 40.342 47.672C39.174 47.672 38.454 47.064 38.454 45.96V45.592ZM41.302 44.2H38.454V43.88C38.454 42.776 38.854 42.264 39.878 42.264C40.918 42.264 41.302 42.744 41.302 43.88V44.2ZM46.7733 49V43.64C46.7733 42.808 47.3973 42.36 48.3573 42.36C49.2373 42.36 49.6373 42.744 49.6373 43.64V49H51.6693V43.72C51.6693 42.84 52.2933 42.36 53.2533 42.36C54.1333 42.36 54.5333 42.744 54.5333 43.64V49H56.5653V43.624C56.5653 41.656 55.7813 40.76 53.9733 40.76C52.7733 40.76 51.9253 41.208 51.4453 42.12C51.0933 41.208 50.3093 40.76 49.0773 40.76C48.0052 40.76 47.2053 41.128 46.6933 41.88L46.4533 41H44.7413V49H46.7733ZM63.9054 49L68.2574 39.288V37.896H60.8974V39.592H66.0174L61.8094 49H63.9054Z" fill="white"/>
</svg>
