<svg width="70" height="54" viewBox="0 0 70 54" fill="none" xmlns="http://www.w3.org/2000/svg">
<path d="M52.0387 4.20652C51.3528 3.48913 50.4055 3.06522 49.3275 3.06522H43.9051V3C43.9051 2.18478 43.5785 1.40217 43.0232 0.880435C42.4679 0.326087 41.7166 0 40.8999 0H31.1004C30.2511 0 29.4998 0.326087 28.9445 0.880435C28.3892 1.43478 28.0626 2.18478 28.0626 3V3.06522H22.6728C21.5949 3.06522 20.6476 3.48913 19.9616 4.20652C19.2757 4.8913 18.8184 5.86957 18.8184 6.91304V23.1522C18.8184 24.2283 19.243 25.1739 19.9616 25.8587C20.6476 26.5435 21.6276 27 22.6728 27H49.3275C50.4055 27 51.3528 26.5761 52.0387 25.8587C52.7247 25.1739 53.182 24.1957 53.182 23.1522V6.91304C53.182 5.83696 52.7573 4.8913 52.0387 4.20652ZM51.4834 23.1522H51.4507C51.4507 23.7391 51.2221 24.2609 50.8301 24.6522C50.4381 25.0435 49.9155 25.2717 49.3275 25.2717H22.6728C22.0849 25.2717 21.5622 25.0435 21.1702 24.6522C20.7783 24.2609 20.5496 23.7391 20.5496 23.1522V6.91304C20.5496 6.32609 20.7783 5.80435 21.1702 5.41304C21.5622 5.02174 22.0849 4.79348 22.6728 4.79348H28.9772C29.4672 4.79348 29.8591 4.40217 29.8591 3.91304V2.96739C29.8591 2.6087 29.9898 2.28261 30.2185 2.05435C30.4471 1.82609 30.7738 1.69565 31.1331 1.69565H40.8999C41.2593 1.69565 41.5859 1.82609 41.8146 2.05435C42.0432 2.28261 42.1739 2.6087 42.1739 2.96739V3.91304C42.1739 4.40217 42.5659 4.79348 43.0558 4.79348H49.3602C49.9482 4.79348 50.4708 5.02174 50.8628 5.41304C51.2548 5.80435 51.4834 6.32609 51.4834 6.91304V23.1522Z" fill="white"/>
<path d="M36.0004 7.01099C33.7792 7.01099 31.754 7.92403 30.3167 9.35881C28.8468 10.8262 27.9648 12.8153 27.9648 15.0327C27.9648 17.2501 28.8795 19.2719 30.3167 20.7066C31.7867 22.174 33.7792 23.0545 36.0004 23.0545C38.2217 23.0545 40.2469 22.1414 41.6842 20.7066C43.1541 19.2392 44.0361 17.2501 44.0361 15.0327C44.0361 12.8153 43.1214 10.7936 41.6842 9.35881C40.2469 7.92403 38.2217 7.01099 36.0004 7.01099ZM40.4429 19.5001C39.2996 20.6088 37.7317 21.3262 36.0004 21.3262C34.2692 21.3262 32.7013 20.6088 31.558 19.5001C30.4147 18.3588 29.7288 16.7936 29.7288 15.0653C29.7288 13.3371 30.4474 11.7719 31.558 10.6306C32.7013 9.48925 34.2692 8.80446 36.0004 8.80446C37.7317 8.80446 39.2996 9.52186 40.4429 10.6306C41.5862 11.7719 42.2721 13.3371 42.2721 15.0653C42.3048 16.7936 41.5862 18.3588 40.4429 19.5001Z" fill="white"/>
<path d="M47.6289 10.1739C48.5129 10.1739 49.2295 9.45855 49.2295 8.5761C49.2295 7.69364 48.5129 6.97827 47.6289 6.97827C46.7449 6.97827 46.0283 7.69364 46.0283 8.5761C46.0283 9.45855 46.7449 10.1739 47.6289 10.1739Z" fill="white"/>
<path d="M1.1985 49H3.2785V37.896H1.1985V49ZM7.41388 49V43.64C7.41388 42.808 8.03788 42.36 8.99788 42.36C9.87788 42.36 10.2779 42.744 10.2779 43.64V49H12.3099V43.72C12.3099 42.84 12.9339 42.36 13.8939 42.36C14.7739 42.36 15.1739 42.744 15.1739 43.64V49H17.2059V43.624C17.2059 41.656 16.4219 40.76 14.6139 40.76C13.4139 40.76 12.5659 41.208 12.0859 42.12C11.7339 41.208 10.9499 40.76 9.71788 40.76C8.64587 40.76 7.84588 41.128 7.33388 41.88L7.09388 41H5.38188V49H7.41388ZM21.3726 49.208C22.3806 49.208 23.1646 48.936 23.7246 48.408C23.9966 48.904 24.5246 49.16 25.2926 49.176C25.7406 49.16 26.1246 49.08 26.4446 48.904V47.544L25.9806 47.624C25.5806 47.624 25.4526 47.368 25.4526 46.84V43.64C25.4526 41.64 24.5246 40.76 22.1406 40.76C19.8846 40.76 18.9406 41.672 18.9406 43.608V43.96H20.7326V43.656C20.7326 42.584 21.0846 42.264 22.1566 42.264C23.0526 42.264 23.4206 42.728 23.4206 43.816V44.568H21.9966C19.5486 44.568 18.6526 45.32 18.6526 46.904C18.6526 48.44 19.5646 49.208 21.3726 49.208ZM21.9966 47.704C21.1966 47.704 20.7966 47.416 20.7966 46.84C20.7966 46.136 21.1326 45.88 22.1726 45.88H23.4206V46.936C23.4206 47.144 23.4206 47.288 23.4366 47.4C23.0686 47.608 22.5886 47.704 21.9966 47.704ZM32.5123 41.528C31.9203 41.016 31.2323 40.76 30.4163 40.76C28.3843 40.76 27.3603 41.896 27.3603 44.152V45.992C27.3603 48.056 28.1763 49.064 30.0963 49.064C31.0723 49.064 31.8243 48.744 32.3523 48.12V48.824C32.3523 49.976 31.6803 50.568 30.3363 50.584C29.5523 50.584 28.8643 50.424 28.5283 50.28L27.8563 49.944V51.608C28.5763 51.976 29.4723 52.152 30.5443 52.152C32.8643 52.152 34.3843 50.968 34.3843 48.872V41H32.6723L32.5123 41.528ZM30.8643 47.496C29.8403 47.496 29.3923 47.08 29.3923 46.168V43.848C29.3923 42.84 29.8723 42.344 30.8323 42.344C31.3123 42.344 31.8243 42.456 32.3523 42.696V46.2C32.3523 47.016 31.8083 47.496 30.8643 47.496ZM38.0478 45.592H42.7838V44.024C42.7838 41.736 41.7918 40.76 39.4718 40.76C37.1518 40.76 36.0158 41.784 36.0158 44.072V45.8C36.0158 48.024 37.2798 49.24 39.5198 49.24C40.5758 49.24 41.5678 49.032 42.4798 48.6V47.08C42.3518 47.16 41.9838 47.352 41.1518 47.544C40.7518 47.624 40.3358 47.672 39.9358 47.672C38.7678 47.672 38.0478 47.064 38.0478 45.96V45.592ZM40.8958 44.2H38.0478V43.88C38.0478 42.776 38.4478 42.264 39.4718 42.264C40.5118 42.264 40.8958 42.744 40.8958 43.88V44.2ZM46.367 49V43.64C46.367 42.808 46.991 42.36 47.951 42.36C48.831 42.36 49.231 42.744 49.231 43.64V49H51.263V43.72C51.263 42.84 51.887 42.36 52.847 42.36C53.727 42.36 54.127 42.744 54.127 43.64V49H56.159V43.624C56.159 41.656 55.375 40.76 53.567 40.76C52.367 40.76 51.519 41.208 51.039 42.12C50.687 41.208 49.903 40.76 48.671 40.76C47.599 40.76 46.799 41.128 46.287 41.88L46.047 41H44.335V49H46.367ZM69.2911 45.416C69.2591 43.416 67.9791 42.408 65.4671 42.408C64.6351 42.408 63.8351 42.584 63.0671 42.92V41.352C63.0671 39.928 63.6591 39.304 65.1471 39.304C66.6351 39.304 67.0671 39.816 67.0671 41.176V41.656H69.1311V40.92C69.1311 38.6 67.8991 37.72 65.1471 37.72C62.3471 37.72 61.0031 38.728 61.0031 41.432V45.432C61.0031 48.056 62.3951 49.24 65.1471 49.24C67.6431 49.24 69.2911 48.088 69.2911 45.8V45.416ZM65.1471 47.64C63.6911 47.64 63.0671 47.064 63.0671 45.4V44.312C63.7231 44.072 64.4271 43.944 65.2111 43.944C66.6831 43.944 67.2111 44.376 67.2111 45.528V45.8C67.2111 47.08 66.5391 47.64 65.1471 47.64Z" fill="white"/>
</svg>
