<svg width="70" height="54" viewBox="0 0 70 54" fill="none" xmlns="http://www.w3.org/2000/svg">
<path d="M52.0387 4.20652C51.3528 3.48913 50.4055 3.06522 49.3275 3.06522H43.9051V3C43.9051 2.18478 43.5785 1.40217 43.0232 0.880435C42.4679 0.326087 41.7166 0 40.8999 0H31.1004C30.2511 0 29.4998 0.326087 28.9445 0.880435C28.3892 1.43478 28.0626 2.18478 28.0626 3V3.06522H22.6728C21.5949 3.06522 20.6476 3.48913 19.9616 4.20652C19.2757 4.8913 18.8184 5.86957 18.8184 6.91304V23.1522C18.8184 24.2283 19.243 25.1739 19.9616 25.8587C20.6476 26.5435 21.6276 27 22.6728 27H49.3275C50.4055 27 51.3528 26.5761 52.0387 25.8587C52.7247 25.1739 53.182 24.1957 53.182 23.1522V6.91304C53.182 5.83696 52.7573 4.8913 52.0387 4.20652ZM51.4834 23.1522H51.4507C51.4507 23.7391 51.2221 24.2609 50.8301 24.6522C50.4381 25.0435 49.9155 25.2717 49.3275 25.2717H22.6728C22.0849 25.2717 21.5622 25.0435 21.1702 24.6522C20.7783 24.2609 20.5496 23.7391 20.5496 23.1522V6.91304C20.5496 6.32609 20.7783 5.80435 21.1702 5.41304C21.5622 5.02174 22.0849 4.79348 22.6728 4.79348H28.9772C29.4672 4.79348 29.8591 4.40217 29.8591 3.91304V2.96739C29.8591 2.6087 29.9898 2.28261 30.2185 2.05435C30.4471 1.82609 30.7738 1.69565 31.1331 1.69565H40.8999C41.2593 1.69565 41.5859 1.82609 41.8146 2.05435C42.0432 2.28261 42.1739 2.6087 42.1739 2.96739V3.91304C42.1739 4.40217 42.5659 4.79348 43.0558 4.79348H49.3602C49.9482 4.79348 50.4708 5.02174 50.8628 5.41304C51.2548 5.80435 51.4834 6.32609 51.4834 6.91304V23.1522Z" fill="white"/>
<path d="M36.0004 7.01099C33.7792 7.01099 31.754 7.92403 30.3167 9.35881C28.8468 10.8262 27.9648 12.8153 27.9648 15.0327C27.9648 17.2501 28.8795 19.2719 30.3167 20.7066C31.7867 22.174 33.7792 23.0545 36.0004 23.0545C38.2217 23.0545 40.2469 22.1414 41.6842 20.7066C43.1541 19.2392 44.0361 17.2501 44.0361 15.0327C44.0361 12.8153 43.1214 10.7936 41.6842 9.35881C40.2469 7.92403 38.2217 7.01099 36.0004 7.01099ZM40.4429 19.5001C39.2996 20.6088 37.7317 21.3262 36.0004 21.3262C34.2692 21.3262 32.7013 20.6088 31.558 19.5001C30.4147 18.3588 29.7288 16.7936 29.7288 15.0653C29.7288 13.3371 30.4474 11.7719 31.558 10.6306C32.7013 9.48925 34.2692 8.80446 36.0004 8.80446C37.7317 8.80446 39.2996 9.52186 40.4429 10.6306C41.5862 11.7719 42.2721 13.3371 42.2721 15.0653C42.3048 16.7936 41.5862 18.3588 40.4429 19.5001Z" fill="white"/>
<path d="M47.6289 10.1739C48.5129 10.1739 49.2295 9.45855 49.2295 8.5761C49.2295 7.69364 48.5129 6.97827 47.6289 6.97827C46.7449 6.97827 46.0283 7.69364 46.0283 8.5761C46.0283 9.45855 46.7449 10.1739 47.6289 10.1739Z" fill="white"/>
<path d="M1.33913 49H3.41913V37.896H1.33913V49ZM7.5545 49V43.64C7.5545 42.808 8.1785 42.36 9.1385 42.36C10.0185 42.36 10.4185 42.744 10.4185 43.64V49H12.4505V43.72C12.4505 42.84 13.0745 42.36 14.0345 42.36C14.9145 42.36 15.3145 42.744 15.3145 43.64V49H17.3465V43.624C17.3465 41.656 16.5625 40.76 14.7545 40.76C13.5545 40.76 12.7065 41.208 12.2265 42.12C11.8745 41.208 11.0905 40.76 9.8585 40.76C8.7865 40.76 7.9865 41.128 7.4745 41.88L7.2345 41H5.5225V49H7.5545ZM21.5133 49.208C22.5213 49.208 23.3053 48.936 23.8653 48.408C24.1373 48.904 24.6653 49.16 25.4333 49.176C25.8813 49.16 26.2653 49.08 26.5853 48.904V47.544L26.1213 47.624C25.7213 47.624 25.5933 47.368 25.5933 46.84V43.64C25.5933 41.64 24.6653 40.76 22.2812 40.76C20.0253 40.76 19.0813 41.672 19.0813 43.608V43.96H20.8733V43.656C20.8733 42.584 21.2253 42.264 22.2973 42.264C23.1933 42.264 23.5613 42.728 23.5613 43.816V44.568H22.1373C19.6893 44.568 18.7933 45.32 18.7933 46.904C18.7933 48.44 19.7053 49.208 21.5133 49.208ZM22.1373 47.704C21.3373 47.704 20.9373 47.416 20.9373 46.84C20.9373 46.136 21.2733 45.88 22.3133 45.88H23.5613V46.936C23.5613 47.144 23.5613 47.288 23.5773 47.4C23.2093 47.608 22.7293 47.704 22.1373 47.704ZM32.6529 41.528C32.0609 41.016 31.3729 40.76 30.5569 40.76C28.5249 40.76 27.5009 41.896 27.5009 44.152V45.992C27.5009 48.056 28.3169 49.064 30.2369 49.064C31.2129 49.064 31.9649 48.744 32.4929 48.12V48.824C32.4929 49.976 31.8209 50.568 30.4769 50.584C29.6929 50.584 29.0049 50.424 28.6689 50.28L27.9969 49.944V51.608C28.7169 51.976 29.6129 52.152 30.6849 52.152C33.0049 52.152 34.5249 50.968 34.5249 48.872V41H32.8129L32.6529 41.528ZM31.0049 47.496C29.9809 47.496 29.5329 47.08 29.5329 46.168V43.848C29.5329 42.84 30.0129 42.344 30.9729 42.344C31.4529 42.344 31.9649 42.456 32.4929 42.696V46.2C32.4929 47.016 31.9489 47.496 31.0049 47.496ZM38.1884 45.592H42.9244V44.024C42.9244 41.736 41.9324 40.76 39.6124 40.76C37.2924 40.76 36.1564 41.784 36.1564 44.072V45.8C36.1564 48.024 37.4204 49.24 39.6604 49.24C40.7164 49.24 41.7084 49.032 42.6204 48.6V47.08C42.4924 47.16 42.1244 47.352 41.2924 47.544C40.8924 47.624 40.4764 47.672 40.0764 47.672C38.9084 47.672 38.1884 47.064 38.1884 45.96V45.592ZM41.0364 44.2H38.1884V43.88C38.1884 42.776 38.5884 42.264 39.6124 42.264C40.6524 42.264 41.0364 42.744 41.0364 43.88V44.2ZM46.5076 49V43.64C46.5076 42.808 47.1316 42.36 48.0916 42.36C48.9716 42.36 49.3716 42.744 49.3716 43.64V49H51.4036V43.72C51.4036 42.84 52.0276 42.36 52.9876 42.36C53.8676 42.36 54.2676 42.744 54.2676 43.64V49H56.2996V43.624C56.2996 41.656 55.5156 40.76 53.7076 40.76C52.5076 40.76 51.6596 41.208 51.1796 42.12C50.8276 41.208 50.0436 40.76 48.8116 40.76C47.7396 40.76 46.9396 41.128 46.4276 41.88L46.1876 41H44.4756V49H46.5076ZM69.2558 49V47.288H63.9918L67.4158 43.848C68.0878 43.176 68.5198 42.648 68.6958 42.248C68.8878 41.848 68.9838 41.384 68.9838 40.856V40.616C68.9838 38.664 67.6398 37.688 64.9518 37.688C62.1518 37.688 60.9198 38.872 60.9198 40.792V41.816H62.9838V40.872C62.9838 39.768 63.5918 39.32 64.9358 39.32C66.3918 39.32 66.8398 39.784 66.8398 40.76V40.92C66.8398 41.224 66.7598 41.48 66.6158 41.72C66.4718 41.96 66.1358 42.328 65.6398 42.856L61.1278 47.496V49H69.2558Z" fill="white"/>
</svg>
