<svg width="23" height="22" viewBox="0 0 23 22" fill="none" xmlns="http://www.w3.org/2000/svg">
<path d="M16.338 21.5867H6.5722C3.04124 21.5867 0.146484 18.83 0.146484 15.4673V6.16693C0.146484 2.80427 3.04124 0.0474854 6.5722 0.0474854H16.3062C19.869 0.0474854 22.7637 2.80427 22.7637 6.16693V15.437C22.7637 18.83 19.869 21.5867 16.338 21.5867ZM6.5722 1.89544C4.09098 1.89544 2.08692 3.80398 2.08692 6.16693V15.437C2.08692 17.7999 4.09098 19.7085 6.5722 19.7085H16.3062C18.8192 19.7388 20.8233 17.8302 20.8233 15.4673V6.16693C20.8233 3.80398 18.8192 1.89544 16.338 1.89544H6.5722Z" fill="#939496"/>
<path d="M11.4389 16.3457C8.25786 16.3457 5.64941 13.8616 5.64941 10.8321C5.64941 7.80273 8.25786 5.3186 11.4389 5.3186C14.6199 5.3186 17.2284 7.80273 17.2284 10.8321C17.2284 13.8616 14.6517 16.3457 11.4389 16.3457ZM11.4389 7.13626C9.3076 7.13626 7.58985 8.77214 7.58985 10.8019C7.58985 12.8316 9.3076 14.4675 11.4389 14.4675C13.5702 14.4675 15.2879 12.8316 15.2879 10.8019C15.2879 8.77214 13.5702 7.13626 11.4389 7.13626Z" fill="#939496"/>
<path d="M18.8828 4.98542C18.8828 5.71249 18.2466 6.31838 17.4831 6.31838C16.7197 6.31838 16.0835 5.71249 16.0835 4.98542C16.0835 4.25836 16.7197 3.65247 17.4831 3.65247C18.2784 3.65247 18.8828 4.25836 18.8828 4.98542Z" fill="#939496"/>
</svg>
