<svg width="139" height="25" viewBox="0 0 139 25" fill="none" xmlns="http://www.w3.org/2000/svg">
<path d="M1.995 7.49469C2.688 7.49469 3.108 7.40369 3.479 7.10269C3.864 6.79469 4.039 6.20669 4.039 5.28969V4.96769C4.039 4.00869 3.864 3.39269 3.493 3.06369C3.122 2.73469 2.695 2.63669 2.016 2.63669H0.574V7.49469H1.995ZM1.218 3.17569H2.044C2.555 3.17569 2.905 3.29469 3.094 3.53969C3.283 3.78469 3.381 4.23969 3.381 4.90469V5.34569C3.381 6.04569 3.311 6.44469 3.08 6.67569C2.856 6.89969 2.576 6.95569 2.044 6.95569H1.218V3.17569ZM5.18618 5.91969H7.34918V5.26869C7.34918 4.32369 6.92218 3.89669 5.97018 3.89669C5.02518 3.89669 4.55618 4.35869 4.55618 5.28269V6.10869C4.55618 7.05369 5.08118 7.59269 5.99818 7.59269C6.48118 7.59269 6.88718 7.50169 7.21618 7.32669V6.82969C7.16718 6.86469 7.02718 6.94169 6.66318 7.02569C6.48118 7.06069 6.29218 7.08169 6.10318 7.08169C5.54318 7.08169 5.18618 6.74569 5.18618 6.17869V5.91969ZM6.75418 5.45069H5.18618V5.20569C5.18618 4.66669 5.44518 4.39369 5.97018 4.39369C6.49518 4.39369 6.75418 4.66669 6.75418 5.21269V5.45069ZM9.10016 7.58569C10.0592 7.58569 10.4792 7.26369 10.4792 6.54269C10.4792 6.01769 10.2622 5.70969 9.64616 5.57669L8.80616 5.38069C8.52616 5.32469 8.38616 5.17069 8.38616 4.92569C8.38616 4.55469 8.56116 4.40769 9.09316 4.40769C9.61816 4.40769 9.83516 4.58269 9.83516 4.99569V5.16369H10.4232V4.98169C10.4162 4.22569 10.0172 3.89669 9.09316 3.89669C8.23216 3.89669 7.80516 4.24669 7.80516 4.93969C7.80516 5.52069 8.08516 5.80069 8.70816 5.94069L9.35216 6.08069C9.75116 6.15769 9.89816 6.29769 9.89816 6.57769C9.89816 6.94169 9.71616 7.08869 9.10716 7.08869C8.54016 7.08869 8.33716 6.92069 8.33716 6.60569V6.45869H7.75616V6.67569C7.75616 7.31269 8.16916 7.58569 9.10016 7.58569ZM11.5611 5.91969H13.7241V5.26869C13.7241 4.32369 13.2971 3.89669 12.3451 3.89669C11.4001 3.89669 10.9311 4.35869 10.9311 5.28269V6.10869C10.9311 7.05369 11.4561 7.59269 12.3731 7.59269C12.8561 7.59269 13.2621 7.50169 13.5911 7.32669V6.82969C13.5421 6.86469 13.4021 6.94169 13.0381 7.02569C12.8561 7.06069 12.6671 7.08169 12.4781 7.08169C11.9181 7.08169 11.5611 6.74569 11.5611 6.17869V5.91969ZM13.1291 5.45069H11.5611V5.20569C11.5611 4.66669 11.8201 4.39369 12.3451 4.39369C12.8701 4.39369 13.1291 4.66669 13.1291 5.21269V5.45069ZM14.9361 7.49469V5.09369C14.9361 4.66669 15.3001 4.41469 15.8251 4.41469C16.3011 4.41469 16.5041 4.63869 16.5041 5.13569V7.49469H17.1341V5.08669C17.1341 4.29569 16.7771 3.89669 16.0701 3.89669C15.5451 3.89669 15.1671 4.06469 14.9221 4.39369L14.8241 3.99469H14.3061V7.49469H14.9361ZM19.6273 7.49469L20.6283 3.99469H19.9773L19.1513 7.05369H19.0043L18.1993 3.99469H17.5133L18.5003 7.49469H19.6273ZM20.8831 6.14369C20.8831 7.14469 21.3591 7.59269 22.3461 7.59269C23.3331 7.59269 23.8091 7.14469 23.8091 6.14369V5.35269C23.8091 4.35169 23.3331 3.90369 22.3461 3.90369C21.3591 3.90369 20.8831 4.35169 20.8831 5.35269V6.14369ZM23.1791 6.25569C23.1791 6.81569 22.8991 7.09569 22.3461 7.09569C21.7931 7.09569 21.5131 6.81569 21.5131 6.25569V5.24069C21.5131 4.67369 21.7931 4.39369 22.3461 4.39369C22.8991 4.39369 23.1791 4.67369 23.1791 5.24069V6.25569ZM24.4359 7.49469H25.0659V2.63669H24.4359V7.49469ZM27.6106 7.49469L28.6116 3.99469H27.9606L27.1346 7.05369H26.9876L26.1826 3.99469H25.4966L26.4836 7.49469H27.6106ZM29.6773 3.34369V2.67169H29.0403V3.34369H29.6773ZM29.6703 7.49469V3.99469H29.0403V7.49469H29.6703ZM32.586 4.22569C32.341 4.00869 32.026 3.89669 31.634 3.89669C30.703 3.89669 30.311 4.39369 30.311 5.35269V6.26269C30.311 7.15869 30.675 7.58569 31.543 7.58569C32.026 7.58569 32.383 7.41069 32.614 7.06069L32.747 7.49469H33.216V2.63669H32.586V4.22569ZM31.732 7.08169C31.179 7.08169 30.948 6.85069 30.948 6.35369V5.24069C30.948 4.65969 31.207 4.41469 31.739 4.41469C32.026 4.41469 32.313 4.51269 32.586 4.70869V6.32569C32.586 6.79469 32.229 7.08169 31.732 7.08169ZM33.8468 6.14369C33.8468 7.14469 34.3228 7.59269 35.3098 7.59269C36.2968 7.59269 36.7728 7.14469 36.7728 6.14369V5.35269C36.7728 4.35169 36.2968 3.90369 35.3098 3.90369C34.3228 3.90369 33.8468 4.35169 33.8468 5.35269V6.14369ZM36.1428 6.25569C36.1428 6.81569 35.8628 7.09569 35.3098 7.09569C34.7568 7.09569 34.4768 6.81569 34.4768 6.25569V5.24069C34.4768 4.67369 34.7568 4.39369 35.3098 4.39369C35.8628 4.39369 36.1428 4.67369 36.1428 5.24069V6.25569ZM40.3664 3.89669C39.8904 3.89669 39.5334 4.07169 39.2954 4.41469L39.1624 3.99469H38.6934V8.81069H39.3234V7.24969C39.5824 7.47369 39.8974 7.58569 40.2684 7.58569C41.1994 7.58569 41.5984 7.09569 41.5984 6.12269V5.22669C41.5984 4.33069 41.2344 3.89669 40.3664 3.89669ZM40.9614 6.24169C40.9614 6.82969 40.7024 7.06769 40.1704 7.06769C39.8694 7.06769 39.5824 6.96969 39.3234 6.77369V5.16369C39.3234 4.68769 39.6594 4.41469 40.1844 4.41469C40.7234 4.41469 40.9614 4.63869 40.9614 5.13569V6.24169ZM42.1172 6.14369C42.1172 7.14469 42.5932 7.59269 43.5802 7.59269C44.5672 7.59269 45.0432 7.14469 45.0432 6.14369V5.35269C45.0432 4.35169 44.5672 3.90369 43.5802 3.90369C42.5932 3.90369 42.1172 4.35169 42.1172 5.35269V6.14369ZM44.4132 6.25569C44.4132 6.81569 44.1332 7.09569 43.5802 7.09569C43.0272 7.09569 42.7472 6.81569 42.7472 6.25569V5.24069C42.7472 4.67369 43.0272 4.39369 43.5802 4.39369C44.1332 4.39369 44.4132 4.67369 44.4132 5.24069V6.25569ZM46.2999 7.50169V5.68169C46.2999 4.86969 46.6779 4.54069 47.3499 4.51269V3.91069C46.8529 3.93869 46.5029 4.14869 46.2859 4.53369L46.2019 3.99469H45.6699V7.50169H46.2999Z" fill="#939496"/>
<g clip-path="url(#clip0)">
<path d="M61.5254 20.3043L60.2729 18.9863H59.1052V20.3043H60.1667V21.4577H57.3856V20.3867L56.0482 19.0686H55.475V20.3867H56.0482V21.8284L57.3856 22.7757H60.1667L61.5254 21.4577V20.3043Z" fill="#939496"/>
<path d="M55.1778 16.1035L53.6705 17.4422V23.6825H50.3375V20.3873H53.2247V19.0692H50.3375L49 20.3873V23.6825L50.3162 25.0006H53.713L54.9867 23.6825H55.008V17.4422H61.5254V16.1035H55.1778Z" fill="#939496"/>
<path d="M68.7647 17.8336V18.2867C68.7647 19.4194 67.9367 20.0579 66.9389 20.0579H65.3892V16.0625H66.9389C67.9367 16.0625 68.7647 16.7009 68.7647 17.8336ZM66.302 19.3371H66.9389C67.4272 19.3371 67.8093 19.0281 67.8093 18.4103V17.6895C67.8093 17.0716 67.4272 16.7627 66.9389 16.7627H66.302V19.3371Z" fill="#939496"/>
<path d="M72.3949 16.0618L72.2887 16.7826H70.3993V17.6476H72.1614V18.3684H70.3993V19.3364H72.31L72.4161 20.0572H69.4865V16.0618H72.3949Z" fill="#939496"/>
<path d="M77.7661 17.4828H76.8956C76.8956 16.9474 76.5135 16.7208 76.0889 16.7208C75.6006 16.7208 75.2397 17.0297 75.2397 17.6476V18.4714C75.2397 19.0892 75.6431 19.3982 76.1102 19.3982C76.556 19.3982 76.8956 19.151 76.8956 18.6568V18.5538H75.9615V17.8741H77.7661V19.254C77.7661 19.7277 77.8085 20.0366 77.8085 20.0366H77.299L77.1504 19.5835C76.8956 19.8924 76.4711 20.0984 75.9828 20.0984H75.9615C74.9638 20.0984 74.2632 19.4188 74.2632 18.3272V17.7712C74.2632 16.6796 75.0062 16 76.0677 16H76.1526C77.023 16 77.7661 16.5767 77.7661 17.4828Z" fill="#939496"/>
<path d="M81.8209 17.0915C81.8209 17.5858 81.4812 17.9565 81.0778 18.1213V18.1419C81.3751 18.2448 81.736 18.5538 81.736 19.0892C81.736 19.3364 81.7784 19.7483 82.0332 19.8306V20.0366C81.9058 20.0984 81.6935 20.119 81.5237 20.119C81.1628 20.119 80.8443 19.9748 80.8443 19.4805C80.8443 19.0068 80.7382 18.5332 80.2074 18.5332H79.5069V20.0778H78.594V16.0618H80.4622C81.1203 16.0618 81.8209 16.3295 81.8209 17.0915ZM79.5069 16.7826V17.8123H80.3985C80.6745 17.8123 80.8868 17.524 80.8868 17.2151C80.8868 16.9679 80.7169 16.7826 80.441 16.7826H79.5069Z" fill="#939496"/>
<path d="M84.9628 19.254H83.3281L83.0309 20.0366H82.1393L83.6254 16.0412H84.7293L86.2154 20.0366H85.2388L84.9628 19.254ZM84.1773 17.0092H84.1561L83.6041 18.5744H84.7505L84.1773 17.0092Z" fill="#939496"/>
<path d="M88.7629 17.9153L89.1025 18.4302L89.1238 18.4096V16.0618H89.973V20.0572H89.1875L87.8925 18.2242L87.5528 17.7094L87.5316 17.73V20.0778H86.6824V16.0618H87.4679L88.7629 17.9153Z" fill="#939496"/>
<path d="M94.2189 17.8329V18.286C94.2189 19.4187 93.3909 20.0572 92.3931 20.0572H90.8221V16.0618H92.3719C93.3909 16.0618 94.2189 16.7002 94.2189 17.8329ZM91.7562 19.3364H92.3931C92.8814 19.3364 93.2635 19.0274 93.2635 18.4096V17.6888C93.2635 17.0709 92.8814 16.762 92.3931 16.762H91.7562V19.3364Z" fill="#939496"/>
<path d="M96.8301 16.7826H96.3418V19.3364H96.8301V20.0572H94.9407V19.3364H95.429V16.7826H94.9407V16.0618H96.8301V16.7826Z" fill="#939496"/>
<path d="M67.6183 22.8169V22.8581H67.2999V22.7963C67.2999 22.4874 67.0027 22.3227 66.6205 22.3227C66.2172 22.3227 65.92 22.4668 65.92 22.7758C65.92 23.5172 67.7032 23.0847 67.7032 24.135C67.7032 24.7529 67.2362 25 66.6205 25C65.9836 25 65.5166 24.7529 65.5166 24.1556C65.5166 24.135 65.5166 24.1144 65.5166 24.0732H65.835C65.835 24.1144 65.835 24.135 65.835 24.1762C65.835 24.5675 66.1535 24.7117 66.5993 24.7117C67.0451 24.7117 67.3636 24.5675 67.3636 24.1762C67.3636 23.373 65.5803 23.8261 65.5803 22.7963C65.5803 22.2609 66.0261 22.0343 66.5993 22.0343C67.1937 22.0343 67.6183 22.2815 67.6183 22.8169Z" fill="#939496"/>
<path d="M70.3357 22.0755V22.3639H69.3803V24.9588H69.0619V22.3639H68.1066V22.0755H70.3357Z" fill="#939496"/>
<path d="M71.1849 22.0755V24.0115C71.1849 24.4234 71.4821 24.6911 71.9279 24.6911C72.395 24.6911 72.671 24.4028 72.671 24.0115V22.0755H72.9894V24.0321C72.9894 24.6087 72.586 25 71.9492 25H71.9067C71.291 25 70.8665 24.6293 70.8665 24.0321V22.0755H71.1849Z" fill="#939496"/>
<path d="M75.9828 23.4142V23.6202C75.9828 24.5675 75.4733 24.9588 74.7939 24.9588H73.8174V22.0755H74.7939C75.4733 22.0755 75.9828 22.4668 75.9828 23.4142ZM74.1358 24.6705H74.7939C75.3035 24.6705 75.6644 24.4028 75.6644 23.6407V23.4142C75.6644 22.6728 75.3247 22.3845 74.7939 22.3845H74.1358V24.6705Z" fill="#939496"/>
<path d="M77.5326 22.3639H77.1929V24.6705H77.5326V24.9588H76.5348V24.6705H76.8745V22.3639H76.5348V22.0755H77.5326V22.3639Z" fill="#939496"/>
<path d="M78.127 23.6407V23.4142C78.127 22.4256 78.6365 22.0549 79.2946 22.0549H79.3158C79.9952 22.0549 80.4834 22.4256 80.4834 23.4142V23.6407C80.4834 24.6293 79.9739 25 79.3158 25H79.2946C78.6365 25 78.127 24.6293 78.127 23.6407ZM80.165 23.6613V23.373C80.165 22.5904 79.8253 22.3227 79.2946 22.3227C78.7851 22.3227 78.4242 22.5904 78.4242 23.373V23.6613C78.4242 24.4439 78.7638 24.7117 79.2946 24.7117C79.8041 24.7117 80.165 24.4439 80.165 23.6613Z" fill="#939496"/>
<path d="M84.4321 23.4142V23.6202C84.4321 24.5675 83.9226 24.9588 83.2433 24.9588H82.2667V22.0755H83.2433C83.9439 22.0755 84.4321 22.4668 84.4321 23.4142ZM82.5852 24.6705H83.2433C83.7528 24.6705 84.1137 24.4028 84.1137 23.6407V23.4142C84.1137 22.6728 83.774 22.3845 83.2433 22.3845H82.5852V24.6705Z" fill="#939496"/>
<path d="M87.0434 22.0755L87.0009 22.3639H85.4936V23.3524H86.8523V23.6202H85.4936V24.6705H87.0434L87.1071 24.9588H85.1964V22.0755H87.0434Z" fill="#939496"/>
<path d="M89.6121 22.8169V22.8581H89.2937V22.7963C89.2937 22.4874 88.9964 22.3227 88.6143 22.3227C88.211 22.3227 87.9137 22.4668 87.9137 22.7758C87.9137 23.5172 89.697 23.0847 89.697 24.135C89.697 24.7529 89.23 25 88.6143 25C87.9774 25 87.5104 24.7529 87.5104 24.1556C87.5104 24.135 87.5104 24.1144 87.5104 24.0732H87.8288C87.8288 24.1144 87.8288 24.135 87.8288 24.1762C87.8288 24.5675 88.1473 24.7117 88.5931 24.7117C89.0389 24.7117 89.3574 24.5675 89.3574 24.1762C89.3574 23.373 87.5741 23.8261 87.5741 22.7963C87.5741 22.2609 88.0199 22.0343 88.5931 22.0343C89.1875 22.0343 89.6121 22.2815 89.6121 22.8169Z" fill="#939496"/>
<path d="M91.2468 22.3639H90.9071V24.6705H91.2468V24.9588H90.249V24.6705H90.5887V22.3639H90.249V22.0755H91.2468V22.3639Z" fill="#939496"/>
<path d="M94.1128 23.0847H93.7943C93.7943 22.5286 93.4546 22.3227 92.9876 22.3227C92.4781 22.3227 92.1596 22.5904 92.1596 23.373V23.6613C92.1596 24.4439 92.4781 24.7117 92.9876 24.7117C93.4546 24.7117 93.7943 24.5057 93.7943 23.8879V23.7437H92.8814V23.476H94.1128V24.4439C94.1128 24.7117 94.134 24.897 94.134 24.9588H93.9429L93.858 24.5881C93.6669 24.8764 93.3697 25 93.0088 25H92.9876C92.3082 25 91.8412 24.6293 91.8412 23.6407V23.4142C91.8412 22.4256 92.3082 22.0549 92.9876 22.0549H93.0088C93.6245 22.0343 94.1128 22.3638 94.1128 23.0847Z" fill="#939496"/>
<path d="M96.5118 24.0938L96.6816 24.3616H96.7028V22.0755H97V24.9382H96.724L95.3229 22.8581L95.1955 22.6522H95.1743V24.9382H94.8771V22.0755H95.1531L96.5118 24.0938Z" fill="#939496"/>
</g>
<path d="M108.412 21.8133C108.514 21.9297 108.624 22.0221 108.744 22.0904C108.868 22.1586 109.023 22.1928 109.209 22.1928C109.289 22.1928 109.368 22.1847 109.448 22.1687C109.532 22.1526 109.607 22.1265 109.674 22.0904C109.74 22.0542 109.793 22.01 109.833 21.9578C109.873 21.9016 109.893 21.8353 109.893 21.759C109.893 21.6827 109.873 21.6205 109.833 21.5723C109.798 21.5241 109.749 21.4839 109.687 21.4518C109.625 21.4157 109.554 21.3876 109.475 21.3675C109.395 21.3474 109.313 21.3293 109.229 21.3133C109.083 21.2851 108.943 21.253 108.81 21.2169C108.677 21.1807 108.56 21.1345 108.458 21.0783C108.361 21.0181 108.281 20.9418 108.219 20.8494C108.162 20.757 108.133 20.6386 108.133 20.494C108.133 20.3574 108.166 20.2369 108.232 20.1325C108.299 20.0281 108.387 19.9418 108.498 19.8735C108.609 19.8052 108.733 19.753 108.87 19.7169C109.007 19.6807 109.149 19.6627 109.295 19.6627C109.517 19.6627 109.72 19.7028 109.906 19.7831C110.097 19.8635 110.245 19.994 110.351 20.1747L109.92 20.4337C109.853 20.3333 109.765 20.253 109.654 20.1928C109.548 20.1285 109.417 20.0964 109.262 20.0964C109.191 20.0964 109.118 20.1044 109.043 20.1205C108.972 20.1365 108.908 20.1606 108.85 20.1928C108.793 20.2249 108.744 20.2671 108.704 20.3193C108.669 20.3675 108.651 20.4237 108.651 20.488C108.651 20.5482 108.671 20.6004 108.711 20.6446C108.755 20.6847 108.813 20.7209 108.883 20.753C108.959 20.7851 109.043 20.8133 109.136 20.8373C109.233 20.8614 109.333 20.8815 109.435 20.8976C109.572 20.9217 109.703 20.9538 109.827 20.994C109.951 21.0301 110.059 21.0803 110.152 21.1446C110.245 21.2088 110.318 21.2892 110.371 21.3855C110.424 21.4819 110.451 21.6004 110.451 21.741C110.451 21.9016 110.415 22.0382 110.345 22.1506C110.274 22.2631 110.179 22.3554 110.059 22.4277C109.944 22.496 109.811 22.5462 109.661 22.5783C109.514 22.6104 109.364 22.6265 109.209 22.6265C108.943 22.6265 108.713 22.5904 108.518 22.5181C108.328 22.4418 108.155 22.3032 108 22.1024L108.412 21.8133Z" fill="#939496"/>
<path d="M111.041 18H111.559V20.9759L112.973 19.7349H113.711L112.21 21.0181L113.863 22.5542H113.1L111.559 21.0723V22.5542H111.041V18Z" fill="#939496"/>
<path d="M114.189 20.0964C114.348 19.9478 114.537 19.8394 114.754 19.7711C114.975 19.6988 115.199 19.6627 115.424 19.6627C115.885 19.6627 116.217 19.761 116.421 19.9578C116.624 20.1546 116.726 20.4538 116.726 20.8554V22.0663C116.726 22.1466 116.731 22.2309 116.739 22.3193C116.748 22.4036 116.759 22.4819 116.773 22.5542H116.275C116.257 22.49 116.246 22.4197 116.241 22.3434C116.241 22.2631 116.241 22.1928 116.241 22.1325H116.228C116.126 22.2771 115.989 22.3956 115.816 22.488C115.648 22.5803 115.444 22.6265 115.205 22.6265C115.046 22.6265 114.895 22.6084 114.754 22.5723C114.616 22.5361 114.494 22.4839 114.388 22.4157C114.286 22.3434 114.204 22.255 114.142 22.1506C114.08 22.0462 114.049 21.9257 114.049 21.7892C114.049 21.5562 114.116 21.3735 114.249 21.241C114.382 21.1084 114.545 21.01 114.74 20.9458C114.94 20.8815 115.152 20.8414 115.378 20.8253C115.608 20.8092 115.818 20.8012 116.009 20.8012H116.208V20.7169C116.208 20.512 116.139 20.3574 116.002 20.253C115.869 20.1486 115.681 20.0964 115.438 20.0964C115.269 20.0964 115.103 20.1225 114.939 20.1747C114.78 20.2229 114.638 20.2992 114.514 20.4036L114.189 20.0964ZM115.69 21.1988C115.358 21.1988 115.094 21.241 114.9 21.3253C114.705 21.4096 114.607 21.5482 114.607 21.741C114.607 21.9177 114.672 22.0442 114.8 22.1205C114.933 22.1928 115.097 22.2289 115.292 22.2289C115.442 22.2289 115.573 22.2068 115.683 22.1627C115.799 22.1145 115.894 22.0522 115.969 21.9759C116.044 21.8996 116.102 21.8112 116.142 21.7108C116.182 21.6064 116.204 21.496 116.208 21.3795V21.1988H115.69Z" fill="#939496"/>
<path d="M117.587 18H118.105V22.5542H117.587V18Z" fill="#939496"/>
<path d="M119.435 21.8675C119.545 21.8675 119.638 21.9036 119.714 21.9759C119.793 22.0442 119.833 22.1285 119.833 22.2289C119.833 22.3293 119.791 22.4157 119.707 22.488C119.627 22.5562 119.537 22.5904 119.435 22.5904C119.333 22.5904 119.24 22.5562 119.156 22.488C119.076 22.4157 119.036 22.3293 119.036 22.2289C119.036 22.1285 119.074 22.0442 119.149 21.9759C119.229 21.9036 119.324 21.8675 119.435 21.8675Z" fill="#939496"/>
<path d="M123.303 22.0542H123.289C123.192 22.2149 123.037 22.3514 122.824 22.4639C122.616 22.5723 122.373 22.6265 122.094 22.6265C121.877 22.6265 121.673 22.5904 121.483 22.5181C121.292 22.4418 121.126 22.3373 120.985 22.2048C120.847 22.0723 120.739 21.9157 120.659 21.7349C120.579 21.5542 120.539 21.3574 120.539 21.1446C120.539 20.9317 120.579 20.7349 120.659 20.5542C120.739 20.3735 120.849 20.2169 120.991 20.0843C121.133 19.9518 121.303 19.8494 121.503 19.7771C121.706 19.7008 121.93 19.6627 122.173 19.6627C122.399 19.6627 122.605 19.7048 122.791 19.7892C122.982 19.8735 123.148 19.992 123.289 20.1446H123.303V18H123.821V22.5542H123.303V22.0542ZM123.303 21.1446C123.303 20.996 123.276 20.8594 123.223 20.7349C123.174 20.6064 123.101 20.496 123.004 20.4036C122.906 20.3072 122.789 20.2329 122.652 20.1807C122.519 20.1245 122.368 20.0964 122.2 20.0964C122.032 20.0964 121.879 20.1245 121.742 20.1807C121.609 20.2329 121.494 20.3072 121.396 20.4036C121.299 20.496 121.224 20.6064 121.17 20.7349C121.122 20.8594 121.097 20.996 121.097 21.1446C121.097 21.2932 121.122 21.4317 121.17 21.5602C121.224 21.6847 121.299 21.7952 121.396 21.8916C121.494 21.9839 121.609 22.0582 121.742 22.1145C121.879 22.1667 122.032 22.1928 122.2 22.1928C122.368 22.1928 122.519 22.1667 122.652 22.1145C122.789 22.0582 122.906 21.9839 123.004 21.8916C123.101 21.7952 123.174 21.6847 123.223 21.5602C123.276 21.4317 123.303 21.2932 123.303 21.1446Z" fill="#939496"/>
<path d="M127.423 22.0422C127.237 22.259 127.033 22.4116 126.812 22.5C126.59 22.5843 126.334 22.6265 126.041 22.6265C125.798 22.6265 125.579 22.5884 125.384 22.512C125.189 22.4317 125.023 22.3253 124.886 22.1928C124.753 22.0602 124.649 21.9036 124.573 21.7229C124.503 21.5422 124.467 21.3494 124.467 21.1446C124.467 20.9277 124.507 20.7289 124.587 20.5482C124.666 20.3635 124.777 20.2068 124.919 20.0783C125.06 19.9458 125.229 19.8434 125.424 19.7711C125.618 19.6988 125.831 19.6627 126.061 19.6627C126.278 19.6627 126.477 19.6968 126.659 19.7651C126.841 19.8293 126.996 19.9257 127.124 20.0542C127.257 20.1787 127.359 20.3333 127.429 20.5181C127.5 20.6988 127.536 20.9056 127.536 21.1386V21.2892H125.025C125.034 21.4096 125.065 21.5261 125.118 21.6386C125.176 21.747 125.249 21.8434 125.337 21.9277C125.426 22.008 125.53 22.0723 125.649 22.1205C125.769 22.1687 125.9 22.1928 126.041 22.1928C126.267 22.1928 126.458 22.1566 126.613 22.0843C126.767 22.012 126.907 21.9056 127.031 21.7651L127.423 22.0422ZM126.978 20.8916C126.969 20.6506 126.883 20.4578 126.719 20.3133C126.555 20.1687 126.329 20.0964 126.041 20.0964C125.753 20.0964 125.521 20.1687 125.344 20.3133C125.167 20.4578 125.06 20.6506 125.025 20.8916H126.978Z" fill="#939496"/>
<path d="M128.271 21.8133C128.373 21.9297 128.483 22.0221 128.603 22.0904C128.727 22.1586 128.882 22.1928 129.068 22.1928C129.148 22.1928 129.227 22.1847 129.307 22.1687C129.391 22.1526 129.466 22.1265 129.533 22.0904C129.599 22.0542 129.652 22.01 129.692 21.9578C129.732 21.9016 129.752 21.8353 129.752 21.759C129.752 21.6827 129.732 21.6205 129.692 21.5723C129.657 21.5241 129.608 21.4839 129.546 21.4518C129.484 21.4157 129.413 21.3876 129.334 21.3675C129.254 21.3474 129.172 21.3293 129.088 21.3133C128.942 21.2851 128.802 21.253 128.669 21.2169C128.536 21.1807 128.419 21.1345 128.317 21.0783C128.22 21.0181 128.14 20.9418 128.078 20.8494C128.021 20.757 127.992 20.6386 127.992 20.494C127.992 20.3574 128.025 20.2369 128.091 20.1325C128.158 20.0281 128.246 19.9418 128.357 19.8735C128.468 19.8052 128.592 19.753 128.729 19.7169C128.866 19.6807 129.008 19.6627 129.154 19.6627C129.376 19.6627 129.579 19.7028 129.765 19.7831C129.956 19.8635 130.104 19.994 130.21 20.1747L129.779 20.4337C129.712 20.3333 129.624 20.253 129.513 20.1928C129.407 20.1285 129.276 20.0964 129.121 20.0964C129.05 20.0964 128.977 20.1044 128.902 20.1205C128.831 20.1365 128.767 20.1606 128.709 20.1928C128.652 20.2249 128.603 20.2671 128.563 20.3193C128.528 20.3675 128.51 20.4237 128.51 20.488C128.51 20.5482 128.53 20.6004 128.57 20.6446C128.614 20.6847 128.672 20.7209 128.742 20.753C128.818 20.7851 128.902 20.8133 128.995 20.8373C129.092 20.8614 129.192 20.8815 129.294 20.8976C129.431 20.9217 129.562 20.9538 129.686 20.994C129.81 21.0301 129.918 21.0803 130.011 21.1446C130.104 21.2088 130.177 21.2892 130.23 21.3855C130.283 21.4819 130.31 21.6004 130.31 21.741C130.31 21.9016 130.274 22.0382 130.204 22.1506C130.133 22.2631 130.038 22.3554 129.918 22.4277C129.803 22.496 129.67 22.5462 129.519 22.5783C129.373 22.6104 129.223 22.6265 129.068 22.6265C128.802 22.6265 128.572 22.5904 128.377 22.5181C128.187 22.4418 128.014 22.3032 127.859 22.1024L128.271 21.8133Z" fill="#939496"/>
<path d="M130.946 19.7349H131.464V22.5542H130.946V19.7349ZM130.827 18.6325C130.827 18.5402 130.862 18.4598 130.933 18.3916C131.008 18.3233 131.099 18.2892 131.205 18.2892C131.311 18.2892 131.4 18.3233 131.471 18.3916C131.546 18.4598 131.584 18.5402 131.584 18.6325C131.584 18.7329 131.548 18.8153 131.477 18.8795C131.407 18.9438 131.316 18.9759 131.205 18.9759C131.094 18.9759 131.004 18.9438 130.933 18.8795C130.862 18.8153 130.827 18.7329 130.827 18.6325Z" fill="#939496"/>
<path d="M135.464 22.4277C135.464 22.9418 135.318 23.3313 135.026 23.5964C134.738 23.8655 134.32 24 133.771 24C133.465 24 133.188 23.9598 132.94 23.8795C132.697 23.7992 132.464 23.6606 132.243 23.4639L132.615 23.0783C132.779 23.239 132.951 23.3594 133.133 23.4398C133.319 23.5241 133.531 23.5663 133.771 23.5663C134.001 23.5663 134.191 23.5341 134.342 23.4699C134.497 23.4096 134.618 23.3253 134.707 23.2169C134.796 23.1124 134.858 22.992 134.893 22.8554C134.928 22.7189 134.946 22.5763 134.946 22.4277V22.0663H134.933C134.809 22.247 134.647 22.3795 134.448 22.4639C134.249 22.5482 134.045 22.5904 133.837 22.5904C133.593 22.5904 133.37 22.5542 133.166 22.4819C132.962 22.4096 132.787 22.3092 132.641 22.1807C132.495 22.0522 132.382 21.8996 132.303 21.7229C132.223 21.5462 132.183 21.3534 132.183 21.1446C132.183 20.9157 132.223 20.7088 132.303 20.5241C132.382 20.3394 132.493 20.1847 132.635 20.0602C132.781 19.9317 132.956 19.8333 133.159 19.7651C133.363 19.6968 133.589 19.6627 133.837 19.6627C133.943 19.6627 134.049 19.6747 134.156 19.6988C134.262 19.7189 134.364 19.753 134.461 19.8012C134.563 19.8454 134.654 19.9036 134.734 19.9759C134.813 20.0442 134.88 20.1245 134.933 20.2169H134.946V19.7349H135.464V22.4277ZM132.741 21.1446C132.741 21.2892 132.77 21.4237 132.827 21.5482C132.885 21.6687 132.962 21.7751 133.06 21.8675C133.162 21.9558 133.279 22.0261 133.412 22.0783C133.545 22.1305 133.686 22.1566 133.837 22.1566C134.014 22.1566 134.171 22.1285 134.309 22.0723C134.446 22.0161 134.561 21.9418 134.654 21.8494C134.751 21.753 134.824 21.6446 134.873 21.5241C134.922 21.3996 134.946 21.2691 134.946 21.1325C134.946 20.9799 134.92 20.8414 134.866 20.7169C134.813 20.5884 134.738 20.4779 134.641 20.3855C134.543 20.2932 134.426 20.2229 134.289 20.1747C134.151 20.1225 134.001 20.0964 133.837 20.0964C133.673 20.0964 133.523 20.1245 133.385 20.1807C133.252 20.2329 133.137 20.3072 133.04 20.4036C132.947 20.496 132.874 20.6064 132.821 20.7349C132.768 20.8594 132.741 20.996 132.741 21.1446Z" fill="#939496"/>
<path d="M136.29 20.4036C136.29 20.2751 136.286 20.1546 136.277 20.0422C136.268 19.9297 136.263 19.8273 136.263 19.7349H136.755C136.755 19.8112 136.757 19.8876 136.762 19.9639C136.766 20.0402 136.768 20.1185 136.768 20.1988H136.782C136.817 20.1305 136.866 20.0643 136.928 20C136.994 19.9357 137.072 19.8795 137.16 19.8313C137.249 19.7791 137.348 19.739 137.459 19.7108C137.57 19.6787 137.689 19.6627 137.818 19.6627C138.021 19.6627 138.196 19.6908 138.342 19.747C138.493 19.8032 138.617 19.8815 138.714 19.9819C138.812 20.0823 138.883 20.2048 138.927 20.3494C138.976 20.49 139 20.6446 139 20.8133V22.5542H138.482V20.8614C138.482 20.6245 138.424 20.4378 138.309 20.3012C138.194 20.1647 138.015 20.0964 137.771 20.0964C137.603 20.0964 137.457 20.1225 137.333 20.1747C137.213 20.2269 137.114 20.3012 137.034 20.3976C136.959 20.494 136.901 20.6084 136.861 20.741C136.826 20.8735 136.808 21.0201 136.808 21.1807V22.5542H136.29V20.4036Z" fill="#939496"/>
<defs>
<clipPath id="clip0">
<rect x="49" y="16" width="48" height="9" fill="white"/>
</clipPath>
</defs>
</svg>
