<svg width="89" height="101" viewBox="0 0 89 101" fill="none" xmlns="http://www.w3.org/2000/svg">
<g clip-path="url(#clip0)">
<path d="M88.9999 31.069L80.123 21.2629H71.8874V31.069H79.4508V39.5503H59.6342V31.6899L50.08 21.889H46.0059V31.6899H50.08V42.2826L59.6342 49.3512H79.4508L88.9999 39.5503V31.069Z" fill="white"/>
<path d="M43.9176 0L33.1832 9.8009H33.1884V55.949H9.55422V31.6899H30.084V21.889H9.55422L0 31.7003V55.949L9.39003 65.7499H33.5065L42.5784 55.949H42.7426V9.8009H89V0H43.9176Z" fill="white"/>
<path d="M9.70849 80.1252V81.4499C9.70849 84.7514 7.36868 86.5988 4.57732 86.5988H0.195312V74.9764H4.56706C7.36868 74.9764 9.70849 76.8237 9.70849 80.1252ZM2.80194 84.5134H4.56706C5.94221 84.5134 6.98384 83.5974 6.98384 81.8225V79.7526C6.98384 77.9725 5.95761 77.0566 4.56706 77.0566H2.80194V84.5134Z" fill="white"/>
<path d="M19.837 74.9764L19.5496 77.0463H14.2748V79.5922H19.2007V81.6621H14.2748V84.4927H19.6009L19.8883 86.5625H11.7246V74.9764H19.837Z" fill="white"/>
<path d="M34.8916 79.111H32.4389C32.4389 77.5586 31.4127 76.891 30.1863 76.891C28.8266 76.891 27.7849 77.8069 27.7849 79.5819V81.9881C27.7849 83.7682 28.8933 84.6841 30.2376 84.6841C31.4999 84.6841 32.4543 83.9545 32.4543 82.5004V82.1744H29.8528V80.2805H34.8916V84.296C34.8916 85.6518 34.9942 86.5988 34.9942 86.5988H33.5678L33.1624 85.2948C32.7642 85.7679 32.2667 86.1457 31.7058 86.4007C31.1449 86.6558 30.5347 86.7818 29.9195 86.7696H29.8374C27.0615 86.7696 25.0654 84.7876 25.0654 81.5948V79.9338C25.0654 76.7668 27.1641 74.7849 30.1042 74.7849H30.3403C32.8391 74.8056 34.8916 76.4822 34.8916 79.111Z" fill="white"/>
<path d="M46.2525 77.957C46.2445 78.6037 46.0448 79.2332 45.679 79.7644C45.3132 80.2956 44.7981 80.7042 44.2001 80.9376V81.0256C44.7578 81.229 45.2372 81.6056 45.5691 82.1013C45.9011 82.5969 46.0685 83.186 46.0473 83.7837C46.0473 84.5289 46.1499 85.6828 46.9042 85.9209V86.4953C46.4399 86.6526 45.9521 86.7279 45.4623 86.7178C44.472 86.7178 43.5279 86.309 43.5279 84.8704C43.5279 83.5146 43.2251 82.1226 41.732 82.1226H39.7667V86.5988H37.2012V74.9764H42.4196C44.3181 74.9764 46.2525 75.7526 46.2525 77.957ZM39.7667 77.0566V80.0735H42.2861C43.061 80.0735 43.6305 79.23 43.6305 78.3296C43.641 78.1601 43.6156 77.9903 43.5562 77.8315C43.4968 77.6726 43.4047 77.5283 43.2858 77.408C43.167 77.2876 43.0243 77.1941 42.867 77.1336C42.7097 77.073 42.5415 77.0468 42.3734 77.0566H39.7667Z" fill="white"/>
<path d="M55.109 84.3116H50.5218L49.7162 86.5988H47.207L51.3889 74.9764H54.4676L58.6495 86.5988H55.93L55.109 84.3116ZM52.8513 77.7707H52.7692L51.2299 82.3296H54.4215L52.8513 77.7707Z" fill="white"/>
<path d="M65.7453 80.3633L66.6689 81.8536L66.7202 81.8018V74.9764H69.0856V86.5988H66.8844L63.2926 81.243L62.3689 79.7371L62.3022 79.7889V86.5988H59.9316V74.9764H62.1329L65.7453 80.3633Z" fill="white"/>
<path d="M81.0361 80.1252V81.4499C81.0361 84.7514 78.6963 86.5988 75.9049 86.5988H71.5332V74.9764H75.9049C78.6963 74.9764 81.0361 76.8237 81.0361 80.1252ZM74.1296 84.5134H75.8947C77.2698 84.5134 78.3115 83.5974 78.3115 81.8225V79.7526C78.3115 77.9725 77.2852 77.0566 75.8947 77.0566H74.1296V84.5134Z" fill="white"/>
<path d="M88.3584 77.0566H87.014V84.5134H88.3584V86.5833H83.0527V84.5134H84.4125V77.0566H83.0527V74.9867H88.3584V77.0566Z" fill="white"/>
<path d="M6.88975 94.6972V94.8421H6.03797V94.6092C6.03797 93.7088 5.19646 93.2483 4.10866 93.2483C3.02085 93.2483 2.12803 93.6519 2.12803 94.5627C2.12803 96.705 7.13604 95.4527 7.13604 98.5161C7.13604 100.343 5.84812 101.026 4.10866 101.026C2.36919 101.026 1.02996 100.317 1.02996 98.5782C1.02517 98.5007 1.02517 98.4229 1.02996 98.3454H1.93304C1.92538 98.447 1.92538 98.5491 1.93304 98.6507C1.93304 99.7684 2.85152 100.203 4.09326 100.203C5.335 100.203 6.26887 99.7632 6.26887 98.6507C6.26887 96.291 1.26086 97.6157 1.26086 94.6248C1.26086 93.0723 2.53852 92.4255 4.09326 92.4255C5.70445 92.41 6.88975 93.1137 6.88975 94.6972Z" fill="white"/>
<path d="M14.4991 92.529V93.3466H11.7949V100.876H10.9021V93.3466H8.20312V92.529H14.4991Z" fill="white"/>
<path d="M16.865 92.529V98.1746C16.8517 98.4472 16.8963 98.7194 16.9956 98.9733C17.0949 99.2271 17.2467 99.4567 17.4409 99.6467C17.6352 99.8367 17.8673 99.9827 18.1219 100.075C18.3765 100.167 18.6477 100.204 18.9175 100.182C19.1876 100.206 19.4595 100.17 19.7149 100.079C19.9703 99.9869 20.2031 99.8409 20.3977 99.6505C20.5923 99.4602 20.7441 99.2299 20.8428 98.9753C20.9415 98.7206 20.9849 98.4476 20.9699 98.1746V92.529H21.8935V98.2212C21.8935 99.8978 20.7339 101.021 18.9842 101.021H18.8662C17.1164 101.021 15.9619 99.9237 15.9619 98.2212V92.529H16.865Z" fill="white"/>
<path d="M30.3026 96.4255V96.9844C30.3026 99.7218 28.9018 100.876 26.9827 100.876H24.2324V92.529H26.9827C28.9018 92.529 30.3026 93.6622 30.3026 96.4255ZM25.1252 100.048H26.9827C28.3938 100.048 29.3944 99.2665 29.3944 97.0258V96.3479C29.3944 94.1694 28.4297 93.3311 26.9827 93.3311H25.1252V100.048Z" fill="white"/>
<path d="M34.6796 93.3569H33.7149V100.048H34.6796V100.876H31.8574V100.048H32.8221V93.3569H31.8574V92.529H34.6796V93.3569Z" fill="white"/>
<path d="M35.918 97.0414V96.3635C35.918 93.476 37.3496 92.41 39.1763 92.41H39.2481C41.1261 92.41 42.5269 93.5019 42.5269 96.3635V97.0414C42.5269 99.903 41.1261 101 39.2686 101H39.1968C37.3393 101 35.918 99.9288 35.918 97.0414ZM41.6341 97.119V96.291C41.6341 94.0038 40.6592 93.2224 39.2224 93.2224C37.7857 93.2224 36.8108 93.9883 36.8108 96.291V97.119C36.8108 99.4062 37.7857 100.182 39.2224 100.182C40.6592 100.182 41.6443 99.4269 41.6443 97.119H41.6341Z" fill="white"/>
<path d="M53.61 96.4255V96.9844C53.61 99.7218 52.2143 100.876 50.2952 100.876H47.5449V92.529H50.285C52.2143 92.529 53.61 93.6622 53.61 96.4255ZM48.4377 100.048H50.285C51.696 100.048 52.6966 99.2665 52.6966 97.0258V96.3479C52.6966 94.1694 51.7319 93.3311 50.285 93.3311H48.4377V100.048Z" fill="white"/>
<path d="M60.9225 92.529L60.7891 93.3466H56.5559V96.203H60.3427V97.0206H56.5559V100.063H60.8763L61.0303 100.876H55.6631V92.529H60.9225Z" fill="white"/>
<path d="M68.1261 94.6972V94.8421H67.2538V94.6092C67.2538 93.7088 66.4123 93.2483 65.3245 93.2483C64.2367 93.2483 63.3438 93.6519 63.3438 94.5627C63.3438 96.705 68.3518 95.4527 68.3518 98.5161C68.3518 100.343 67.0639 101.026 65.3245 101.026C63.585 101.026 62.2458 100.317 62.2458 98.5782C62.241 98.5007 62.241 98.4229 62.2458 98.3454H63.1283C63.1207 98.447 63.1207 98.5491 63.1283 98.6507C63.1283 99.7684 64.0468 100.203 65.2885 100.203C66.5303 100.203 67.4641 99.7632 67.4641 98.6507C67.4641 96.291 62.4562 97.6157 62.4562 94.6248C62.4562 93.0723 63.7338 92.4255 65.2885 92.4255C66.9408 92.41 68.1261 93.1137 68.1261 94.6972Z" fill="white"/>
<path d="M72.7089 93.3569H71.7442V100.048H72.7089V100.876H69.8867V100.048H70.8514V93.3569H69.8867V92.529H72.7089V93.3569Z" fill="white"/>
<path d="M80.7083 95.4372H79.8258C79.8258 93.8175 78.8611 93.2224 77.5937 93.2224C76.1673 93.2224 75.2539 93.9883 75.2539 96.291V97.119C75.2539 99.4062 76.157 100.182 77.5937 100.182C78.9227 100.182 79.8514 99.6132 79.8514 97.7606V97.3466H77.2858V96.5446H80.7289V99.3803C80.7289 100.146 80.7853 100.705 80.8007 100.876H80.2465L80.0259 99.8409C79.7674 100.231 79.4118 100.545 78.9948 100.752C78.5778 100.959 78.114 101.052 77.6502 101.021H77.5886C75.6695 101.021 74.3662 99.934 74.3662 97.062V96.3842C74.3662 93.5122 75.6695 92.4307 77.604 92.4307H77.6604C79.3434 92.41 80.7083 93.3311 80.7083 95.4372Z" fill="white"/>
<path d="M87.4713 98.3712L87.9844 99.1733H88.0203V92.529H88.8259V100.876H88.0563L84.1104 94.8266L83.7255 94.2108H83.6896V100.876H82.8789V92.529H83.6383L87.4713 98.3712Z" fill="white"/>
</g>
<defs>
<clipPath id="clip0">
<rect width="89" height="101" fill="white"/>
</clipPath>
</defs>
</svg>
