<svg width="103" height="28" viewBox="0 0 103 28" fill="none" xmlns="http://www.w3.org/2000/svg">
<g clip-path="url(#clip0)">
<path fill-rule="evenodd" clip-rule="evenodd" d="M8.74226 0.876221L4.37231 9.29108L1.66906 17.1896L-0.000217438 26.4378L8.74226 22.0719L15.8155 17.1896L22.8887 10.6382L13.1122 9.29108L8.74226 0.876221Z" stroke="#9BABBF" stroke-linecap="round" stroke-linejoin="round"/>
<path d="M48.8899 18.0242H51.8899V18.8762H47.7979V10.4162H48.8899V18.0242ZM56.989 12.2042C57.621 12.2042 58.185 12.3402 58.681 12.6122C59.185 12.8842 59.577 13.2762 59.857 13.7882C60.145 14.3002 60.289 14.9002 60.289 15.5882C60.289 16.2762 60.145 16.8762 59.857 17.3882C59.577 17.8922 59.185 18.2802 58.681 18.5522C58.185 18.8242 57.621 18.9602 56.989 18.9602C56.357 18.9602 55.789 18.8242 55.285 18.5522C54.789 18.2802 54.397 17.8922 54.109 17.3882C53.821 16.8762 53.677 16.2762 53.677 15.5882C53.677 14.9002 53.821 14.3002 54.109 13.7882C54.397 13.2762 54.789 12.8842 55.285 12.6122C55.789 12.3402 56.357 12.2042 56.989 12.2042ZM56.989 13.1642C56.597 13.1642 56.233 13.2522 55.897 13.4282C55.569 13.6042 55.301 13.8762 55.093 14.2442C54.893 14.6042 54.793 15.0522 54.793 15.5882C54.793 16.1162 54.893 16.5642 55.093 16.9322C55.301 17.2922 55.569 17.5602 55.897 17.7362C56.233 17.9122 56.597 18.0002 56.989 18.0002C57.381 18.0002 57.741 17.9122 58.069 17.7362C58.405 17.5602 58.673 17.2922 58.873 16.9322C59.081 16.5642 59.185 16.1162 59.185 15.5882C59.185 15.0522 59.081 14.6042 58.873 14.2442C58.673 13.8762 58.405 13.6042 58.069 13.4282C57.741 13.2522 57.381 13.1642 56.989 13.1642ZM65.4119 12.2042C66.0519 12.2042 66.5919 12.3642 67.0319 12.6842C67.4799 13.0042 67.7919 13.4322 67.9679 13.9682V12.2882H69.0599V18.9842C69.0599 19.5922 68.9319 20.1322 68.6759 20.6042C68.4199 21.0762 68.0599 21.4442 67.5959 21.7082C67.1319 21.9722 66.5919 22.1042 65.9759 22.1042C65.0879 22.1042 64.3639 21.8882 63.8039 21.4562C63.2439 21.0322 62.8879 20.4562 62.7359 19.7282H63.8159C63.9439 20.1682 64.1839 20.5122 64.5359 20.7602C64.8959 21.0162 65.3559 21.1442 65.9159 21.1442C66.5079 21.1442 66.9959 20.9522 67.3799 20.5682C67.7719 20.1922 67.9679 19.6642 67.9679 18.9842V17.1962C67.7919 17.7322 67.4799 18.1602 67.0319 18.4802C66.5919 18.8002 66.0519 18.9602 65.4119 18.9602C64.8279 18.9602 64.3079 18.8242 63.8519 18.5522C63.3959 18.2802 63.0359 17.8922 62.7719 17.3882C62.5159 16.8762 62.3879 16.2762 62.3879 15.5882C62.3879 14.9002 62.5159 14.3002 62.7719 13.7882C63.0359 13.2762 63.3959 12.8842 63.8519 12.6122C64.3079 12.3402 64.8279 12.2042 65.4119 12.2042ZM65.7239 13.1762C65.0519 13.1762 64.5119 13.3922 64.1039 13.8242C63.7039 14.2482 63.5039 14.8362 63.5039 15.5882C63.5039 16.3402 63.7039 16.9322 64.1039 17.3642C64.5119 17.7882 65.0519 18.0002 65.7239 18.0002C66.1559 18.0002 66.5399 17.9002 66.8759 17.7002C67.2199 17.5002 67.4879 17.2202 67.6799 16.8602C67.8719 16.4922 67.9679 16.0682 67.9679 15.5882C67.9679 15.1082 67.8719 14.6842 67.6799 14.3162C67.4879 13.9482 67.2199 13.6682 66.8759 13.4762C66.5399 13.2762 66.1559 13.1762 65.7239 13.1762ZM74.7859 12.2042C75.4179 12.2042 75.9819 12.3402 76.4779 12.6122C76.9819 12.8842 77.3739 13.2762 77.6539 13.7882C77.9419 14.3002 78.0859 14.9002 78.0859 15.5882C78.0859 16.2762 77.9419 16.8762 77.6539 17.3882C77.3739 17.8922 76.9819 18.2802 76.4779 18.5522C75.9819 18.8242 75.4179 18.9602 74.7859 18.9602C74.1539 18.9602 73.5859 18.8242 73.0819 18.5522C72.5859 18.2802 72.1939 17.8922 71.9059 17.3882C71.6179 16.8762 71.4739 16.2762 71.4739 15.5882C71.4739 14.9002 71.6179 14.3002 71.9059 13.7882C72.1939 13.2762 72.5859 12.8842 73.0819 12.6122C73.5859 12.3402 74.1539 12.2042 74.7859 12.2042ZM74.7859 13.1642C74.3939 13.1642 74.0299 13.2522 73.6939 13.4282C73.3659 13.6042 73.0979 13.8762 72.8899 14.2442C72.6899 14.6042 72.5899 15.0522 72.5899 15.5882C72.5899 16.1162 72.6899 16.5642 72.8899 16.9322C73.0979 17.2922 73.3659 17.5602 73.6939 17.7362C74.0299 17.9122 74.3939 18.0002 74.7859 18.0002C75.1779 18.0002 75.5379 17.9122 75.8659 17.7362C76.2019 17.5602 76.4699 17.2922 76.6699 16.9322C76.8779 16.5642 76.9819 16.1162 76.9819 15.5882C76.9819 15.0522 76.8779 14.6042 76.6699 14.2442C76.4699 13.8762 76.2019 13.6042 75.8659 13.4282C75.5379 13.2522 75.1779 13.1642 74.7859 13.1642ZM86.3648 12.2882V18.8762H85.2728V17.3282C85.1048 17.8642 84.8048 18.2762 84.3728 18.5642C83.9488 18.8442 83.4528 18.9842 82.8848 18.9842C82.1248 18.9842 81.5088 18.7402 81.0368 18.2522C80.5648 17.7562 80.3288 17.0482 80.3288 16.1282V12.2882H81.4208V16.0202C81.4208 16.6762 81.5888 17.1842 81.9248 17.5442C82.2608 17.8962 82.7168 18.0722 83.2928 18.0722C83.8928 18.0722 84.3728 17.8802 84.7328 17.4962C85.0928 17.1042 85.2728 16.5362 85.2728 15.7922V12.2882H86.3648ZM92.2583 17.9162V18.8762H91.4423C90.7703 18.8762 90.2663 18.7162 89.9303 18.3962C89.6023 18.0762 89.4383 17.5402 89.4383 16.7882V13.2362H88.4543V12.2882H89.4383V10.6442H90.5423V12.2882H92.2463V13.2362H90.5423V16.8122C90.5423 17.2362 90.6183 17.5282 90.7703 17.6882C90.9303 17.8402 91.2023 17.9162 91.5863 17.9162H92.2583Z" fill="#9BABBF"/>
</g>
<defs>
<clipPath id="clip0">
<rect y="0.876221" width="103" height="26.1593" fill="white"/>
</clipPath>
</defs>
</svg>
