<svg width="296" height="21" viewBox="0 0 296 21" fill="none" xmlns="http://www.w3.org/2000/svg">
<path d="M3.705 15C4.992 15 5.772 14.831 6.461 14.272C7.176 13.7 7.501 12.608 7.501 10.905V10.307C7.501 8.526 7.176 7.382 6.487 6.771C5.798 6.16 5.005 5.978 3.744 5.978H1.066V15H3.705ZM2.262 6.979H3.796C4.745 6.979 5.395 7.2 5.746 7.655C6.097 8.11 6.279 8.955 6.279 10.19V11.009C6.279 12.309 6.149 13.05 5.72 13.479C5.304 13.895 4.784 13.999 3.796 13.999H2.262V6.979ZM9.63148 12.075H13.6485V10.866C13.6485 9.111 12.8555 8.318 11.0875 8.318C9.33248 8.318 8.46148 9.176 8.46148 10.892V12.426C8.46148 14.181 9.43648 15.182 11.1395 15.182C12.0365 15.182 12.7905 15.013 13.4015 14.688V13.765C13.3105 13.83 13.0505 13.973 12.3745 14.129C12.0365 14.194 11.6855 14.233 11.3345 14.233C10.2945 14.233 9.63148 13.609 9.63148 12.556V12.075ZM12.5435 11.204H9.63148V10.749C9.63148 9.748 10.1125 9.241 11.0875 9.241C12.0625 9.241 12.5435 9.748 12.5435 10.762V11.204ZM16.9003 15.169C18.6813 15.169 19.4613 14.571 19.4613 13.232C19.4613 12.257 19.0583 11.685 17.9143 11.438L16.3543 11.074C15.8343 10.97 15.5743 10.684 15.5743 10.229C15.5743 9.54 15.8993 9.267 16.8873 9.267C17.8623 9.267 18.2653 9.592 18.2653 10.359V10.671H19.3573V10.333C19.3443 8.929 18.6033 8.318 16.8873 8.318C15.2883 8.318 14.4953 8.968 14.4953 10.255C14.4953 11.334 15.0153 11.854 16.1723 12.114L17.3683 12.374C18.1093 12.517 18.3823 12.777 18.3823 13.297C18.3823 13.973 18.0443 14.246 16.9133 14.246C15.8603 14.246 15.4833 13.934 15.4833 13.349V13.076H14.4043V13.479C14.4043 14.662 15.1713 15.169 16.9003 15.169ZM21.4706 12.075H25.4876V10.866C25.4876 9.111 24.6946 8.318 22.9266 8.318C21.1716 8.318 20.3006 9.176 20.3006 10.892V12.426C20.3006 14.181 21.2756 15.182 22.9786 15.182C23.8756 15.182 24.6296 15.013 25.2406 14.688V13.765C25.1496 13.83 24.8896 13.973 24.2136 14.129C23.8756 14.194 23.5246 14.233 23.1736 14.233C22.1336 14.233 21.4706 13.609 21.4706 12.556V12.075ZM24.3826 11.204H21.4706V10.749C21.4706 9.748 21.9516 9.241 22.9266 9.241C23.9016 9.241 24.3826 9.748 24.3826 10.762V11.204ZM27.7384 15V10.541C27.7384 9.748 28.4144 9.28 29.3894 9.28C30.2734 9.28 30.6504 9.696 30.6504 10.619V15H31.8204V10.528C31.8204 9.059 31.1574 8.318 29.8444 8.318C28.8694 8.318 28.1674 8.63 27.7124 9.241L27.5304 8.5H26.5684V15H27.7384ZM36.4508 15L38.3098 8.5H37.1008L35.5668 14.181H35.2938L33.7988 8.5H32.5248L34.3578 15H36.4508ZM38.783 12.491C38.783 14.35 39.667 15.182 41.5 15.182C43.333 15.182 44.217 14.35 44.217 12.491V11.022C44.217 9.163 43.333 8.331 41.5 8.331C39.667 8.331 38.783 9.163 38.783 11.022V12.491ZM43.047 12.699C43.047 13.739 42.527 14.259 41.5 14.259C40.473 14.259 39.953 13.739 39.953 12.699V10.814C39.953 9.761 40.473 9.241 41.5 9.241C42.527 9.241 43.047 9.761 43.047 10.814V12.699ZM45.3809 15H46.5509V5.978H45.3809V15ZM51.2769 15L53.1359 8.5H51.9269L50.3929 14.181H50.1199L48.6249 8.5H47.3509L49.1839 15H51.2769ZM55.1149 7.291V6.043H53.9319V7.291H55.1149ZM55.1019 15V8.5H53.9319V15H55.1019ZM60.5169 8.929C60.0619 8.526 59.4769 8.318 58.7489 8.318C57.0199 8.318 56.2919 9.241 56.2919 11.022V12.712C56.2919 14.376 56.9679 15.169 58.5799 15.169C59.4769 15.169 60.1399 14.844 60.5689 14.194L60.8159 15H61.6869V5.978H60.5169V8.929ZM58.9309 14.233C57.9039 14.233 57.4749 13.804 57.4749 12.881V10.814C57.4749 9.735 57.9559 9.28 58.9439 9.28C59.4769 9.28 60.0099 9.462 60.5169 9.826V12.829C60.5169 13.7 59.8539 14.233 58.9309 14.233ZM62.8584 12.491C62.8584 14.35 63.7424 15.182 65.5754 15.182C67.4084 15.182 68.2924 14.35 68.2924 12.491V11.022C68.2924 9.163 67.4084 8.331 65.5754 8.331C63.7424 8.331 62.8584 9.163 62.8584 11.022V12.491ZM67.1224 12.699C67.1224 13.739 66.6024 14.259 65.5754 14.259C64.5484 14.259 64.0284 13.739 64.0284 12.699V10.814C64.0284 9.761 64.5484 9.241 65.5754 9.241C66.6024 9.241 67.1224 9.761 67.1224 10.814V12.699ZM74.9662 8.318C74.0822 8.318 73.4192 8.643 72.9772 9.28L72.7302 8.5H71.8592V17.444H73.0292V14.545C73.5102 14.961 74.0952 15.169 74.7842 15.169C76.5132 15.169 77.2542 14.259 77.2542 12.452V10.788C77.2542 9.124 76.5782 8.318 74.9662 8.318ZM76.0712 12.673C76.0712 13.765 75.5902 14.207 74.6022 14.207C74.0432 14.207 73.5102 14.025 73.0292 13.661V10.671C73.0292 9.787 73.6532 9.28 74.6282 9.28C75.6292 9.28 76.0712 9.696 76.0712 10.619V12.673ZM78.2176 12.491C78.2176 14.35 79.1016 15.182 80.9346 15.182C82.7676 15.182 83.6516 14.35 83.6516 12.491V11.022C83.6516 9.163 82.7676 8.331 80.9346 8.331C79.1016 8.331 78.2176 9.163 78.2176 11.022V12.491ZM82.4816 12.699C82.4816 13.739 81.9616 14.259 80.9346 14.259C79.9076 14.259 79.3876 13.739 79.3876 12.699V10.814C79.3876 9.761 79.9076 9.241 80.9346 9.241C81.9616 9.241 82.4816 9.761 82.4816 10.814V12.699ZM85.9856 15.013V11.633C85.9856 10.125 86.6876 9.514 87.9356 9.462V8.344C87.0126 8.396 86.3626 8.786 85.9596 9.501L85.8036 8.5H84.8156V15.013H85.9856Z" fill="#939496"/>
<path d="M130.921 10.0434L128.129 6.9679H125.527V10.0434H127.893V12.7345H121.693V10.2356L118.712 7.16011H117.434V10.2356H118.712V13.5995L121.693 15.81H127.893L130.921 12.7345V10.0434Z" fill="#939496"/>
<path d="M116.771 0.240234L113.411 3.3638V17.9244H105.981V10.2357H112.418V7.16014H105.981L103 10.2357V17.9244L105.934 21H113.506L116.345 17.9244H116.393V3.3638H130.921V0.240234H116.771Z" fill="#939496"/>
<path d="M147.059 4.27689V5.3341C147.059 7.97712 145.213 9.46682 142.989 9.46682H139.534V0.144165H142.989C145.213 0.144165 147.059 1.63387 147.059 4.27689ZM141.569 7.7849H142.989C144.077 7.7849 144.929 7.06407 144.929 5.62243V3.9405C144.929 2.49886 144.077 1.77803 142.989 1.77803H141.569V7.7849Z" fill="#939496"/>
<path d="M155.151 0.144165L154.914 1.82609H150.702V3.84439H154.63V5.52632H150.702V7.7849H154.962L155.198 9.46682H148.667V0.144165H155.151Z" fill="#939496"/>
<path d="M167.124 3.45995H165.184C165.184 2.21053 164.332 1.68192 163.386 1.68192C162.297 1.68192 161.493 2.40275 161.493 3.84439V5.76659C161.493 7.20824 162.392 7.92906 163.433 7.92906C164.427 7.92906 165.184 7.3524 165.184 6.19908V5.95881H163.102V4.373H167.124V7.59268C167.124 8.69794 167.219 9.41876 167.219 9.41876H166.083L165.752 8.36156C165.184 9.08238 164.238 9.56293 163.149 9.56293H163.102C160.878 9.56293 159.316 7.97712 159.316 5.43021V4.13272C159.316 1.58581 160.972 0 163.338 0H163.528C165.468 0 167.124 1.34554 167.124 3.45995Z" fill="#939496"/>
<path d="M176.163 2.54691C176.163 3.70023 175.406 4.56522 174.507 4.94966V4.99771C175.169 5.23799 175.974 5.95881 175.974 7.20824C175.974 7.7849 176.068 8.746 176.636 8.93822V9.41877C176.352 9.56293 175.879 9.61098 175.5 9.61098C174.696 9.61098 173.986 9.2746 173.986 8.12128C173.986 7.01602 173.749 5.91076 172.566 5.91076H171.005V9.51487H168.97V0.144165H173.134C174.601 0.144165 176.163 0.768879 176.163 2.54691ZM171.005 1.82609V4.22883H172.992C173.607 4.22883 174.081 3.55606 174.081 2.83524C174.081 2.25858 173.702 1.82609 173.087 1.82609H171.005Z" fill="#939496"/>
<path d="M183.167 7.59276H179.523L178.861 9.41885H176.873L180.186 0.0961914H182.647L185.959 9.41885H183.782L183.167 7.59276ZM181.416 2.35477H181.369L180.138 6.00695H182.694L181.416 2.35477Z" fill="#939496"/>
<path d="M191.638 4.46911L192.395 5.67048L192.443 5.62243V0.144165H194.336V9.46682H192.585L189.698 5.18993L188.941 3.98856L188.893 4.03661V9.51487H187V0.144165H188.751L191.638 4.46911Z" fill="#939496"/>
<path d="M203.8 4.27689V5.3341C203.8 7.97712 201.955 9.46682 199.731 9.46682H196.229V0.144165H199.683C201.955 0.144165 203.8 1.63387 203.8 4.27689ZM198.311 7.7849H199.731C200.819 7.7849 201.671 7.06407 201.671 5.62243V3.9405C201.671 2.49886 200.819 1.77803 199.731 1.77803H198.311V7.7849Z" fill="#939496"/>
<path d="M209.622 1.82609H208.533V7.7849H209.622V9.46682H205.41V7.7849H206.498V1.82609H205.41V0.144165H209.622V1.82609Z" fill="#939496"/>
<path d="M144.503 15.9062V16.0023H143.794V15.8581C143.794 15.1373 143.131 14.7528 142.279 14.7528C141.38 14.7528 140.718 15.0892 140.718 15.8101C140.718 17.54 144.693 16.5309 144.693 18.9817C144.693 20.4233 143.652 21 142.279 21C140.859 21 139.818 20.4233 139.818 19.0297C139.818 18.9817 139.818 18.9336 139.818 18.8375H140.528C140.528 18.9336 140.528 18.9817 140.528 19.0778C140.528 19.9908 141.238 20.3272 142.232 20.3272C143.226 20.3272 143.936 19.9908 143.936 19.0778C143.936 17.2036 139.96 18.2609 139.96 15.8581C139.96 14.6087 140.954 14.0801 142.232 14.0801C143.557 14.0801 144.503 14.6567 144.503 15.9062Z" fill="#939496"/>
<path d="M150.561 14.1761V14.8489H148.431V20.9038H147.721V14.8489H145.592V14.1761H150.561Z" fill="#939496"/>
<path d="M152.454 14.1761V18.6933C152.454 19.6544 153.117 20.2791 154.11 20.2791C155.151 20.2791 155.767 19.6064 155.767 18.6933V14.1761H156.477V18.7414C156.477 20.0869 155.577 20.9999 154.158 20.9999H154.063C152.691 20.9999 151.744 20.135 151.744 18.7414V14.1761H152.454Z" fill="#939496"/>
<path d="M163.149 17.2997V17.7803C163.149 19.9908 162.014 20.9038 160.499 20.9038H158.322V14.1761H160.499C162.014 14.1761 163.149 15.0892 163.149 17.2997ZM159.032 20.2311H160.499C161.635 20.2311 162.439 19.6064 162.439 17.8283V17.2997C162.439 15.5697 161.682 14.897 160.499 14.897H159.032V20.2311Z" fill="#939496"/>
<path d="M166.604 14.8489H165.846V20.2311H166.604V20.9038H164.379V20.2311H165.137V14.8489H164.379V14.1761H166.604V14.8489Z" fill="#939496"/>
<path d="M167.929 17.8284V17.2998C167.929 14.9932 169.064 14.1282 170.532 14.1282H170.579C172.093 14.1282 173.182 14.9932 173.182 17.2998V17.8284C173.182 20.135 172.046 21 170.579 21H170.532C169.064 21 167.929 20.135 167.929 17.8284ZM172.472 17.8765V17.2037C172.472 15.3776 171.715 14.7529 170.532 14.7529C169.396 14.7529 168.591 15.3776 168.591 17.2037V17.8765C168.591 19.7025 169.348 20.3273 170.532 20.3273C171.667 20.3273 172.472 19.7025 172.472 17.8765Z" fill="#939496"/>
<path d="M181.984 17.2997V17.7803C181.984 19.9908 180.849 20.9038 179.334 20.9038H177.157V14.1761H179.334C180.896 14.1761 181.984 15.0892 181.984 17.2997ZM177.867 20.2311H179.334C180.47 20.2311 181.274 19.6064 181.274 17.8283V17.2997C181.274 15.5697 180.517 14.897 179.334 14.897H177.867V20.2311Z" fill="#939496"/>
<path d="M187.805 14.1761L187.711 14.8489H184.351V17.1556H187.379V17.7803H184.351V20.2311H187.805L187.947 20.9038H183.688V14.1761H187.805Z" fill="#939496"/>
<path d="M193.531 15.9062V16.0023H192.821V15.8581C192.821 15.1373 192.159 14.7528 191.307 14.7528C190.408 14.7528 189.745 15.0892 189.745 15.8101C189.745 17.54 193.721 16.5309 193.721 18.9817C193.721 20.4233 192.679 21 191.307 21C189.887 21 188.846 20.4233 188.846 19.0297C188.846 18.9817 188.846 18.9336 188.846 18.8375H189.556C189.556 18.9336 189.556 18.9817 189.556 19.0778C189.556 19.9908 190.266 20.3272 191.26 20.3272C192.254 20.3272 192.963 19.9908 192.963 19.0778C192.963 17.2036 188.988 18.2609 188.988 15.8581C188.988 14.6087 189.982 14.0801 191.26 14.0801C192.585 14.0801 193.531 14.6567 193.531 15.9062Z" fill="#939496"/>
<path d="M197.175 14.8489H196.418V20.2311H197.175V20.9038H194.951V20.2311H195.708V14.8489H194.951V14.1761H197.175V14.8489Z" fill="#939496"/>
<path d="M203.564 16.5308H202.854C202.854 15.2334 202.097 14.7528 201.056 14.7528C199.92 14.7528 199.21 15.3775 199.21 17.2036V17.8764C199.21 19.7025 199.92 20.3272 201.056 20.3272C202.097 20.3272 202.854 19.8466 202.854 18.405V18.0686H200.819V17.4439H203.564V19.7025C203.564 20.3272 203.612 20.7597 203.612 20.9038H203.186L202.996 20.0388C202.57 20.7116 201.908 20.9999 201.103 20.9999H201.056C199.542 20.9999 198.5 20.135 198.5 17.8283V17.2997C198.5 14.9931 199.542 14.1281 201.056 14.1281H201.103C202.476 14.08 203.564 14.8489 203.564 16.5308Z" fill="#939496"/>
<path d="M208.912 18.8855L209.29 19.5102H209.337V14.1761H210V20.8558H209.385L206.261 16.0022L205.977 15.5217H205.93V20.8558H205.268V14.1761H205.883L208.912 18.8855Z" fill="#939496"/>
<path d="M232.85 13.262C233.06 13.5144 233.289 13.7145 233.536 13.8625C233.792 14.0104 234.112 14.0843 234.496 14.0843C234.66 14.0843 234.825 14.0669 234.989 14.0321C235.163 13.9973 235.318 13.9408 235.456 13.8625C235.593 13.7841 235.702 13.6884 235.785 13.5753C235.867 13.4535 235.908 13.3099 235.908 13.1446C235.908 12.9793 235.867 12.8444 235.785 12.74C235.712 12.6355 235.611 12.5485 235.483 12.4789C235.355 12.4006 235.209 12.3397 235.044 12.2962C234.88 12.2527 234.711 12.2135 234.537 12.1787C234.235 12.1178 233.947 12.0482 233.673 11.9699C233.399 11.8916 233.156 11.7915 232.946 11.6697C232.745 11.5392 232.581 11.3738 232.453 11.1737C232.334 10.9736 232.274 10.7169 232.274 10.4036C232.274 10.1078 232.343 9.84672 232.48 9.62048C232.617 9.39424 232.8 9.20716 233.028 9.05924C233.257 8.91131 233.513 8.79819 233.796 8.71988C234.08 8.64157 234.372 8.60241 234.674 8.60241C235.131 8.60241 235.552 8.68942 235.936 8.86345C236.329 9.03748 236.635 9.32028 236.854 9.71185L235.963 10.2731C235.826 10.0556 235.643 9.88153 235.414 9.751C235.195 9.61178 234.925 9.54217 234.605 9.54217C234.459 9.54217 234.308 9.55957 234.153 9.59438C234.007 9.62918 233.874 9.68139 233.755 9.751C233.636 9.82062 233.536 9.91198 233.454 10.0251C233.38 10.1295 233.344 10.2513 233.344 10.3906C233.344 10.5211 233.385 10.6342 233.467 10.7299C233.559 10.8169 233.678 10.8952 233.824 10.9649C233.979 11.0345 234.153 11.0954 234.345 11.1476C234.546 11.1998 234.752 11.2433 234.962 11.2781C235.245 11.3303 235.515 11.3999 235.771 11.4869C236.027 11.5653 236.251 11.674 236.443 11.8133C236.635 11.9525 236.786 12.1265 236.895 12.3353C237.005 12.5442 237.06 12.8009 237.06 13.1054C237.06 13.4535 236.987 13.7493 236.841 13.993C236.694 14.2366 236.498 14.4367 236.251 14.5934C236.013 14.7413 235.739 14.8501 235.428 14.9197C235.126 14.9893 234.816 15.0241 234.496 15.0241C233.947 15.0241 233.472 14.9458 233.07 14.7892C232.676 14.6238 232.32 14.3236 232 13.8886L232.85 13.262Z" fill="#939496"/>
<path d="M238.277 5H239.347V11.4478L242.268 8.75904H243.79L240.691 11.5392L244.105 14.8675H242.528L239.347 11.6566V14.8675H238.277V5Z" fill="#939496"/>
<path d="M244.777 9.54217C245.106 9.22021 245.495 8.98527 245.943 8.83735C246.4 8.68072 246.862 8.60241 247.328 8.60241C248.278 8.60241 248.964 8.8156 249.385 9.24197C249.805 9.66834 250.015 10.3166 250.015 11.1867V13.8102C250.015 13.9843 250.025 14.167 250.043 14.3584C250.061 14.5412 250.084 14.7108 250.111 14.8675H249.083C249.046 14.7282 249.024 14.576 249.014 14.4106C249.014 14.2366 249.014 14.0843 249.014 13.9538H248.987C248.777 14.2671 248.493 14.5238 248.137 14.7239C247.789 14.924 247.369 15.0241 246.875 15.0241C246.546 15.0241 246.235 14.9849 245.943 14.9066C245.659 14.8283 245.408 14.7152 245.189 14.5673C244.978 14.4106 244.809 14.2192 244.681 13.993C244.553 13.7667 244.489 13.5057 244.489 13.2098C244.489 12.7052 244.626 12.3092 244.901 12.0221C245.175 11.7349 245.513 11.5218 245.915 11.3825C246.327 11.2433 246.766 11.1563 247.232 11.1215C247.707 11.0867 248.141 11.0693 248.534 11.0693H248.946V10.8865C248.946 10.4428 248.804 10.1078 248.521 9.88153C248.246 9.65529 247.858 9.54217 247.355 9.54217C247.008 9.54217 246.665 9.59873 246.327 9.71185C245.998 9.81627 245.705 9.98159 245.449 10.2078L244.777 9.54217ZM247.876 11.9307C247.191 11.9307 246.647 12.0221 246.244 12.2048C245.842 12.3876 245.641 12.6878 245.641 13.1054C245.641 13.4883 245.774 13.7624 246.039 13.9277C246.313 14.0843 246.651 14.1627 247.053 14.1627C247.364 14.1627 247.634 14.1148 247.863 14.0191C248.1 13.9147 248.297 13.7798 248.452 13.6145C248.608 13.4491 248.726 13.2577 248.809 13.0402C248.891 12.8139 248.937 12.5746 248.946 12.3223V11.9307H247.876Z" fill="#939496"/>
<path d="M251.792 5H252.862V14.8675H251.792V5Z" fill="#939496"/>
<path d="M255.607 13.3795C255.836 13.3795 256.028 13.4578 256.183 13.6145C256.348 13.7624 256.43 13.9451 256.43 14.1627C256.43 14.3802 256.343 14.5673 256.169 14.7239C256.005 14.8718 255.818 14.9458 255.607 14.9458C255.397 14.9458 255.205 14.8718 255.031 14.7239C254.867 14.5673 254.785 14.3802 254.785 14.1627C254.785 13.9451 254.862 13.7624 255.018 13.6145C255.182 13.4578 255.379 13.3795 255.607 13.3795Z" fill="#939496"/>
<path d="M263.592 13.7841H263.565C263.364 14.1322 263.044 14.428 262.605 14.6717C262.175 14.9066 261.673 15.0241 261.097 15.0241C260.649 15.0241 260.228 14.9458 259.835 14.7892C259.442 14.6238 259.099 14.3976 258.807 14.1104C258.523 13.8233 258.299 13.4839 258.135 13.0924C257.97 12.7008 257.888 12.2744 257.888 11.8133C257.888 11.3521 257.97 10.9257 258.135 10.5341C258.299 10.1426 258.528 9.80321 258.82 9.51606C259.113 9.22892 259.465 9.00703 259.876 8.8504C260.297 8.68507 260.758 8.60241 261.261 8.60241C261.728 8.60241 262.153 8.69378 262.537 8.87651C262.93 9.05924 263.272 9.31593 263.565 9.64659H263.592V5H264.662V14.8675H263.592V13.7841ZM263.592 11.8133C263.592 11.4913 263.538 11.1954 263.428 10.9257C263.327 10.6473 263.176 10.408 262.975 10.2078C262.774 9.999 262.532 9.83802 262.249 9.7249C261.974 9.60308 261.664 9.54217 261.316 9.54217C260.969 9.54217 260.653 9.60308 260.37 9.7249C260.096 9.83802 259.858 9.999 259.657 10.2078C259.456 10.408 259.3 10.6473 259.191 10.9257C259.09 11.1954 259.04 11.4913 259.04 11.8133C259.04 12.1352 259.09 12.4354 259.191 12.7139C259.3 12.9836 259.456 13.2229 259.657 13.4317C259.858 13.6319 260.096 13.7928 260.37 13.9147C260.653 14.0278 260.969 14.0843 261.316 14.0843C261.664 14.0843 261.974 14.0278 262.249 13.9147C262.532 13.7928 262.774 13.6319 262.975 13.4317C263.176 13.2229 263.327 12.9836 263.428 12.7139C263.538 12.4354 263.592 12.1352 263.592 11.8133Z" fill="#939496"/>
<path d="M272.099 13.758C271.715 14.2279 271.294 14.5586 270.837 14.75C270.38 14.9327 269.85 15.0241 269.247 15.0241C268.744 15.0241 268.291 14.9414 267.889 14.7761C267.487 14.6021 267.144 14.3715 266.861 14.0843C266.586 13.7972 266.371 13.4578 266.216 13.0663C266.07 12.6747 265.997 12.257 265.997 11.8133C265.997 11.3434 266.079 10.9127 266.243 10.5211C266.408 10.1208 266.637 9.78146 266.929 9.50301C267.222 9.21586 267.569 8.99398 267.971 8.83735C268.373 8.68072 268.812 8.60241 269.288 8.60241C269.736 8.60241 270.147 8.67637 270.522 8.8243C270.897 8.96352 271.217 9.17236 271.482 9.4508C271.756 9.72055 271.966 10.0556 272.112 10.4558C272.259 10.8474 272.332 11.2955 272.332 11.8002V12.1265H267.148C267.167 12.3875 267.231 12.6399 267.34 12.8835C267.459 13.1185 267.61 13.3273 267.793 13.51C267.976 13.6841 268.191 13.8233 268.437 13.9277C268.684 14.0321 268.954 14.0843 269.247 14.0843C269.713 14.0843 270.106 14.006 270.426 13.8494C270.746 13.6928 271.034 13.4622 271.29 13.1576L272.099 13.758ZM271.18 11.2651C271.162 10.743 270.983 10.3253 270.645 10.012C270.307 9.6988 269.841 9.54217 269.247 9.54217C268.652 9.54217 268.172 9.6988 267.807 10.012C267.441 10.3253 267.222 10.743 267.148 11.2651H271.18Z" fill="#939496"/>
<path d="M273.849 13.262C274.06 13.5144 274.288 13.7145 274.535 13.8625C274.791 14.0104 275.111 14.0843 275.495 14.0843C275.659 14.0843 275.824 14.0669 275.989 14.0321C276.162 13.9973 276.318 13.9408 276.455 13.8625C276.592 13.7841 276.702 13.6884 276.784 13.5753C276.866 13.4535 276.907 13.3099 276.907 13.1446C276.907 12.9793 276.866 12.8444 276.784 12.74C276.711 12.6355 276.61 12.5485 276.482 12.4789C276.354 12.4006 276.208 12.3397 276.043 12.2962C275.879 12.2527 275.71 12.2135 275.536 12.1787C275.234 12.1178 274.946 12.0482 274.672 11.9699C274.398 11.8916 274.156 11.7915 273.945 11.6697C273.744 11.5392 273.58 11.3738 273.452 11.1737C273.333 10.9736 273.273 10.7169 273.273 10.4036C273.273 10.1078 273.342 9.84672 273.479 9.62048C273.616 9.39424 273.799 9.20716 274.028 9.05924C274.256 8.91131 274.512 8.79819 274.796 8.71988C275.079 8.64157 275.371 8.60241 275.673 8.60241C276.13 8.60241 276.551 8.68942 276.935 8.86345C277.328 9.03748 277.634 9.32028 277.853 9.71185L276.962 10.2731C276.825 10.0556 276.642 9.88153 276.414 9.751C276.194 9.61178 275.925 9.54217 275.605 9.54217C275.458 9.54217 275.307 9.55957 275.152 9.59438C275.006 9.62918 274.873 9.68139 274.754 9.751C274.636 9.82062 274.535 9.91198 274.453 10.0251C274.38 10.1295 274.343 10.2513 274.343 10.3906C274.343 10.5211 274.384 10.6342 274.466 10.7299C274.558 10.8169 274.677 10.8952 274.823 10.9649C274.978 11.0345 275.152 11.0954 275.344 11.1476C275.545 11.1998 275.751 11.2433 275.961 11.2781C276.245 11.3303 276.514 11.3999 276.77 11.4869C277.026 11.5653 277.25 11.674 277.442 11.8133C277.634 11.9525 277.785 12.1265 277.895 12.3353C278.004 12.5442 278.059 12.8009 278.059 13.1054C278.059 13.4535 277.986 13.7493 277.84 13.993C277.693 14.2366 277.497 14.4367 277.25 14.5934C277.012 14.7413 276.738 14.8501 276.427 14.9197C276.126 14.9893 275.815 15.0241 275.495 15.0241C274.946 15.0241 274.471 14.9458 274.069 14.7892C273.676 14.6238 273.319 14.3236 272.999 13.8886L273.849 13.262Z" fill="#939496"/>
<path d="M279.373 8.75904H280.442V14.8675H279.373V8.75904ZM279.126 6.37048C279.126 6.17035 279.199 5.99632 279.345 5.84839C279.501 5.70047 279.688 5.62651 279.907 5.62651C280.127 5.62651 280.31 5.70047 280.456 5.84839C280.611 5.99632 280.689 6.17035 280.689 6.37048C280.689 6.58802 280.616 6.7664 280.47 6.90562C280.323 7.04485 280.136 7.11446 279.907 7.11446C279.679 7.11446 279.491 7.04485 279.345 6.90562C279.199 6.7664 279.126 6.58802 279.126 6.37048Z" fill="#939496"/>
<path d="M288.7 14.5934C288.7 15.7072 288.399 16.5512 287.795 17.1255C287.201 17.7085 286.337 18 285.204 18C284.573 18 284.002 17.913 283.49 17.739C282.987 17.5649 282.507 17.2647 282.05 16.8384L282.818 16.003C283.156 16.3511 283.512 16.6121 283.887 16.7861C284.271 16.9689 284.71 17.0602 285.204 17.0602C285.679 17.0602 286.072 16.9906 286.383 16.8514C286.703 16.7209 286.954 16.5382 287.137 16.3032C287.32 16.077 287.448 15.8159 287.521 15.5201C287.594 15.2242 287.631 14.9153 287.631 14.5934V13.8102H287.603C287.347 14.2018 287.014 14.489 286.602 14.6717C286.191 14.8544 285.77 14.9458 285.341 14.9458C284.838 14.9458 284.376 14.8675 283.956 14.7108C283.535 14.5542 283.174 14.3367 282.873 14.0582C282.571 13.7798 282.338 13.4491 282.173 13.0663C282.009 12.6834 281.926 12.2657 281.926 11.8133C281.926 11.3173 282.009 10.8691 282.173 10.4689C282.338 10.0686 282.566 9.7336 282.859 9.46386C283.16 9.18541 283.522 8.97222 283.942 8.8243C284.363 8.67637 284.829 8.60241 285.341 8.60241C285.56 8.60241 285.78 8.62851 285.999 8.68072C286.218 8.72423 286.429 8.79819 286.63 8.90261C286.84 8.99833 287.027 9.1245 287.192 9.28112C287.357 9.42905 287.494 9.60308 287.603 9.80321H287.631V8.75904H288.7V14.5934ZM283.078 11.8133C283.078 12.1265 283.138 12.418 283.256 12.6878C283.375 12.9488 283.535 13.1794 283.736 13.3795C283.947 13.571 284.189 13.7232 284.463 13.8363C284.737 13.9495 285.03 14.006 285.341 14.006C285.706 14.006 286.031 13.9451 286.314 13.8233C286.598 13.7015 286.835 13.5405 287.027 13.3404C287.229 13.1315 287.379 12.8966 287.48 12.6355C287.581 12.3658 287.631 12.083 287.631 11.7871C287.631 11.4565 287.576 11.1563 287.466 10.8865C287.357 10.6081 287.201 10.3688 287 10.1687C286.799 9.96854 286.557 9.81627 286.273 9.71185C285.99 9.59873 285.679 9.54217 285.341 9.54217C285.003 9.54217 284.692 9.60308 284.408 9.7249C284.134 9.83802 283.896 9.999 283.695 10.2078C283.503 10.408 283.352 10.6473 283.243 10.9257C283.133 11.1954 283.078 11.4913 283.078 11.8133Z" fill="#939496"/>
<path d="M290.405 10.2078C290.405 9.92938 290.396 9.66834 290.378 9.4247C290.36 9.18106 290.35 8.95917 290.35 8.75904H291.365C291.365 8.92436 291.37 9.08969 291.379 9.25502C291.388 9.42035 291.393 9.59003 291.393 9.76406H291.42C291.493 9.61613 291.594 9.47256 291.722 9.33333C291.859 9.19411 292.019 9.07229 292.202 8.96787C292.384 8.85475 292.59 8.76774 292.819 8.70683C293.047 8.63722 293.294 8.60241 293.559 8.60241C293.98 8.60241 294.341 8.66332 294.642 8.78514C294.953 8.90696 295.209 9.07664 295.41 9.29418C295.611 9.51171 295.758 9.77711 295.849 10.0904C295.95 10.3949 296 10.7299 296 11.0954V14.8675H294.93V11.1998C294.93 10.6864 294.812 10.2818 294.574 9.98594C294.336 9.69009 293.966 9.54217 293.463 9.54217C293.116 9.54217 292.814 9.59873 292.558 9.71185C292.311 9.82497 292.106 9.98594 291.941 10.1948C291.786 10.4036 291.667 10.6516 291.585 10.9388C291.511 11.2259 291.475 11.5435 291.475 11.8916V14.8675H290.405V10.2078Z" fill="#939496"/>
</svg>
