<svg width="98" height="21" viewBox="0 0 98 21" fill="none" xmlns="http://www.w3.org/2000/svg">
<path d="M42.968 10.1374V13.5454H41.876V5.08541H44.564C45.532 5.08541 46.256 5.31341 46.736 5.76941C47.216 6.21741 47.456 6.83341 47.456 7.61741C47.456 8.40941 47.208 9.02941 46.712 9.47741C46.216 9.91741 45.5 10.1374 44.564 10.1374H42.968ZM44.468 9.22541C45.132 9.22541 45.608 9.08541 45.896 8.80541C46.192 8.52541 46.34 8.12941 46.34 7.61741C46.34 7.08941 46.192 6.68941 45.896 6.41741C45.608 6.13741 45.132 5.99741 44.468 5.99741H42.968V9.22541H44.468ZM52.7195 6.87341C53.3515 6.87341 53.9155 7.00941 54.4115 7.28141C54.9155 7.55341 55.3075 7.94541 55.5875 8.45741C55.8755 8.96941 56.0195 9.56941 56.0195 10.2574C56.0195 10.9454 55.8755 11.5454 55.5875 12.0574C55.3075 12.5614 54.9155 12.9494 54.4115 13.2214C53.9155 13.4934 53.3515 13.6294 52.7195 13.6294C52.0875 13.6294 51.5195 13.4934 51.0155 13.2214C50.5195 12.9494 50.1275 12.5614 49.8395 12.0574C49.5515 11.5454 49.4075 10.9454 49.4075 10.2574C49.4075 9.56941 49.5515 8.96941 49.8395 8.45741C50.1275 7.94541 50.5195 7.55341 51.0155 7.28141C51.5195 7.00941 52.0875 6.87341 52.7195 6.87341ZM52.7195 7.83341C52.3275 7.83341 51.9635 7.92141 51.6275 8.09741C51.2995 8.27341 51.0315 8.54541 50.8235 8.91341C50.6235 9.27341 50.5235 9.72141 50.5235 10.2574C50.5235 10.7854 50.6235 11.2334 50.8235 11.6014C51.0315 11.9614 51.2995 12.2294 51.6275 12.4054C51.9635 12.5814 52.3275 12.6694 52.7195 12.6694C53.1115 12.6694 53.4715 12.5814 53.7995 12.4054C54.1355 12.2294 54.4035 11.9614 54.6035 11.6014C54.8115 11.2334 54.9155 10.7854 54.9155 10.2574C54.9155 9.72141 54.8115 9.27341 54.6035 8.91341C54.4035 8.54541 54.1355 8.27341 53.7995 8.09741C53.4715 7.92141 53.1115 7.83341 52.7195 7.83341ZM59.5344 8.28941C59.7504 7.83341 60.0664 7.48141 60.4824 7.23341C60.8984 6.97741 61.3944 6.84941 61.9704 6.84941V8.03741H61.6344C61.0184 8.03741 60.5144 8.19741 60.1224 8.51741C59.7304 8.82941 59.5344 9.34941 59.5344 10.0774V13.5454H58.4424V6.95741H59.5344V8.28941ZM67.1919 12.5854V13.5454H66.3759C65.7039 13.5454 65.1999 13.3854 64.8639 13.0654C64.5359 12.7454 64.3719 12.2094 64.3719 11.4574V7.90541H63.3879V6.95741H64.3719V5.31341H65.4759V6.95741H67.1799V7.90541H65.4759V11.4814C65.4759 11.9054 65.5519 12.1974 65.7039 12.3574C65.8639 12.5094 66.1359 12.5854 66.5199 12.5854H67.1919ZM72.4404 5.39741C71.8564 5.38941 71.4484 5.48941 71.2164 5.69741C70.9924 5.90541 70.8804 6.26541 70.8804 6.77741V6.95741H72.4404V7.91741H70.8804V13.5454H69.7884V7.91741H68.8404V6.95741H69.7884V6.69341C69.7884 5.11741 70.6724 4.36541 72.4404 4.43741V5.39741ZM77.614 6.87341C78.246 6.87341 78.81 7.00941 79.306 7.28141C79.81 7.55341 80.202 7.94541 80.482 8.45741C80.77 8.96941 80.914 9.56941 80.914 10.2574C80.914 10.9454 80.77 11.5454 80.482 12.0574C80.202 12.5614 79.81 12.9494 79.306 13.2214C78.81 13.4934 78.246 13.6294 77.614 13.6294C76.982 13.6294 76.414 13.4934 75.91 13.2214C75.414 12.9494 75.022 12.5614 74.734 12.0574C74.446 11.5454 74.302 10.9454 74.302 10.2574C74.302 9.56941 74.446 8.96941 74.734 8.45741C75.022 7.94541 75.414 7.55341 75.91 7.28141C76.414 7.00941 76.982 6.87341 77.614 6.87341ZM77.614 7.83341C77.222 7.83341 76.858 7.92141 76.522 8.09741C76.194 8.27341 75.926 8.54541 75.718 8.91341C75.518 9.27341 75.418 9.72141 75.418 10.2574C75.418 10.7854 75.518 11.2334 75.718 11.6014C75.926 11.9614 76.194 12.2294 76.522 12.4054C76.858 12.5814 77.222 12.6694 77.614 12.6694C78.006 12.6694 78.366 12.5814 78.694 12.4054C79.03 12.2294 79.298 11.9614 79.498 11.6014C79.706 11.2334 79.81 10.7854 79.81 10.2574C79.81 9.72141 79.706 9.27341 79.498 8.91341C79.298 8.54541 79.03 8.27341 78.694 8.09741C78.366 7.92141 78.006 7.83341 77.614 7.83341ZM84.4289 4.66541V13.5454H83.3369V4.66541H84.4289ZM86.9926 5.02541C86.9926 4.82541 87.0606 4.66541 87.1966 4.54541C87.3326 4.41741 87.5126 4.35341 87.7366 4.35341C87.9606 4.35341 88.1406 4.41741 88.2766 4.54541C88.4126 4.66541 88.4806 4.82541 88.4806 5.02541C88.4806 5.22541 88.4126 5.38941 88.2766 5.51741C88.1406 5.63741 87.9606 5.69741 87.7366 5.69741C87.5126 5.69741 87.3326 5.63741 87.1966 5.51741C87.0606 5.38941 86.9926 5.22541 86.9926 5.02541ZM88.2766 6.95741V13.5454H87.1846V6.95741H88.2766ZM94.0203 6.87341C94.6523 6.87341 95.2163 7.00941 95.7123 7.28141C96.2163 7.55341 96.6083 7.94541 96.8883 8.45741C97.1763 8.96941 97.3203 9.56941 97.3203 10.2574C97.3203 10.9454 97.1763 11.5454 96.8883 12.0574C96.6083 12.5614 96.2163 12.9494 95.7123 13.2214C95.2163 13.4934 94.6523 13.6294 94.0203 13.6294C93.3883 13.6294 92.8203 13.4934 92.3163 13.2214C91.8203 12.9494 91.4283 12.5614 91.1403 12.0574C90.8523 11.5454 90.7083 10.9454 90.7083 10.2574C90.7083 9.56941 90.8523 8.96941 91.1403 8.45741C91.4283 7.94541 91.8203 7.55341 92.3163 7.28141C92.8203 7.00941 93.3883 6.87341 94.0203 6.87341ZM94.0203 7.83341C93.6283 7.83341 93.2643 7.92141 92.9283 8.09741C92.6003 8.27341 92.3323 8.54541 92.1243 8.91341C91.9243 9.27341 91.8243 9.72141 91.8243 10.2574C91.8243 10.7854 91.9243 11.2334 92.1243 11.6014C92.3323 11.9614 92.6003 12.2294 92.9283 12.4054C93.2643 12.5814 93.6283 12.6694 94.0203 12.6694C94.4123 12.6694 94.7723 12.5814 95.1003 12.4054C95.4363 12.2294 95.7043 11.9614 95.9043 11.6014C96.1123 11.2334 96.2162 10.7854 96.2162 10.2574C96.2162 9.72141 96.1123 9.27341 95.9043 8.91341C95.7043 8.54541 95.4363 8.27341 95.1003 8.09741C94.7723 7.92141 94.4123 7.83341 94.0203 7.83341Z" fill="white"/>
<path fill-rule="evenodd" clip-rule="evenodd" d="M12.4005 0.54541L1 5.95007L12.4005 11.3547L23.8009 5.95007L12.4005 0.54541Z" stroke="white" stroke-linecap="round" stroke-linejoin="round"/>
<path d="M6.70024 11.7954L1 14.4974L6.70024 17.2001L12.4005 19.9027L18.1007 17.2001L23.8009 14.4974L18.1007 11.7954" stroke="white" stroke-linecap="round" stroke-linejoin="round"/>
</svg>
