<svg width="115" height="20" viewBox="0 0 115 20" fill="none" xmlns="http://www.w3.org/2000/svg">
<g clip-path="url(#clip0)">
<path d="M46.516 7.084C46.516 7.78 46.276 8.36 45.796 8.824C45.324 9.28 44.6 9.508 43.624 9.508H42.016V13H40.924V4.636H43.624C44.568 4.636 45.284 4.864 45.772 5.32C46.268 5.776 46.516 6.364 46.516 7.084ZM43.624 8.608C44.232 8.608 44.68 8.476 44.968 8.212C45.256 7.948 45.4 7.572 45.4 7.084C45.4 6.052 44.808 5.536 43.624 5.536H42.016V8.608H43.624ZM52.6652 13.084C51.8892 13.084 51.1812 12.904 50.5412 12.544C49.9012 12.176 49.3932 11.668 49.0172 11.02C48.6492 10.364 48.4652 9.628 48.4652 8.812C48.4652 7.996 48.6492 7.264 49.0172 6.616C49.3932 5.96 49.9012 5.452 50.5412 5.092C51.1812 4.724 51.8892 4.54 52.6652 4.54C53.4492 4.54 54.1612 4.724 54.8012 5.092C55.4412 5.452 55.9452 5.956 56.3132 6.604C56.6812 7.252 56.8652 7.988 56.8652 8.812C56.8652 9.636 56.6812 10.372 56.3132 11.02C55.9452 11.668 55.4412 12.176 54.8012 12.544C54.1612 12.904 53.4492 13.084 52.6652 13.084ZM52.6652 12.136C53.2492 12.136 53.7732 12 54.2372 11.728C54.7092 11.456 55.0772 11.068 55.3412 10.564C55.6132 10.06 55.7492 9.476 55.7492 8.812C55.7492 8.14 55.6132 7.556 55.3412 7.06C55.0772 6.556 54.7132 6.168 54.2492 5.896C53.7852 5.624 53.2572 5.488 52.6652 5.488C52.0732 5.488 51.5452 5.624 51.0812 5.896C50.6172 6.168 50.2492 6.556 49.9772 7.06C49.7132 7.556 49.5812 8.14 49.5812 8.812C49.5812 9.476 49.7132 10.06 49.9772 10.564C50.2492 11.068 50.6172 11.456 51.0812 11.728C51.5532 12 52.0812 12.136 52.6652 12.136ZM63.7108 13L61.7188 9.58H60.3988V13H59.3068V4.636H62.0068C62.6388 4.636 63.1708 4.744 63.6028 4.96C64.0428 5.176 64.3708 5.468 64.5868 5.836C64.8028 6.204 64.9108 6.624 64.9108 7.096C64.9108 7.672 64.7428 8.18 64.4068 8.62C64.0788 9.06 63.5828 9.352 62.9188 9.496L65.0188 13H63.7108ZM60.3988 8.704H62.0068C62.5988 8.704 63.0428 8.56 63.3388 8.272C63.6348 7.976 63.7828 7.584 63.7828 7.096C63.7828 6.6 63.6348 6.216 63.3388 5.944C63.0508 5.672 62.6068 5.536 62.0068 5.536H60.3988V8.704ZM72.7556 4.636V5.524H70.4756V13H69.3836V5.524H67.0916V4.636H72.7556ZM79.8278 4.636V5.524H76.1918V8.344H79.1438V9.232H76.1918V13H75.0998V4.636H79.8278ZM85.9387 13.084C85.1627 13.084 84.4547 12.904 83.8147 12.544C83.1747 12.176 82.6667 11.668 82.2907 11.02C81.9227 10.364 81.7387 9.628 81.7387 8.812C81.7387 7.996 81.9227 7.264 82.2907 6.616C82.6667 5.96 83.1747 5.452 83.8147 5.092C84.4547 4.724 85.1627 4.54 85.9387 4.54C86.7227 4.54 87.4347 4.724 88.0747 5.092C88.7147 5.452 89.2187 5.956 89.5867 6.604C89.9547 7.252 90.1387 7.988 90.1387 8.812C90.1387 9.636 89.9547 10.372 89.5867 11.02C89.2187 11.668 88.7147 12.176 88.0747 12.544C87.4347 12.904 86.7227 13.084 85.9387 13.084ZM85.9387 12.136C86.5227 12.136 87.0467 12 87.5107 11.728C87.9827 11.456 88.3507 11.068 88.6147 10.564C88.8867 10.06 89.0227 9.476 89.0227 8.812C89.0227 8.14 88.8867 7.556 88.6147 7.06C88.3507 6.556 87.9867 6.168 87.5227 5.896C87.0587 5.624 86.5307 5.488 85.9387 5.488C85.3467 5.488 84.8187 5.624 84.3547 5.896C83.8907 6.168 83.5227 6.556 83.2507 7.06C82.9867 7.556 82.8547 8.14 82.8547 8.812C82.8547 9.476 82.9867 10.06 83.2507 10.564C83.5227 11.068 83.8907 11.456 84.3547 11.728C84.8267 12 85.3547 12.136 85.9387 12.136ZM93.6723 12.112H96.6003V13H92.5803V4.636H93.6723V12.112ZM99.8519 4.636V13H98.7599V4.636H99.8519ZM106.505 13.084C105.729 13.084 105.021 12.904 104.381 12.544C103.741 12.176 103.233 11.668 102.857 11.02C102.489 10.364 102.305 9.628 102.305 8.812C102.305 7.996 102.489 7.264 102.857 6.616C103.233 5.96 103.741 5.452 104.381 5.092C105.021 4.724 105.729 4.54 106.505 4.54C107.289 4.54 108.001 4.724 108.641 5.092C109.281 5.452 109.785 5.956 110.153 6.604C110.521 7.252 110.705 7.988 110.705 8.812C110.705 9.636 110.521 10.372 110.153 11.02C109.785 11.668 109.281 12.176 108.641 12.544C108.001 12.904 107.289 13.084 106.505 13.084ZM106.505 12.136C107.089 12.136 107.613 12 108.077 11.728C108.549 11.456 108.917 11.068 109.181 10.564C109.453 10.06 109.589 9.476 109.589 8.812C109.589 8.14 109.453 7.556 109.181 7.06C108.917 6.556 108.553 6.168 108.089 5.896C107.625 5.624 107.097 5.488 106.505 5.488C105.913 5.488 105.385 5.624 104.921 5.896C104.457 6.168 104.089 6.556 103.817 7.06C103.553 7.556 103.421 8.14 103.421 8.812C103.421 9.476 103.553 10.06 103.817 10.564C104.089 11.068 104.457 11.456 104.921 11.728C105.393 12 105.921 12.136 106.505 12.136Z" fill="#979797"/>
<path fill-rule="evenodd" clip-rule="evenodd" d="M11.4005 0L0 5.40466L11.4005 10.8093L22.8009 5.40466L11.4005 0Z" stroke="#979797" stroke-linecap="round" stroke-linejoin="round"/>
<path d="M5.70024 11.25L0 13.952L5.70024 16.6547L11.4005 19.3573L17.1007 16.6547L22.8009 13.952L17.1007 11.25" stroke="#979797" stroke-linecap="round" stroke-linejoin="round"/>
</g>
<defs>
<clipPath id="clip0">
<rect width="115" height="20" fill="white"/>
</clipPath>
</defs>
</svg>
