<svg width="110" height="23" viewBox="0 0 110 23" fill="none" xmlns="http://www.w3.org/2000/svg">
<path d="M42.0598 10.1374V13.5454H40.9678V5.08541H43.6558C44.6238 5.08541 45.3478 5.31341 45.8278 5.76941C46.3078 6.21741 46.5478 6.83341 46.5478 7.61741C46.5478 8.40941 46.2998 9.02941 45.8038 9.47741C45.3078 9.91741 44.5918 10.1374 43.6558 10.1374H42.0598ZM43.5598 9.22541C44.2238 9.22541 44.6998 9.08541 44.9878 8.80541C45.2838 8.52541 45.4318 8.12941 45.4318 7.61741C45.4318 7.08941 45.2838 6.68941 44.9878 6.41741C44.6998 6.13741 44.2238 5.99741 43.5598 5.99741H42.0598V9.22541H43.5598ZM51.8113 6.87341C52.4433 6.87341 53.0073 7.00941 53.5033 7.28141C54.0073 7.55341 54.3993 7.94541 54.6793 8.45741C54.9673 8.96941 55.1113 9.56941 55.1113 10.2574C55.1113 10.9454 54.9673 11.5454 54.6793 12.0574C54.3993 12.5614 54.0073 12.9494 53.5033 13.2214C53.0073 13.4934 52.4433 13.6294 51.8113 13.6294C51.1793 13.6294 50.6113 13.4934 50.1073 13.2214C49.6113 12.9494 49.2193 12.5614 48.9313 12.0574C48.6433 11.5454 48.4993 10.9454 48.4993 10.2574C48.4993 9.56941 48.6433 8.96941 48.9313 8.45741C49.2193 7.94541 49.6113 7.55341 50.1073 7.28141C50.6113 7.00941 51.1793 6.87341 51.8113 6.87341ZM51.8113 7.83341C51.4193 7.83341 51.0553 7.92141 50.7193 8.09741C50.3913 8.27341 50.1233 8.54541 49.9153 8.91341C49.7153 9.27341 49.6153 9.72141 49.6153 10.2574C49.6153 10.7854 49.7153 11.2334 49.9153 11.6014C50.1233 11.9614 50.3913 12.2294 50.7193 12.4054C51.0553 12.5814 51.4193 12.6694 51.8113 12.6694C52.2033 12.6694 52.5633 12.5814 52.8913 12.4054C53.2273 12.2294 53.4953 11.9614 53.6953 11.6014C53.9033 11.2334 54.0073 10.7854 54.0073 10.2574C54.0073 9.72141 53.9033 9.27341 53.6953 8.91341C53.4953 8.54541 53.2273 8.27341 52.8913 8.09741C52.5633 7.92141 52.2033 7.83341 51.8113 7.83341ZM59.5982 6.87341C60.3422 6.87341 60.9382 7.06941 61.3862 7.46141C61.8422 7.84541 62.1182 8.36541 62.2142 9.02141H61.1702C61.1222 8.62941 60.9582 8.30941 60.6782 8.06141C60.4062 7.80541 60.0382 7.67741 59.5742 7.67741C59.1822 7.67741 58.8742 7.77341 58.6502 7.96541C58.4342 8.14941 58.3262 8.40141 58.3262 8.72141C58.3262 8.96141 58.3982 9.15741 58.5422 9.30941C58.6942 9.45341 58.8782 9.56541 59.0942 9.64541C59.3182 9.71741 59.6222 9.79741 60.0062 9.88541C60.4942 9.99741 60.8862 10.1134 61.1822 10.2334C61.4862 10.3454 61.7422 10.5294 61.9502 10.7854C62.1662 11.0414 62.2742 11.3854 62.2742 11.8174C62.2742 12.3534 62.0702 12.7894 61.6622 13.1254C61.2622 13.4614 60.7262 13.6294 60.0542 13.6294C59.2702 13.6294 58.6302 13.4414 58.1342 13.0654C57.6382 12.6894 57.3462 12.1654 57.2582 11.4934H58.3142C58.3542 11.8934 58.5262 12.2174 58.8302 12.4654C59.1422 12.7134 59.5502 12.8374 60.0542 12.8374C60.4302 12.8374 60.7222 12.7414 60.9302 12.5494C61.1462 12.3574 61.2542 12.1054 61.2542 11.7934C61.2542 11.5374 61.1782 11.3334 61.0262 11.1814C60.8742 11.0294 60.6862 10.9134 60.4622 10.8334C60.2382 10.7534 59.9302 10.6694 59.5382 10.5814C59.0502 10.4694 58.6582 10.3574 58.3622 10.2454C58.0742 10.1334 57.8262 9.95741 57.6182 9.71741C57.4182 9.46941 57.3182 9.13741 57.3182 8.72141C57.3182 8.16941 57.5222 7.72541 57.9302 7.38941C58.3382 7.04541 58.8942 6.87341 59.5982 6.87341ZM67.8774 12.5854V13.5454H67.0614C66.3894 13.5454 65.8854 13.3854 65.5494 13.0654C65.2214 12.7454 65.0574 12.2094 65.0574 11.4574V7.90541H64.0734V6.95741H65.0574V5.31341H66.1614V6.95741H67.8654V7.90541H66.1614V11.4814C66.1614 11.9054 66.2374 12.1974 66.3894 12.3574C66.5494 12.5094 66.8214 12.5854 67.2054 12.5854H67.8774ZM72.91 6.87341C73.55 6.87341 74.09 7.03341 74.53 7.35341C74.978 7.67341 75.29 8.10141 75.466 8.63741V6.95741H76.558V13.5454H75.466V11.8654C75.29 12.4014 74.978 12.8294 74.53 13.1494C74.09 13.4694 73.55 13.6294 72.91 13.6294C72.326 13.6294 71.806 13.4934 71.35 13.2214C70.894 12.9494 70.534 12.5614 70.27 12.0574C70.014 11.5454 69.886 10.9454 69.886 10.2574C69.886 9.56941 70.014 8.96941 70.27 8.45741C70.534 7.94541 70.894 7.55341 71.35 7.28141C71.806 7.00941 72.326 6.87341 72.91 6.87341ZM73.222 7.84541C72.55 7.84541 72.01 8.06141 71.602 8.49341C71.202 8.91741 71.002 9.50541 71.002 10.2574C71.002 11.0094 71.202 11.6014 71.602 12.0334C72.01 12.4574 72.55 12.6694 73.222 12.6694C73.654 12.6694 74.038 12.5694 74.374 12.3694C74.718 12.1694 74.986 11.8894 75.178 11.5294C75.37 11.1614 75.466 10.7374 75.466 10.2574C75.466 9.77741 75.37 9.35341 75.178 8.98541C74.986 8.61741 74.718 8.33741 74.374 8.14541C74.038 7.94541 73.654 7.84541 73.222 7.84541ZM81.9959 6.87341C82.6359 6.87341 83.1759 7.03341 83.6159 7.35341C84.0639 7.67341 84.3759 8.10141 84.5519 8.63741V6.95741H85.6439V13.6534C85.6439 14.2614 85.5159 14.8014 85.2599 15.2734C85.0039 15.7454 84.6439 16.1134 84.1799 16.3774C83.7159 16.6414 83.1759 16.7734 82.5599 16.7734C81.6719 16.7734 80.9479 16.5574 80.3879 16.1254C79.8279 15.7014 79.4719 15.1254 79.3199 14.3974H80.3999C80.5279 14.8374 80.7679 15.1814 81.1199 15.4294C81.4799 15.6854 81.9399 15.8134 82.4999 15.8134C83.0919 15.8134 83.5799 15.6214 83.9639 15.2374C84.3559 14.8614 84.5519 14.3334 84.5519 13.6534V11.8654C84.3759 12.4014 84.0639 12.8294 83.6159 13.1494C83.1759 13.4694 82.6359 13.6294 81.9959 13.6294C81.4119 13.6294 80.8919 13.4934 80.4359 13.2214C79.9799 12.9494 79.6199 12.5614 79.3559 12.0574C79.0999 11.5454 78.9719 10.9454 78.9719 10.2574C78.9719 9.56941 79.0999 8.96941 79.3559 8.45741C79.6199 7.94541 79.9799 7.55341 80.4359 7.28141C80.8919 7.00941 81.4119 6.87341 81.9959 6.87341ZM82.3079 7.84541C81.6359 7.84541 81.0959 8.06141 80.6879 8.49341C80.2879 8.91741 80.0879 9.50541 80.0879 10.2574C80.0879 11.0094 80.2879 11.6014 80.6879 12.0334C81.0959 12.4574 81.6359 12.6694 82.3079 12.6694C82.7399 12.6694 83.1239 12.5694 83.4599 12.3694C83.8039 12.1694 84.0719 11.8894 84.2639 11.5294C84.4559 11.1614 84.5519 10.7374 84.5519 10.2574C84.5519 9.77741 84.4559 9.35341 84.2639 8.98541C84.0719 8.61741 83.8039 8.33741 83.4599 8.14541C83.1239 7.94541 82.7399 7.84541 82.3079 7.84541ZM94.4419 9.88541C94.4419 10.1174 94.4259 10.3174 94.3939 10.4854H89.1259C89.1499 11.2374 89.3619 11.8014 89.7619 12.1774C90.1699 12.5534 90.6659 12.7414 91.2499 12.7414C91.7779 12.7414 92.2179 12.6094 92.5699 12.3454C92.9299 12.0734 93.1499 11.7134 93.2299 11.2654H94.3939C94.3139 11.7214 94.1339 12.1294 93.8539 12.4894C93.5819 12.8494 93.2259 13.1294 92.7859 13.3294C92.3459 13.5294 91.8499 13.6294 91.2979 13.6294C90.6659 13.6294 90.1059 13.4934 89.6179 13.2214C89.1299 12.9494 88.7459 12.5614 88.4659 12.0574C88.1939 11.5454 88.0579 10.9454 88.0579 10.2574C88.0579 9.56941 88.1939 8.96941 88.4659 8.45741C88.7459 7.94541 89.1299 7.55341 89.6179 7.28141C90.1059 7.00941 90.6659 6.87341 91.2979 6.87341C91.9379 6.87341 92.4939 7.00941 92.9659 7.28141C93.4459 7.55341 93.8099 7.91741 94.0579 8.37341C94.3139 8.82941 94.4419 9.33341 94.4419 9.88541ZM93.3379 9.95741C93.3619 9.46941 93.2819 9.06141 93.0979 8.73341C92.9139 8.40541 92.6619 8.16141 92.3419 8.00141C92.0219 7.84141 91.6739 7.76141 91.2979 7.76141C90.6979 7.76141 90.1939 7.94941 89.7859 8.32541C89.3779 8.69341 89.1579 9.23741 89.1259 9.95741H93.3379ZM104.97 6.84941C105.738 6.84941 106.354 7.09741 106.818 7.59341C107.29 8.08141 107.526 8.78941 107.526 9.71741V13.5454H106.434V9.81341C106.434 9.16541 106.274 8.66941 105.954 8.32541C105.642 7.98141 105.21 7.80941 104.658 7.80941C104.082 7.80941 103.618 8.00141 103.266 8.38541C102.922 8.76141 102.75 9.31741 102.75 10.0534V13.5454H101.658V9.81341C101.658 9.16541 101.498 8.66941 101.178 8.32541C100.858 7.98141 100.426 7.80941 99.8821 7.80941C99.2981 7.80941 98.8301 8.00141 98.4781 8.38541C98.1341 8.76141 97.9621 9.31741 97.9621 10.0534V13.5454H96.8701V6.95741H97.9621V8.45741C98.1221 7.93741 98.4061 7.54141 98.8141 7.26941C99.2301 6.98941 99.7061 6.84941 100.242 6.84941C100.802 6.84941 101.286 6.99341 101.694 7.28141C102.11 7.56141 102.406 7.97741 102.582 8.52941C102.766 7.99341 103.074 7.58141 103.506 7.29341C103.938 6.99741 104.426 6.84941 104.97 6.84941Z" fill="#80757A"/>
<path fill-rule="evenodd" clip-rule="evenodd" d="M1 7.54545H5.54545V3H1V7.54545Z" stroke="#80757A" stroke-linecap="round" stroke-linejoin="round"/>
<path fill-rule="evenodd" clip-rule="evenodd" d="M15.5459 7.54545H20.0914V3H15.5459V7.54545Z" stroke="#80757A" stroke-linecap="round" stroke-linejoin="round"/>
<path fill-rule="evenodd" clip-rule="evenodd" d="M8.27246 7.54545H12.8179V3H8.27246V7.54545Z" stroke="#80757A" stroke-linecap="round" stroke-linejoin="round"/>
<path fill-rule="evenodd" clip-rule="evenodd" d="M15.5459 14.8182H20.0914V10.2727H15.5459V14.8182Z" stroke="#80757A" stroke-linecap="round" stroke-linejoin="round"/>
<path fill-rule="evenodd" clip-rule="evenodd" d="M8.27246 14.8182H12.8179V10.2727H8.27246V14.8182Z" stroke="#80757A" stroke-linecap="round" stroke-linejoin="round"/>
<path fill-rule="evenodd" clip-rule="evenodd" d="M1 22.0909H5.54545V17.5455H1V22.0909Z" stroke="#80757A" stroke-linecap="round" stroke-linejoin="round"/>
<path fill-rule="evenodd" clip-rule="evenodd" d="M8.27246 22.0909H12.8179V17.5455H8.27246V22.0909Z" stroke="#80757A" stroke-linecap="round" stroke-linejoin="round"/>
</svg>
