<svg width="117" height="22" viewBox="0 0 117 22" fill="none" xmlns="http://www.w3.org/2000/svg">
<g clip-path="url(#clip0)">
<path d="M46.0619 7.084C46.0619 7.78 45.8219 8.36 45.3419 8.824C44.8699 9.28 44.1459 9.508 43.1699 9.508H41.5619V13H40.4699V4.636H43.1699C44.1139 4.636 44.8299 4.864 45.3179 5.32C45.8139 5.776 46.0619 6.364 46.0619 7.084ZM43.1699 8.608C43.7779 8.608 44.2259 8.476 44.5139 8.212C44.8019 7.948 44.9459 7.572 44.9459 7.084C44.9459 6.052 44.3539 5.536 43.1699 5.536H41.5619V8.608H43.1699ZM52.2111 13.084C51.4351 13.084 50.7271 12.904 50.0871 12.544C49.4471 12.176 48.9391 11.668 48.5631 11.02C48.1951 10.364 48.0111 9.628 48.0111 8.812C48.0111 7.996 48.1951 7.264 48.5631 6.616C48.9391 5.96 49.4471 5.452 50.0871 5.092C50.7271 4.724 51.4351 4.54 52.2111 4.54C52.9951 4.54 53.7071 4.724 54.3471 5.092C54.9871 5.452 55.4911 5.956 55.8591 6.604C56.2271 7.252 56.4111 7.988 56.4111 8.812C56.4111 9.636 56.2271 10.372 55.8591 11.02C55.4911 11.668 54.9871 12.176 54.3471 12.544C53.7071 12.904 52.9951 13.084 52.2111 13.084ZM52.2111 12.136C52.7951 12.136 53.3191 12 53.7831 11.728C54.2551 11.456 54.6231 11.068 54.8871 10.564C55.1591 10.06 55.2951 9.476 55.2951 8.812C55.2951 8.14 55.1591 7.556 54.8871 7.06C54.6231 6.556 54.2591 6.168 53.7951 5.896C53.3311 5.624 52.8031 5.488 52.2111 5.488C51.6191 5.488 51.0911 5.624 50.6271 5.896C50.1631 6.168 49.7951 6.556 49.5231 7.06C49.2591 7.556 49.1271 8.14 49.1271 8.812C49.1271 9.476 49.2591 10.06 49.5231 10.564C49.7951 11.068 50.1631 11.456 50.6271 11.728C51.0991 12 51.6271 12.136 52.2111 12.136ZM61.5047 13.084C60.9527 13.084 60.4567 12.988 60.0167 12.796C59.5847 12.596 59.2447 12.324 58.9967 11.98C58.7487 11.628 58.6207 11.224 58.6127 10.768H59.7767C59.8167 11.16 59.9767 11.492 60.2567 11.764C60.5447 12.028 60.9607 12.16 61.5047 12.16C62.0247 12.16 62.4327 12.032 62.7287 11.776C63.0327 11.512 63.1847 11.176 63.1847 10.768C63.1847 10.448 63.0967 10.188 62.9207 9.988C62.7447 9.788 62.5247 9.636 62.2607 9.532C61.9967 9.428 61.6407 9.316 61.1927 9.196C60.6407 9.052 60.1967 8.908 59.8607 8.764C59.5327 8.62 59.2487 8.396 59.0087 8.092C58.7767 7.78 58.6607 7.364 58.6607 6.844C58.6607 6.388 58.7767 5.984 59.0087 5.632C59.2407 5.28 59.5647 5.008 59.9807 4.816C60.4047 4.624 60.8887 4.528 61.4327 4.528C62.2167 4.528 62.8567 4.724 63.3527 5.116C63.8567 5.508 64.1407 6.028 64.2047 6.676H63.0047C62.9647 6.356 62.7967 6.076 62.5007 5.836C62.2047 5.588 61.8127 5.464 61.3247 5.464C60.8687 5.464 60.4967 5.584 60.2087 5.824C59.9207 6.056 59.7767 6.384 59.7767 6.808C59.7767 7.112 59.8607 7.36 60.0287 7.552C60.2047 7.744 60.4167 7.892 60.6647 7.996C60.9207 8.092 61.2767 8.204 61.7327 8.332C62.2847 8.484 62.7287 8.636 63.0647 8.788C63.4007 8.932 63.6887 9.16 63.9287 9.472C64.1687 9.776 64.2887 10.192 64.2887 10.72C64.2887 11.128 64.1807 11.512 63.9647 11.872C63.7487 12.232 63.4287 12.524 63.0047 12.748C62.5807 12.972 62.0807 13.084 61.5047 13.084ZM72.0437 4.636V5.524H69.7637V13H68.6717V5.524H66.3797V4.636H72.0437ZM79.3319 11.14H75.6839L75.0119 13H73.8599L76.8839 4.684H78.1439L81.1559 13H80.0039L79.3319 11.14ZM79.0199 10.252L77.5079 6.028L75.9959 10.252H79.0199ZM89.8098 7.06C89.5778 6.572 89.2418 6.196 88.8018 5.932C88.3618 5.66 87.8498 5.524 87.2658 5.524C86.6818 5.524 86.1538 5.66 85.6818 5.932C85.2178 6.196 84.8498 6.58 84.5778 7.084C84.3138 7.58 84.1818 8.156 84.1818 8.812C84.1818 9.468 84.3138 10.044 84.5778 10.54C84.8498 11.036 85.2178 11.42 85.6818 11.692C86.1538 11.956 86.6818 12.088 87.2658 12.088C88.0818 12.088 88.7538 11.844 89.2818 11.356C89.8098 10.868 90.1178 10.208 90.2058 9.376H86.8698V8.488H91.3698V9.328C91.3058 10.016 91.0898 10.648 90.7218 11.224C90.3538 11.792 89.8698 12.244 89.2698 12.58C88.6698 12.908 88.0018 13.072 87.2658 13.072C86.4898 13.072 85.7818 12.892 85.1418 12.532C84.5018 12.164 83.9938 11.656 83.6178 11.008C83.2498 10.36 83.0658 9.628 83.0658 8.812C83.0658 7.996 83.2498 7.264 83.6178 6.616C83.9938 5.96 84.5018 5.452 85.1418 5.092C85.7818 4.724 86.4898 4.54 87.2658 4.54C88.1538 4.54 88.9378 4.76 89.6178 5.2C90.3058 5.64 90.8058 6.26 91.1178 7.06H89.8098ZM94.9056 5.524V8.32H97.9536V9.22H94.9056V12.1H98.3136V13H93.8136V4.624H98.3136V5.524H94.9056ZM107.542 13H106.45L102.058 6.34V13H100.966V4.624H102.058L106.45 11.272V4.624H107.542V13ZM113.055 13.084C112.503 13.084 112.007 12.988 111.567 12.796C111.135 12.596 110.795 12.324 110.547 11.98C110.299 11.628 110.171 11.224 110.163 10.768H111.327C111.367 11.16 111.527 11.492 111.807 11.764C112.095 12.028 112.511 12.16 113.055 12.16C113.575 12.16 113.983 12.032 114.279 11.776C114.583 11.512 114.735 11.176 114.735 10.768C114.735 10.448 114.647 10.188 114.471 9.988C114.295 9.788 114.075 9.636 113.811 9.532C113.547 9.428 113.191 9.316 112.743 9.196C112.191 9.052 111.747 8.908 111.411 8.764C111.083 8.62 110.799 8.396 110.559 8.092C110.327 7.78 110.211 7.364 110.211 6.844C110.211 6.388 110.327 5.984 110.559 5.632C110.791 5.28 111.115 5.008 111.531 4.816C111.955 4.624 112.439 4.528 112.983 4.528C113.767 4.528 114.407 4.724 114.903 5.116C115.407 5.508 115.691 6.028 115.755 6.676H114.555C114.515 6.356 114.347 6.076 114.051 5.836C113.755 5.588 113.363 5.464 112.875 5.464C112.419 5.464 112.047 5.584 111.759 5.824C111.471 6.056 111.327 6.384 111.327 6.808C111.327 7.112 111.411 7.36 111.579 7.552C111.755 7.744 111.967 7.892 112.215 7.996C112.471 8.092 112.827 8.204 113.283 8.332C113.835 8.484 114.279 8.636 114.615 8.788C114.951 8.932 115.239 9.16 115.479 9.472C115.719 9.776 115.839 10.192 115.839 10.72C115.839 11.128 115.731 11.512 115.515 11.872C115.299 12.232 114.979 12.524 114.555 12.748C114.131 12.972 113.631 13.084 113.055 13.084Z" fill="#979797"/>
<path fill-rule="evenodd" clip-rule="evenodd" d="M0.454102 7.00001H4.99956V2.45456H0.454102V7.00001Z" stroke="#979797" stroke-linecap="round" stroke-linejoin="round"/>
<path fill-rule="evenodd" clip-rule="evenodd" d="M15 7.00001H19.5455V2.45456H15V7.00001Z" stroke="#979797" stroke-linecap="round" stroke-linejoin="round"/>
<path fill-rule="evenodd" clip-rule="evenodd" d="M7.72656 7.00001H12.272V2.45456H7.72656V7.00001Z" stroke="#979797" stroke-linecap="round" stroke-linejoin="round"/>
<path fill-rule="evenodd" clip-rule="evenodd" d="M15 14.2727H19.5455V9.72729H15V14.2727Z" stroke="#979797" stroke-linecap="round" stroke-linejoin="round"/>
<path fill-rule="evenodd" clip-rule="evenodd" d="M7.72656 14.2727H12.272V9.72729H7.72656V14.2727Z" stroke="#979797" stroke-linecap="round" stroke-linejoin="round"/>
<path fill-rule="evenodd" clip-rule="evenodd" d="M0.454102 21.5455H4.99956V17H0.454102V21.5455Z" stroke="#979797" stroke-linecap="round" stroke-linejoin="round"/>
<path fill-rule="evenodd" clip-rule="evenodd" d="M7.72656 21.5455H12.272V17H7.72656V21.5455Z" stroke="#979797" stroke-linecap="round" stroke-linejoin="round"/>
</g>
<defs>
<clipPath id="clip0">
<rect width="117" height="22" fill="white"/>
</clipPath>
</defs>
</svg>
