<svg width="248" height="72" viewBox="0 0 248 72" fill="none" xmlns="http://www.w3.org/2000/svg">
<path d="M7.68 64.36C9.672 64.36 11.136 63.88 12.12 62.944C13.104 62.008 13.584 60.376 13.584 58.048V55.576H7.704V57.256H11.544V58.264C11.544 61.504 10.416 62.584 7.728 62.584C4.824 62.584 3.528 61.144 3.528 57.52V53.704C3.528 50.08 4.752 48.856 7.704 48.856C10.32 48.856 11.544 49.912 11.544 52.888V53.272H13.536V52.888C13.536 50.752 13.032 49.264 12.024 48.4C11.04 47.512 9.6 47.08 7.704 47.08C5.616 47.08 4.032 47.608 2.952 48.64C1.872 49.672 1.344 51.496 1.344 54.088V57.568C1.344 60.04 1.872 61.792 2.928 62.824C3.984 63.832 5.568 64.336 7.68 64.36ZM17.9319 64.024V57.784C17.9319 55 19.2279 53.872 21.5319 53.776V51.712C19.8279 51.808 18.6279 52.528 17.8839 53.848L17.5959 52H15.7719V64.024H17.9319ZM25.9566 64.312C27.5646 64.312 28.8126 63.832 29.6526 62.896C29.9646 63.784 30.6366 64.216 31.7166 64.216C32.2686 64.216 32.7246 64.12 33.1086 63.904V62.368L32.3886 62.488C31.8366 62.488 31.5486 62.08 31.5486 61.24V55.912C31.5486 52.96 30.2286 51.664 26.9886 51.664C23.7246 51.664 22.4046 52.936 22.4046 55.888V56.296H24.3486V55.912C24.3486 53.92 24.9966 53.368 27.0126 53.368C28.7406 53.368 29.3886 54.088 29.3886 56.08V57.376H26.8446C23.3886 57.376 22.0206 58.48 22.0206 60.88C22.0206 63.16 23.3406 64.312 25.9566 64.312ZM26.4846 62.584C25.0686 62.584 24.2766 62.152 24.2766 60.808C24.2766 59.44 24.9966 58.936 26.9406 58.936H29.3886V60.664C29.3886 61.072 29.3886 61.36 29.4126 61.552C28.6926 62.248 27.7086 62.584 26.4846 62.584ZM40.1773 51.664C38.5453 51.664 37.3213 52.264 36.5053 53.44L36.0493 52H34.4413V68.512H36.6013V63.16C37.4893 63.928 38.5693 64.312 39.8413 64.312C43.0333 64.312 44.4013 62.632 44.4013 59.296V56.224C44.4013 53.152 43.1533 51.664 40.1773 51.664ZM42.2173 59.704C42.2173 61.72 41.3293 62.536 39.5053 62.536C38.4733 62.536 37.4893 62.2 36.6013 61.528V56.008C36.6013 54.376 37.7533 53.44 39.5533 53.44C41.4013 53.44 42.2173 54.208 42.2173 55.912V59.704ZM48.7719 64V55.624C48.8679 54.208 50.0679 53.44 51.7959 53.44C53.4519 53.44 54.1239 54.184 54.1239 55.984V64H56.2839V55.6C56.2839 52.984 55.0599 51.664 52.5879 51.664C50.8359 51.664 49.5639 52.192 48.7719 53.224V47.344H46.6119V64H48.7719ZM60.99 49.768V47.464H58.806V49.768H60.99ZM60.966 64V52H58.806V64H60.966ZM67.9629 64.312C69.4989 64.312 70.9389 64 72.2829 63.4V61.696C71.0829 62.248 69.7629 62.536 68.3469 62.536C66.3069 62.536 65.2989 61.624 65.2989 59.824V56.032C65.2989 54.112 66.1149 53.368 67.8669 53.368C69.6669 53.368 70.5069 54.04 70.5069 55.936V57.016H72.4749V55.768C72.4749 53.008 71.0109 51.664 67.8669 51.664C64.6989 51.664 63.1149 53.272 63.1149 56.248V59.632C63.1149 62.752 64.7229 64.312 67.9629 64.312ZM84.1191 64C86.4951 64 87.9351 63.688 89.2071 62.656C90.5271 61.6 91.1271 59.584 91.1271 56.44V55.336C91.1271 52.048 90.5271 49.936 89.2551 48.808C87.9831 47.68 86.5191 47.344 84.1911 47.344H79.2471V64H84.1191ZM81.4551 49.192H84.2871C86.0391 49.192 87.2391 49.6 87.8871 50.44C88.5351 51.28 88.8711 52.84 88.8711 55.12V56.632C88.8711 59.032 88.6311 60.4 87.8391 61.192C87.0711 61.96 86.1111 62.152 84.2871 62.152H81.4551V49.192ZM95.0602 58.6H102.476V56.368C102.476 53.128 101.012 51.664 97.7482 51.664C94.5082 51.664 92.9002 53.248 92.9002 56.416V59.248C92.9002 62.488 94.7002 64.336 97.8442 64.336C99.5002 64.336 100.892 64.024 102.02 63.424V61.72C101.852 61.84 101.372 62.104 100.124 62.392C99.5002 62.512 98.8522 62.584 98.2042 62.584C96.2842 62.584 95.0602 61.432 95.0602 59.488V58.6ZM100.436 56.992H95.0602V56.152C95.0602 54.304 95.9482 53.368 97.7482 53.368C99.5482 53.368 100.436 54.304 100.436 56.176V56.992ZM108.48 64.312C111.768 64.312 113.208 63.208 113.208 60.736C113.208 58.936 112.464 57.88 110.352 57.424L107.472 56.752C106.512 56.56 106.032 56.032 106.032 55.192C106.032 53.92 106.632 53.416 108.456 53.416C110.256 53.416 111 54.016 111 55.432V56.008H113.016V55.384C112.992 52.792 111.624 51.664 108.456 51.664C105.504 51.664 104.04 52.864 104.04 55.24C104.04 57.232 105 58.192 107.136 58.672L109.344 59.152C110.712 59.416 111.216 59.896 111.216 60.856C111.216 62.104 110.592 62.608 108.504 62.608C106.56 62.608 105.864 62.032 105.864 60.952V60.448H103.872V61.192C103.872 63.376 105.288 64.312 108.48 64.312ZM117.373 49.768V47.464H115.189V49.768H117.373ZM117.349 64V52H115.189V64H117.349ZM127.466 52.984C126.578 52.096 125.45 51.664 124.058 51.664C120.89 51.664 119.546 53.368 119.546 56.656V59.632C119.546 62.728 120.77 64.192 123.722 64.192C125.33 64.192 126.53 63.64 127.322 62.56V64.024C127.322 65.968 126.194 66.952 123.938 66.976C122.618 66.976 121.37 66.64 120.194 65.992V67.888C121.25 68.44 122.546 68.728 124.106 68.728C127.346 68.752 129.482 67.072 129.482 64.072V52H127.682L127.466 52.984ZM124.394 62.44C122.546 62.44 121.73 61.648 121.73 59.944V56.272C121.73 54.28 122.618 53.44 124.418 53.44C125.354 53.44 126.338 53.776 127.322 54.448V59.848C127.322 61.504 126.194 62.44 124.394 62.44ZM134.237 64V55.768C134.237 54.304 135.485 53.44 137.285 53.44C138.917 53.44 139.613 54.208 139.613 55.912V64H141.773V55.744C141.773 53.032 140.549 51.664 138.125 51.664C136.325 51.664 135.029 52.24 134.189 53.368L133.853 52H132.077V64H134.237ZM145.999 58.6H153.415V56.368C153.415 53.128 151.951 51.664 148.687 51.664C145.447 51.664 143.839 53.248 143.839 56.416V59.248C143.839 62.488 145.639 64.336 148.783 64.336C150.439 64.336 151.831 64.024 152.959 63.424V61.72C152.791 61.84 152.311 62.104 151.063 62.392C150.439 62.512 149.791 62.584 149.143 62.584C147.223 62.584 145.999 61.432 145.999 59.488V58.6ZM151.375 56.992H145.999V56.152C145.999 54.304 146.887 53.368 148.687 53.368C150.487 53.368 151.375 54.304 151.375 56.176V56.992ZM157.571 64.024V57.784C157.571 55 158.867 53.872 161.171 53.776V51.712C159.467 51.808 158.267 52.528 157.523 53.848L157.235 52H155.411V64.024H157.571Z" fill="#939496"/>
<path d="M10.26 31C13.824 31 15.984 30.532 17.892 28.984C19.872 27.4 20.772 24.376 20.772 19.66V18.004C20.772 13.072 19.872 9.904 17.964 8.212C16.056 6.52 13.86 6.016 10.368 6.016H2.952V31H10.26ZM6.264 8.788H10.512C13.14 8.788 14.94 9.4 15.912 10.66C16.884 11.92 17.388 14.26 17.388 17.68V19.948C17.388 23.548 17.028 25.6 15.84 26.788C14.688 27.94 13.248 28.228 10.512 28.228H6.264V8.788ZM27.7518 22.9H38.8758V19.552C38.8758 14.692 36.6798 12.496 31.7838 12.496C26.9238 12.496 24.5118 14.872 24.5118 19.624V23.872C24.5118 28.732 27.2118 31.504 31.9278 31.504C34.4118 31.504 36.4998 31.036 38.1918 30.136V27.58C37.9398 27.76 37.2198 28.156 35.3478 28.588C34.4118 28.768 33.4398 28.876 32.4678 28.876C29.5878 28.876 27.7518 27.148 27.7518 24.232V22.9ZM35.8158 20.488H27.7518V19.228C27.7518 16.456 29.0838 15.052 31.7838 15.052C34.4838 15.052 35.8158 16.456 35.8158 19.264V20.488ZM48.9608 31.468C53.8928 31.468 56.0528 29.812 56.0528 26.104C56.0528 23.404 54.9368 21.82 51.7688 21.136L47.4488 20.128C46.0088 19.84 45.2888 19.048 45.2888 17.788C45.2888 15.88 46.1888 15.124 48.9248 15.124C51.6248 15.124 52.7408 16.024 52.7408 18.148V19.012H55.7648V18.076C55.7288 14.188 53.6768 12.496 48.9248 12.496C44.4968 12.496 42.3008 14.296 42.3008 17.86C42.3008 20.848 43.7408 22.288 46.9448 23.008L50.2568 23.728C52.3088 24.124 53.0648 24.844 53.0648 26.284C53.0648 28.156 52.1288 28.912 48.9968 28.912C46.0808 28.912 45.0368 28.048 45.0368 26.428V25.672H42.0488V26.788C42.0488 30.064 44.1728 31.468 48.9608 31.468ZM63.3811 9.652V6.196H60.1051V9.652H63.3811ZM63.3451 31V13H60.1051V31H63.3451ZM79.6005 14.476C78.2685 13.144 76.5765 12.496 74.4885 12.496C69.7365 12.496 67.7205 15.052 67.7205 19.984V24.448C67.7205 29.092 69.5565 31.288 73.9845 31.288C76.3965 31.288 78.1965 30.46 79.3845 28.84V31.036C79.3845 33.952 77.6925 35.428 74.3085 35.464C72.3285 35.464 70.4565 34.96 68.6925 33.988V36.832C70.2765 37.66 72.2205 38.092 74.5605 38.092C79.4205 38.128 82.6245 35.608 82.6245 31.108V13H79.9245L79.6005 14.476ZM74.9925 28.66C72.2205 28.66 70.9965 27.472 70.9965 24.916V19.408C70.9965 16.42 72.3285 15.16 75.0285 15.16C76.4325 15.16 77.9085 15.664 79.3845 16.672V24.772C79.3845 27.256 77.6925 28.66 74.9925 28.66ZM90.8373 31V18.652C90.8373 16.456 92.7093 15.16 95.4093 15.16C97.8573 15.16 98.9013 16.312 98.9013 18.868V31H102.141V18.616C102.141 14.548 100.305 12.496 96.6693 12.496C93.9693 12.496 92.0253 13.36 90.7653 15.052L90.2613 13H87.5973V31H90.8373ZM109.56 22.9H120.684V19.552C120.684 14.692 118.488 12.496 113.592 12.496C108.732 12.496 106.32 14.872 106.32 19.624V23.872C106.32 28.732 109.02 31.504 113.736 31.504C116.22 31.504 118.308 31.036 120 30.136V27.58C119.748 27.76 119.028 28.156 117.156 28.588C116.22 28.768 115.248 28.876 114.276 28.876C111.396 28.876 109.56 27.148 109.56 24.232V22.9ZM117.624 20.488H109.56V19.228C109.56 16.456 110.892 15.052 113.592 15.052C116.292 15.052 117.624 16.456 117.624 19.264V20.488ZM127.997 31.036V21.676C127.997 17.5 129.941 15.808 133.397 15.664V12.568C130.841 12.712 129.041 13.792 127.925 15.772L127.493 13H124.757V31.036H127.997ZM152.426 31.54C155.414 31.54 157.61 30.82 159.086 29.416C160.562 28.012 161.282 25.564 161.282 22.072V18.364H152.462V20.884H158.222V22.396C158.222 27.256 156.53 28.876 152.498 28.876C148.142 28.876 146.198 26.716 146.198 21.28V15.556C146.198 10.12 148.034 8.284 152.462 8.284C156.386 8.284 158.222 9.868 158.222 14.332V14.908H161.21V14.332C161.21 11.128 160.454 8.896 158.942 7.6C157.466 6.268 155.306 5.62 152.462 5.62C149.33 5.62 146.954 6.412 145.334 7.96C143.714 9.508 142.922 12.244 142.922 16.132V21.352C142.922 25.06 143.714 27.688 145.298 29.236C146.882 30.748 149.258 31.504 152.426 31.54ZM168.884 31.036V21.676C168.884 17.5 170.828 15.808 174.284 15.664V12.568C171.728 12.712 169.928 13.792 168.812 15.772L168.38 13H165.644V31.036H168.884ZM183.981 10.336L187.257 4.972H183.873L181.749 10.336H183.981ZM182.001 31.468C184.413 31.468 186.285 30.748 187.545 29.344C188.013 30.676 189.021 31.324 190.641 31.324C191.469 31.324 192.153 31.18 192.729 30.856V28.552L191.649 28.732C190.821 28.732 190.389 28.12 190.389 26.86V18.868C190.389 14.44 188.409 12.496 183.549 12.496C178.653 12.496 176.673 14.404 176.673 18.832V19.444H179.589V18.868C179.589 15.88 180.561 15.052 183.585 15.052C186.177 15.052 187.149 16.132 187.149 19.12V21.064H183.333C178.149 21.064 176.097 22.72 176.097 26.32C176.097 29.74 178.077 31.468 182.001 31.468ZM182.793 28.876C180.669 28.876 179.481 28.228 179.481 26.212C179.481 24.16 180.561 23.404 183.477 23.404H187.149V25.996C187.149 26.608 187.149 27.04 187.185 27.328C186.105 28.372 184.629 28.876 182.793 28.876ZM201.532 5.62C198.184 5.62 196.384 7.42 196.384 10.408V13H194.44V15.664H196.384V31H199.624V15.664H203.188V13H199.588V10.444C199.588 8.86 200.38 8.212 202.144 8.212C203.26 8.212 203.908 8.536 204.088 8.536V6.088C203.404 5.764 202.576 5.62 201.532 5.62ZM209.236 9.364V5.908H205.96V9.364H209.236ZM209.2 31V13H205.96V31H209.2ZM220.819 31.468C223.123 31.468 225.283 31 227.299 30.1V27.544C225.499 28.372 223.519 28.804 221.395 28.804C218.335 28.804 216.823 27.436 216.823 24.736V19.048C216.823 16.168 218.047 15.052 220.675 15.052C223.375 15.052 224.635 16.06 224.635 18.904V20.524H227.587V18.652C227.587 14.512 225.391 12.496 220.675 12.496C215.923 12.496 213.547 14.908 213.547 19.372V24.448C213.547 29.128 215.959 31.468 220.819 31.468ZM231.055 24.052C231.055 29.2 233.503 31.504 238.579 31.504C243.655 31.504 246.103 29.2 246.103 24.052V19.984C246.103 14.836 243.655 12.532 238.579 12.532C233.503 12.532 231.055 14.836 231.055 19.984V24.052ZM242.863 24.628C242.863 27.508 241.423 28.948 238.579 28.948C235.735 28.948 234.295 27.508 234.295 24.628V19.408C234.295 16.492 235.735 15.052 238.579 15.052C241.423 15.052 242.863 16.492 242.863 19.408V24.628Z" fill="black"/>
</svg>
