<svg width="228" height="68" viewBox="0 0 228 68" fill="none" xmlns="http://www.w3.org/2000/svg">
<path d="M10.672 27.352C10.672 28.4933 10.4427 29.4907 9.984 30.344C9.52533 31.1867 8.848 31.8427 7.952 32.312C7.06667 32.7707 6 33 4.752 33H1.168V21.72H4.752C6 21.72 7.06667 21.9493 7.952 22.408C8.848 22.856 9.52533 23.5067 9.984 24.36C10.4427 25.2027 10.672 26.2 10.672 27.352ZM4.64 31.688C6.112 31.688 7.23733 31.3093 8.016 30.552C8.79467 29.7947 9.184 28.728 9.184 27.352C9.184 25.976 8.79467 24.9093 8.016 24.152C7.248 23.384 6.12267 23 4.64 23H2.624V31.688H4.64ZM12.8808 21.64C12.8808 21.3733 12.9714 21.16 13.1528 21C13.3341 20.8293 13.5741 20.744 13.8728 20.744C14.1714 20.744 14.4114 20.8293 14.5928 21C14.7741 21.16 14.8648 21.3733 14.8648 21.64C14.8648 21.9067 14.7741 22.1253 14.5928 22.296C14.4114 22.456 14.1714 22.536 13.8728 22.536C13.5741 22.536 13.3341 22.456 13.1528 22.296C12.9714 22.1253 12.8808 21.9067 12.8808 21.64ZM14.5928 24.216V33H13.1368V24.216H14.5928ZM25.5136 28.12C25.5136 28.4293 25.4923 28.696 25.4496 28.92H18.4256C18.4576 29.9227 18.7403 30.6747 19.2736 31.176C19.8176 31.6773 20.479 31.928 21.2576 31.928C21.9616 31.928 22.5483 31.752 23.0176 31.4C23.4976 31.0373 23.791 30.5573 23.8976 29.96H25.4496C25.343 30.568 25.103 31.112 24.7296 31.592C24.367 32.072 23.8923 32.4453 23.3056 32.712C22.719 32.9787 22.0576 33.112 21.3216 33.112C20.479 33.112 19.7323 32.9307 19.0816 32.568C18.431 32.2053 17.919 31.688 17.5456 31.016C17.183 30.3333 17.0016 29.5333 17.0016 28.616C17.0016 27.6987 17.183 26.8987 17.5456 26.216C17.919 25.5333 18.431 25.0107 19.0816 24.648C19.7323 24.2853 20.479 24.104 21.3216 24.104C22.175 24.104 22.9163 24.2853 23.5456 24.648C24.1856 25.0107 24.671 25.496 25.0016 26.104C25.343 26.712 25.5136 27.384 25.5136 28.12ZM24.0416 28.216C24.0736 27.5653 23.967 27.0213 23.7216 26.584C23.4763 26.1467 23.1403 25.8213 22.7136 25.608C22.287 25.3947 21.823 25.288 21.3216 25.288C20.5216 25.288 19.8496 25.5387 19.3056 26.04C18.7616 26.5307 18.4683 27.256 18.4256 28.216H24.0416ZM31.518 24.104C32.3713 24.104 33.0913 24.3173 33.678 24.744C34.2753 25.1707 34.6913 25.7413 34.926 26.456V24.216H36.382V33.144C36.382 33.9547 36.2113 34.6747 35.87 35.304C35.5287 35.9333 35.0487 36.424 34.43 36.776C33.8113 37.128 33.0913 37.304 32.27 37.304C31.086 37.304 30.1207 37.016 29.374 36.44C28.6273 35.8747 28.1527 35.1067 27.95 34.136H29.39C29.5607 34.7227 29.8807 35.1813 30.35 35.512C30.83 35.8533 31.4433 36.024 32.19 36.024C32.9793 36.024 33.63 35.768 34.142 35.256C34.6647 34.7547 34.926 34.0507 34.926 33.144V30.76C34.6913 31.4747 34.2753 32.0453 33.678 32.472C33.0913 32.8987 32.3713 33.112 31.518 33.112C30.7393 33.112 30.046 32.9307 29.438 32.568C28.83 32.2053 28.35 31.688 27.998 31.016C27.6567 30.3333 27.486 29.5333 27.486 28.616C27.486 27.6987 27.6567 26.8987 27.998 26.216C28.35 25.5333 28.83 25.0107 29.438 24.648C30.046 24.2853 30.7393 24.104 31.518 24.104ZM31.934 25.4C31.038 25.4 30.318 25.688 29.774 26.264C29.2407 26.8293 28.974 27.6133 28.974 28.616C28.974 29.6187 29.2407 30.408 29.774 30.984C30.318 31.5493 31.038 31.832 31.934 31.832C32.51 31.832 33.022 31.6987 33.47 31.432C33.9287 31.1653 34.286 30.792 34.542 30.312C34.798 29.8213 34.926 29.256 34.926 28.616C34.926 27.976 34.798 27.4107 34.542 26.92C34.286 26.4293 33.9287 26.056 33.47 25.8C33.022 25.5333 32.51 25.4 31.934 25.4ZM43.1833 24.104C44.0259 24.104 44.7779 24.2853 45.4393 24.648C46.1113 25.0107 46.6339 25.5333 47.0073 26.216C47.3913 26.8987 47.5833 27.6987 47.5833 28.616C47.5833 29.5333 47.3913 30.3333 47.0073 31.016C46.6339 31.688 46.1113 32.2053 45.4393 32.568C44.7779 32.9307 44.0259 33.112 43.1833 33.112C42.3406 33.112 41.5833 32.9307 40.9113 32.568C40.2499 32.2053 39.7273 31.688 39.3433 31.016C38.9593 30.3333 38.7673 29.5333 38.7673 28.616C38.7673 27.6987 38.9593 26.8987 39.3433 26.216C39.7273 25.5333 40.2499 25.0107 40.9113 24.648C41.5833 24.2853 42.3406 24.104 43.1833 24.104ZM43.1833 25.384C42.6606 25.384 42.1753 25.5013 41.7273 25.736C41.2899 25.9707 40.9326 26.3333 40.6553 26.824C40.3886 27.304 40.2553 27.9013 40.2553 28.616C40.2553 29.32 40.3886 29.9173 40.6553 30.408C40.9326 30.888 41.2899 31.2453 41.7273 31.48C42.1753 31.7147 42.6606 31.832 43.1833 31.832C43.7059 31.832 44.1859 31.7147 44.6233 31.48C45.0713 31.2453 45.4286 30.888 45.6953 30.408C45.9726 29.9173 46.1112 29.32 46.1112 28.616C46.1112 27.9013 45.9726 27.304 45.6953 26.824C45.4286 26.3333 45.0713 25.9707 44.6233 25.736C44.1859 25.5013 43.7059 25.384 43.1833 25.384ZM63.9376 27.352C63.9376 28.4933 63.7083 29.4907 63.2496 30.344C62.791 31.1867 62.1136 31.8427 61.2176 32.312C60.3323 32.7707 59.2656 33 58.0176 33H54.4336V21.72H58.0176C59.2656 21.72 60.3323 21.9493 61.2176 22.408C62.1136 22.856 62.791 23.5067 63.2496 24.36C63.7083 25.2027 63.9376 26.2 63.9376 27.352ZM57.9056 31.688C59.3776 31.688 60.503 31.3093 61.2816 30.552C62.0603 29.7947 62.4496 28.728 62.4496 27.352C62.4496 25.976 62.0603 24.9093 61.2816 24.152C60.5136 23.384 59.3883 23 57.9056 23H55.8896V31.688H57.9056ZM74.4824 28.12C74.4824 28.4293 74.461 28.696 74.4184 28.92H67.3944C67.4264 29.9227 67.709 30.6747 68.2424 31.176C68.7864 31.6773 69.4477 31.928 70.2264 31.928C70.9304 31.928 71.517 31.752 71.9864 31.4C72.4664 31.0373 72.7597 30.5573 72.8664 29.96H74.4184C74.3117 30.568 74.0717 31.112 73.6984 31.592C73.3357 32.072 72.861 32.4453 72.2744 32.712C71.6877 32.9787 71.0264 33.112 70.2904 33.112C69.4477 33.112 68.701 32.9307 68.0504 32.568C67.3997 32.2053 66.8877 31.688 66.5144 31.016C66.1517 30.3333 65.9704 29.5333 65.9704 28.616C65.9704 27.6987 66.1517 26.8987 66.5144 26.216C66.8877 25.5333 67.3997 25.0107 68.0504 24.648C68.701 24.2853 69.4477 24.104 70.2904 24.104C71.1437 24.104 71.885 24.2853 72.5144 24.648C73.1544 25.0107 73.6397 25.496 73.9704 26.104C74.3117 26.712 74.4824 27.384 74.4824 28.12ZM73.0104 28.216C73.0424 27.5653 72.9357 27.0213 72.6904 26.584C72.445 26.1467 72.109 25.8213 71.6824 25.608C71.2557 25.3947 70.7917 25.288 70.2904 25.288C69.4904 25.288 68.8184 25.5387 68.2744 26.04C67.7304 26.5307 67.437 27.256 67.3944 28.216H73.0104ZM86.4599 21.608C87.7719 21.608 88.8705 21.9333 89.7559 22.584C90.6519 23.2347 91.2545 24.12 91.5639 25.24H90.0279C89.7612 24.5573 89.3132 24.008 88.6839 23.592C88.0652 23.176 87.3292 22.968 86.4759 22.968C85.7079 22.968 85.0199 23.1493 84.4119 23.512C83.8039 23.864 83.3239 24.3707 82.9719 25.032C82.6305 25.6933 82.4599 26.472 82.4599 27.368C82.4599 28.2853 82.6359 29.08 82.9879 29.752C83.3399 30.4133 83.8252 30.9253 84.4439 31.288C85.0732 31.64 85.7932 31.816 86.6039 31.816C87.2972 31.816 87.9319 31.6667 88.5079 31.368C89.0839 31.0693 89.5532 30.6373 89.9159 30.072C90.2892 29.496 90.5132 28.824 90.5879 28.056H86.1559V26.968H91.8199V28.312C91.7239 29.208 91.4465 30.0187 90.9879 30.744C90.5292 31.4693 89.9105 32.0453 89.1319 32.472C88.3532 32.8987 87.4679 33.112 86.4759 33.112C85.3879 33.112 84.4279 32.872 83.5959 32.392C82.7639 31.9013 82.1132 31.224 81.6439 30.36C81.1852 29.4853 80.9559 28.488 80.9559 27.368C80.9559 26.248 81.1852 25.256 81.6439 24.392C82.1132 23.5173 82.7639 22.8347 83.5959 22.344C84.4279 21.8533 85.3825 21.608 86.4599 21.608ZM95.749 25.992C96.037 25.384 96.4583 24.9147 97.013 24.584C97.5677 24.2427 98.229 24.072 98.997 24.072V25.656H98.549C97.7277 25.656 97.0557 25.8693 96.533 26.296C96.0103 26.712 95.749 27.4053 95.749 28.376V33H94.293V24.216H95.749V25.992ZM104.534 24.104C105.387 24.104 106.107 24.3173 106.694 24.744C107.291 25.1707 107.707 25.7413 107.942 26.456V24.216H109.398V33H107.942V30.76C107.707 31.4747 107.291 32.0453 106.694 32.472C106.107 32.8987 105.387 33.112 104.534 33.112C103.755 33.112 103.062 32.9307 102.454 32.568C101.846 32.2053 101.366 31.688 101.014 31.016C100.672 30.3333 100.502 29.5333 100.502 28.616C100.502 27.6987 100.672 26.8987 101.014 26.216C101.366 25.5333 101.846 25.0107 102.454 24.648C103.062 24.2853 103.755 24.104 104.534 24.104ZM104.95 25.4C104.054 25.4 103.334 25.688 102.79 26.264C102.256 26.8293 101.99 27.6133 101.99 28.616C101.99 29.6187 102.256 30.408 102.79 30.984C103.334 31.5493 104.054 31.832 104.95 31.832C105.526 31.832 106.038 31.6987 106.486 31.432C106.944 31.1653 107.302 30.792 107.558 30.312C107.814 29.8213 107.942 29.256 107.942 28.616C107.942 27.976 107.814 27.4107 107.558 26.92C107.302 26.4293 106.944 26.056 106.486 25.8C106.038 25.5333 105.526 25.4 104.95 25.4ZM116.839 24.072C117.863 24.072 118.69 24.4027 119.319 25.064C119.948 25.7147 120.263 26.6587 120.263 27.896V33H118.807V28.024C118.807 27.1493 118.583 26.4773 118.135 26.008C117.687 25.5387 117.079 25.304 116.311 25.304C115.511 25.304 114.871 25.5653 114.391 26.088C113.911 26.6 113.671 27.352 113.671 28.344V33H112.215V24.216H113.671V26.296C113.895 25.5813 114.29 25.032 114.855 24.648C115.431 24.264 116.092 24.072 116.839 24.072ZM126.596 24.104C127.449 24.104 128.169 24.3173 128.756 24.744C129.353 25.1707 129.769 25.7413 130.004 26.456V21.16H131.46V33H130.004V30.76C129.769 31.4747 129.353 32.0453 128.756 32.472C128.169 32.8987 127.449 33.112 126.596 33.112C125.817 33.112 125.124 32.9307 124.516 32.568C123.908 32.2053 123.428 31.688 123.076 31.016C122.735 30.3333 122.564 29.5333 122.564 28.616C122.564 27.6987 122.735 26.8987 123.076 26.216C123.428 25.5333 123.908 25.0107 124.516 24.648C125.124 24.2853 125.817 24.104 126.596 24.104ZM127.012 25.4C126.116 25.4 125.396 25.688 124.852 26.264C124.319 26.8293 124.052 27.6133 124.052 28.616C124.052 29.6187 124.319 30.408 124.852 30.984C125.396 31.5493 126.116 31.832 127.012 31.832C127.588 31.832 128.1 31.6987 128.548 31.432C129.007 31.1653 129.364 30.792 129.62 30.312C129.876 29.8213 130.004 29.256 130.004 28.616C130.004 27.976 129.876 27.4107 129.62 26.92C129.364 26.4293 129.007 26.056 128.548 25.8C128.1 25.5333 127.588 25.4 127.012 25.4ZM134.021 21.64C134.021 21.3733 134.112 21.16 134.293 21C134.475 20.8293 134.715 20.744 135.013 20.744C135.312 20.744 135.552 20.8293 135.733 21C135.915 21.16 136.005 21.3733 136.005 21.64C136.005 21.9067 135.915 22.1253 135.733 22.296C135.552 22.456 135.312 22.536 135.013 22.536C134.715 22.536 134.475 22.456 134.293 22.296C134.112 22.1253 134.021 21.9067 134.021 21.64ZM135.733 24.216V33H134.277V24.216H135.733ZM5.832 49.044H2.112L1.404 51H0.228L3.36 42.696H4.596L7.716 51H6.54L5.832 49.044ZM5.52 48.192L3.972 43.92L2.424 48.192H5.52ZM12.0213 44.328C12.6613 44.328 13.2013 44.488 13.6413 44.808C14.0893 45.128 14.4013 45.556 14.5773 46.092V42.12H15.6693V51H14.5773V49.32C14.4013 49.856 14.0893 50.284 13.6413 50.604C13.2013 50.924 12.6613 51.084 12.0213 51.084C11.4373 51.084 10.9173 50.948 10.4613 50.676C10.0053 50.404 9.64531 50.016 9.38131 49.512C9.12531 49 8.99731 48.4 8.99731 47.712C8.99731 47.024 9.12531 46.424 9.38131 45.912C9.64531 45.4 10.0053 45.008 10.4613 44.736C10.9173 44.464 11.4373 44.328 12.0213 44.328ZM12.3333 45.3C11.6613 45.3 11.1213 45.516 10.7133 45.948C10.3133 46.372 10.1133 46.96 10.1133 47.712C10.1133 48.464 10.3133 49.056 10.7133 49.488C11.1213 49.912 11.6613 50.124 12.3333 50.124C12.7653 50.124 13.1493 50.024 13.4853 49.824C13.8293 49.624 14.0973 49.344 14.2893 48.984C14.4813 48.616 14.5773 48.192 14.5773 47.712C14.5773 47.232 14.4813 46.808 14.2893 46.44C14.0973 46.072 13.8293 45.792 13.4853 45.6C13.1493 45.4 12.7653 45.3 12.3333 45.3ZM26.0073 44.304C26.7753 44.304 27.3913 44.552 27.8553 45.048C28.3273 45.536 28.5633 46.244 28.5633 47.172V51H27.4713V47.268C27.4713 46.62 27.3113 46.124 26.9913 45.78C26.6793 45.436 26.2473 45.264 25.6953 45.264C25.1193 45.264 24.6553 45.456 24.3033 45.84C23.9593 46.216 23.7873 46.772 23.7873 47.508V51H22.6953V47.268C22.6953 46.62 22.5353 46.124 22.2153 45.78C21.8953 45.436 21.4633 45.264 20.9193 45.264C20.3353 45.264 19.8673 45.456 19.5153 45.84C19.1713 46.216 18.9993 46.772 18.9993 47.508V51H17.9073V44.412H18.9993V45.912C19.1593 45.392 19.4433 44.996 19.8513 44.724C20.2673 44.444 20.7433 44.304 21.2793 44.304C21.8393 44.304 22.3233 44.448 22.7313 44.736C23.1473 45.016 23.4433 45.432 23.6193 45.984C23.8033 45.448 24.1113 45.036 24.5433 44.748C24.9753 44.452 25.4633 44.304 26.0073 44.304ZM30.5668 42.48C30.5668 42.28 30.6348 42.12 30.7708 42C30.9068 41.872 31.0868 41.808 31.3108 41.808C31.5348 41.808 31.7148 41.872 31.8508 42C31.9868 42.12 32.0548 42.28 32.0548 42.48C32.0548 42.68 31.9868 42.844 31.8508 42.972C31.7148 43.092 31.5348 43.152 31.3108 43.152C31.0868 43.152 30.9068 43.092 30.7708 42.972C30.6348 42.844 30.5668 42.68 30.5668 42.48ZM31.8508 44.412V51H30.7588V44.412H31.8508ZM37.5745 44.304C38.3425 44.304 38.9625 44.552 39.4345 45.048C39.9065 45.536 40.1425 46.244 40.1425 47.172V51H39.0505V47.268C39.0505 46.612 38.8825 46.108 38.5465 45.756C38.2105 45.404 37.7545 45.228 37.1785 45.228C36.5785 45.228 36.0985 45.424 35.7385 45.816C35.3785 46.2 35.1985 46.764 35.1985 47.508V51H34.1065V44.412H35.1985V45.972C35.3665 45.436 35.6625 45.024 36.0865 44.736C36.5185 44.448 37.0145 44.304 37.5745 44.304ZM42.1254 42.48C42.1254 42.28 42.1934 42.12 42.3294 42C42.4654 41.872 42.6454 41.808 42.8694 41.808C43.0934 41.808 43.2734 41.872 43.4094 42C43.5454 42.12 43.6134 42.28 43.6134 42.48C43.6134 42.68 43.5454 42.844 43.4094 42.972C43.2734 43.092 43.0934 43.152 42.8694 43.152C42.6454 43.152 42.4654 43.092 42.3294 42.972C42.1934 42.844 42.1254 42.68 42.1254 42.48ZM43.4094 44.412V51H42.3174V44.412H43.4094ZM47.7291 44.328C48.4731 44.328 49.0691 44.524 49.5171 44.916C49.9731 45.3 50.2491 45.82 50.3451 46.476H49.3011C49.2531 46.084 49.0891 45.764 48.8091 45.516C48.5371 45.26 48.1691 45.132 47.7051 45.132C47.3131 45.132 47.0051 45.228 46.7811 45.42C46.5651 45.604 46.4571 45.856 46.4571 46.176C46.4571 46.416 46.5291 46.612 46.6731 46.764C46.8251 46.908 47.0091 47.02 47.2251 47.1C47.4491 47.172 47.7531 47.252 48.1371 47.34C48.6251 47.452 49.0171 47.568 49.3131 47.688C49.6171 47.8 49.8731 47.984 50.0811 48.24C50.2971 48.496 50.4051 48.84 50.4051 49.272C50.4051 49.808 50.2011 50.244 49.7931 50.58C49.3931 50.916 48.8571 51.084 48.1851 51.084C47.4011 51.084 46.7611 50.896 46.2651 50.52C45.7691 50.144 45.4771 49.62 45.3891 48.948H46.4451C46.4851 49.348 46.6571 49.672 46.9611 49.92C47.2731 50.168 47.6811 50.292 48.1851 50.292C48.5611 50.292 48.8531 50.196 49.0611 50.004C49.2771 49.812 49.3851 49.56 49.3851 49.248C49.3851 48.992 49.3091 48.788 49.1571 48.636C49.0051 48.484 48.8171 48.368 48.5931 48.288C48.3691 48.208 48.0611 48.124 47.6691 48.036C47.1811 47.924 46.7891 47.812 46.4931 47.7C46.2051 47.588 45.9571 47.412 45.7491 47.172C45.5491 46.924 45.4491 46.592 45.4491 46.176C45.4491 45.624 45.6531 45.18 46.0611 44.844C46.4691 44.5 47.0251 44.328 47.7291 44.328ZM55.5083 50.04V51H54.6923C54.0203 51 53.5163 50.84 53.1803 50.52C52.8523 50.2 52.6883 49.664 52.6883 48.912V45.36H51.7043V44.412H52.6883V42.768H53.7923V44.412H55.4963V45.36H53.7923V48.936C53.7923 49.36 53.8683 49.652 54.0203 49.812C54.1803 49.964 54.4523 50.04 54.8363 50.04H55.5083ZM58.4328 45.744C58.6488 45.288 58.9648 44.936 59.3808 44.688C59.7968 44.432 60.2928 44.304 60.8688 44.304V45.492H60.5328C59.9168 45.492 59.4128 45.652 59.0208 45.972C58.6288 46.284 58.4328 46.804 58.4328 47.532V51H57.3408V44.412H58.4328V45.744ZM65.1463 44.328C65.7863 44.328 66.3263 44.488 66.7663 44.808C67.2143 45.128 67.5263 45.556 67.7023 46.092V44.412H68.7943V51H67.7023V49.32C67.5263 49.856 67.2143 50.284 66.7663 50.604C66.3263 50.924 65.7863 51.084 65.1463 51.084C64.5623 51.084 64.0423 50.948 63.5863 50.676C63.1303 50.404 62.7703 50.016 62.5063 49.512C62.2503 49 62.1223 48.4 62.1223 47.712C62.1223 47.024 62.2503 46.424 62.5063 45.912C62.7703 45.4 63.1303 45.008 63.5863 44.736C64.0423 44.464 64.5623 44.328 65.1463 44.328ZM65.4583 45.3C64.7863 45.3 64.2463 45.516 63.8383 45.948C63.4383 46.372 63.2383 46.96 63.2383 47.712C63.2383 48.464 63.4383 49.056 63.8383 49.488C64.2463 49.912 64.7863 50.124 65.4583 50.124C65.8903 50.124 66.2743 50.024 66.6103 49.824C66.9543 49.624 67.2223 49.344 67.4143 48.984C67.6063 48.616 67.7023 48.192 67.7023 47.712C67.7023 47.232 67.6063 46.808 67.4143 46.44C67.2223 46.072 66.9543 45.792 66.6103 45.6C66.2743 45.4 65.8903 45.3 65.4583 45.3ZM74.1763 50.04V51H73.3603C72.6883 51 72.1843 50.84 71.8483 50.52C71.5203 50.2 71.3563 49.664 71.3563 48.912V45.36H70.3723V44.412H71.3563V42.768H72.4603V44.412H74.1643V45.36H72.4603V48.936C72.4603 49.36 72.5363 49.652 72.6883 49.812C72.8483 49.964 73.1203 50.04 73.5043 50.04H74.1763ZM78.9968 44.328C79.6288 44.328 80.1928 44.464 80.6888 44.736C81.1928 45.008 81.5848 45.4 81.8648 45.912C82.1528 46.424 82.2968 47.024 82.2968 47.712C82.2968 48.4 82.1528 49 81.8648 49.512C81.5848 50.016 81.1928 50.404 80.6888 50.676C80.1928 50.948 79.6288 51.084 78.9968 51.084C78.3648 51.084 77.7968 50.948 77.2928 50.676C76.7968 50.404 76.4048 50.016 76.1168 49.512C75.8288 49 75.6848 48.4 75.6848 47.712C75.6848 47.024 75.8288 46.424 76.1168 45.912C76.4048 45.4 76.7968 45.008 77.2928 44.736C77.7968 44.464 78.3648 44.328 78.9968 44.328ZM78.9968 45.288C78.6048 45.288 78.2408 45.376 77.9048 45.552C77.5768 45.728 77.3088 46 77.1008 46.368C76.9008 46.728 76.8008 47.176 76.8008 47.712C76.8008 48.24 76.9008 48.688 77.1008 49.056C77.3088 49.416 77.5768 49.684 77.9048 49.86C78.2408 50.036 78.6048 50.124 78.9968 50.124C79.3888 50.124 79.7488 50.036 80.0768 49.86C80.4128 49.684 80.6808 49.416 80.8808 49.056C81.0888 48.688 81.1928 48.24 81.1928 47.712C81.1928 47.176 81.0888 46.728 80.8808 46.368C80.6808 46 80.4128 45.728 80.0768 45.552C79.7488 45.376 79.3888 45.288 78.9968 45.288ZM85.3118 45.744C85.5278 45.288 85.8438 44.936 86.2598 44.688C86.6758 44.432 87.1718 44.304 87.7478 44.304V45.492H87.4118C86.7958 45.492 86.2918 45.652 85.8998 45.972C85.5078 46.284 85.3118 46.804 85.3118 47.532V51H84.2198V44.412H85.3118V45.744Z" fill="#BFC7D5"/>
</svg>
