<svg width="71" height="22" viewBox="0 0 71 22" fill="none" xmlns="http://www.w3.org/2000/svg">
<g clip-path="url(#clip0)">
<path fill-rule="evenodd" clip-rule="evenodd" d="M15.3124 6.21646C15.3124 9.03498 13.027 11.3204 10.2085 11.3204C7.38994 11.3204 5.10449 9.03498 5.10449 6.21646C5.10449 3.39793 7.38994 1.11249 10.2085 1.11249C13.027 1.11249 15.3124 3.39793 15.3124 6.21646Z" stroke="#80757A" stroke-linecap="round" stroke-linejoin="round"/>
<path d="M19.849 21.5284V20.1356C19.849 15.2675 15.5334 11.3204 10.2082 11.3204C4.88421 11.3204 0.567383 15.2675 0.567383 20.1356V21.5284" stroke="#80757A" stroke-linecap="round" stroke-linejoin="round"/>
<path d="M41.908 7.08541V12.1614C41.908 12.9934 42.092 13.6094 42.46 14.0094C42.828 14.4014 43.336 14.5974 43.984 14.5974C44.624 14.5974 45.124 14.3974 45.484 13.9974C45.844 13.5974 46.024 12.9854 46.024 12.1614V7.08541H47.116V12.1614C47.116 13.3134 46.828 14.1814 46.252 14.7654C45.684 15.3414 44.92 15.6294 43.96 15.6294C43.008 15.6294 42.244 15.3414 41.668 14.7654C41.1 14.1814 40.816 13.3134 40.816 12.1614V7.08541H41.908ZM51.8736 8.87341C52.6176 8.87341 53.2136 9.06941 53.6616 9.46141C54.1176 9.84541 54.3936 10.3654 54.4896 11.0214H53.4456C53.3976 10.6294 53.2336 10.3094 52.9536 10.0614C52.6816 9.80541 52.3136 9.67741 51.8496 9.67741C51.4576 9.67741 51.1496 9.77341 50.9256 9.96541C50.7096 10.1494 50.6016 10.4014 50.6016 10.7214C50.6016 10.9614 50.6736 11.1574 50.8176 11.3094C50.9696 11.4534 51.1536 11.5654 51.3696 11.6454C51.5936 11.7174 51.8976 11.7974 52.2816 11.8854C52.7696 11.9974 53.1616 12.1134 53.4576 12.2334C53.7616 12.3454 54.0176 12.5294 54.2256 12.7854C54.4416 13.0414 54.5496 13.3854 54.5496 13.8174C54.5496 14.3534 54.3456 14.7894 53.9376 15.1254C53.5376 15.4614 53.0016 15.6294 52.3296 15.6294C51.5456 15.6294 50.9056 15.4414 50.4096 15.0654C49.9136 14.6894 49.6216 14.1654 49.5336 13.4934H50.5896C50.6296 13.8934 50.8016 14.2174 51.1056 14.4654C51.4176 14.7134 51.8256 14.8374 52.3296 14.8374C52.7056 14.8374 52.9976 14.7414 53.2056 14.5494C53.4216 14.3574 53.5296 14.1054 53.5296 13.7934C53.5296 13.5374 53.4536 13.3334 53.3016 13.1814C53.1496 13.0294 52.9616 12.9134 52.7376 12.8334C52.5136 12.7534 52.2056 12.6694 51.8136 12.5814C51.3256 12.4694 50.9336 12.3574 50.6376 12.2454C50.3496 12.1334 50.1016 11.9574 49.8936 11.7174C49.6936 11.4694 49.5936 11.1374 49.5936 10.7214C49.5936 10.1694 49.7976 9.72541 50.2056 9.38941C50.6136 9.04541 51.1696 8.87341 51.8736 8.87341ZM63.0688 11.8854C63.0688 12.1174 63.0528 12.3174 63.0208 12.4854H57.7528C57.7768 13.2374 57.9888 13.8014 58.3888 14.1774C58.7968 14.5534 59.2928 14.7414 59.8768 14.7414C60.4048 14.7414 60.8448 14.6094 61.1968 14.3454C61.5568 14.0734 61.7768 13.7134 61.8568 13.2654H63.0208C62.9408 13.7214 62.7608 14.1294 62.4808 14.4894C62.2088 14.8494 61.8528 15.1294 61.4128 15.3294C60.9728 15.5294 60.4768 15.6294 59.9248 15.6294C59.2928 15.6294 58.7328 15.4934 58.2448 15.2214C57.7568 14.9494 57.3728 14.5614 57.0928 14.0574C56.8208 13.5454 56.6848 12.9454 56.6848 12.2574C56.6848 11.5694 56.8208 10.9694 57.0928 10.4574C57.3728 9.94541 57.7568 9.55341 58.2448 9.28141C58.7328 9.00941 59.2928 8.87341 59.9248 8.87341C60.5648 8.87341 61.1208 9.00941 61.5928 9.28141C62.0728 9.55341 62.4368 9.91741 62.6848 10.3734C62.9408 10.8294 63.0688 11.3334 63.0688 11.8854ZM61.9648 11.9574C61.9888 11.4694 61.9088 11.0614 61.7248 10.7334C61.5408 10.4054 61.2888 10.1614 60.9688 10.0014C60.6488 9.84141 60.3008 9.76141 59.9248 9.76141C59.3248 9.76141 58.8208 9.94941 58.4128 10.3254C58.0048 10.6934 57.7848 11.2374 57.7528 11.9574H61.9648ZM66.5891 10.2894C66.8051 9.83341 67.1211 9.48141 67.5371 9.23341C67.9531 8.97741 68.4491 8.84941 69.0251 8.84941V10.0374H68.6891C68.0731 10.0374 67.5691 10.1974 67.1771 10.5174C66.7851 10.8294 66.5891 11.3494 66.5891 12.0774V15.5454H65.4971V8.95741H66.5891V10.2894Z" fill="#80757A"/>
</g>
<defs>
<clipPath id="clip0">
<rect y="0.54541" width="71" height="21" fill="white"/>
</clipPath>
</defs>
</svg>
