<svg width="24" height="24" viewBox="0 0 24 24" fill="none" xmlns="http://www.w3.org/2000/svg">
<path fill-rule="evenodd" clip-rule="evenodd" d="M23.0467 10.9168C22.8261 4.85193 17.8639 0 11.6887 0C5.62383 0 0.661627 4.74166 0.441085 10.6963C0.441085 10.8066 0.441085 11.0271 0.441085 11.1374C0.441085 13.2325 0.99244 15.2174 2.09515 16.9818L0 23.0467L6.28546 21.0618C7.93952 21.944 9.81413 22.4953 11.799 22.4953C18.0845 22.4953 23.0467 17.4228 23.0467 11.2477C23.0467 11.1374 23.0467 11.0271 23.0467 10.9168ZM11.6887 20.6207C9.70386 20.6207 7.93952 20.0693 6.506 19.0769L2.86705 20.2899L4.08003 16.7612C2.97732 15.2174 2.31569 13.3428 2.31569 11.2477C2.31569 10.9168 2.31569 10.586 2.31569 10.3655C2.75678 5.51356 6.83681 1.76434 11.6887 1.76434C16.6509 1.76434 20.731 5.62383 21.1721 10.4758C21.1721 10.6963 21.1721 10.9168 21.1721 11.2477C21.1721 16.4304 16.9818 20.6207 11.6887 20.6207Z" fill="#939496"/>
<path fill-rule="evenodd" clip-rule="evenodd" d="M16.8716 13.4531C16.5408 13.3428 15.2175 12.6812 14.997 12.5709C14.7764 12.4607 14.5559 12.4607 14.3354 12.6812C14.1148 12.9018 13.5635 13.5634 13.4532 13.7839C13.3429 14.0045 13.1224 14.0045 12.9018 13.8942C12.6813 13.7839 11.6888 13.4531 10.6964 12.5709C9.92451 11.799 9.26289 10.9169 9.15261 10.6963C9.04234 10.4758 9.15261 10.2552 9.26288 10.145C9.37316 9.92444 9.48343 9.70389 9.70397 9.59362L9.81424 9.48335C9.81424 9.37308 9.92451 9.26281 9.92451 9.15254C10.0348 8.932 9.92451 8.82173 9.92451 8.71145C9.81424 8.49091 9.26288 7.16766 9.04234 6.6163C8.8218 6.06495 8.60126 6.17522 8.49099 6.17522C8.38072 6.17522 8.16017 6.17522 7.93963 6.17522C7.71909 6.06495 7.38828 6.17522 7.16773 6.39576C6.94719 6.72657 6.17529 7.3882 6.17529 8.71145C6.17529 9.04227 6.28556 9.37308 6.28556 9.59362C6.61638 10.5861 7.16773 11.358 7.278 11.4682C7.38828 11.6888 9.15261 14.5558 12.0197 15.6585C14.8867 16.7612 14.8867 16.4304 15.3278 16.3202C15.8792 16.3202 16.9819 15.6585 17.2024 14.9969C17.4229 14.3353 17.4229 13.7839 17.3127 13.6737C17.3127 13.6737 17.2024 13.6737 16.8716 13.4531Z" fill="#939496"/>
</svg>
