<svg width="25" height="25" viewBox="0 0 25 25" fill="none" xmlns="http://www.w3.org/2000/svg">
<path fill-rule="evenodd" clip-rule="evenodd" d="M25 11.7472C24.7627 5.22099 19.4231 0 12.7782 0C6.25192 0 0.912271 5.10233 0.674953 11.5099C0.674953 11.6286 0.674953 11.8659 0.674953 11.9846C0.674953 14.2391 1.26825 16.3749 2.45484 18.2735L0.200317 24.7997L6.96388 22.6639C8.74376 23.6131 10.761 24.2064 12.8968 24.2064C19.6604 24.2064 25 18.7481 25 12.1032C25 11.9846 25 11.8659 25 11.7472ZM12.7782 22.1892C10.6423 22.1892 8.74376 21.5959 7.2012 20.528L3.28545 21.8332L4.5907 18.0362C3.40411 16.3749 2.69216 14.3577 2.69216 12.1032C2.69216 11.7472 2.69216 11.3913 2.69216 11.1539C3.16679 5.93295 7.55717 1.89854 12.7782 1.89854C18.1178 1.89854 22.5082 6.05161 22.9828 11.2726C22.9828 11.5099 22.9828 11.7472 22.9828 12.1032C22.9828 17.6802 18.4738 22.1892 12.7782 22.1892Z" fill="#272425"/>
<path fill-rule="evenodd" clip-rule="evenodd" d="M18.3551 14.4764C17.9992 14.3578 16.5752 13.6458 16.3379 13.5272C16.1006 13.4085 15.8633 13.4085 15.626 13.6458C15.3887 13.8831 14.7954 14.5951 14.6767 14.8324C14.558 15.0697 14.3207 15.0697 14.0834 14.9511C13.8461 14.8324 12.7782 14.4764 11.7102 13.5272C10.8796 12.6965 10.1677 11.7473 10.049 11.51C9.93035 11.2726 10.049 11.0353 10.1677 10.9167C10.2863 10.6793 10.405 10.442 10.6423 10.3234L10.761 10.2047C10.761 10.086 10.8796 9.96739 10.8796 9.84873C10.9983 9.61141 10.8796 9.49275 10.8796 9.37409C10.761 9.13678 10.1677 7.71287 9.93035 7.11958C9.69303 6.52628 9.45571 6.64494 9.33705 6.64494C9.21839 6.64494 8.98108 6.64494 8.74376 6.64494C8.50644 6.52628 8.15046 6.64494 7.91315 6.88226C7.67583 7.23823 6.84521 7.95019 6.84521 9.37409C6.84521 9.73007 6.96387 10.086 6.96387 10.3234C7.31985 11.3913 7.91315 12.2219 8.0318 12.3406C8.15046 12.5779 10.049 15.663 13.1341 16.8496C16.2193 18.0362 16.2193 17.6802 16.6939 17.5616C17.2872 17.5616 18.4738 16.8496 18.7111 16.1377C18.9484 15.4257 18.9484 14.8324 18.8298 14.7137C18.8298 14.7137 18.7111 14.7137 18.3551 14.4764Z" fill="#272425"/>
</svg>
